SplineFontDB: 3.0
FontName: MerriweatherSans-ExtraBldItalic
FullName: Merriweather Sans ExtraBold Italic
FamilyName: Merriweather Sans
Weight: Heavy
Copyright: Copyright (c) 2013, Sorkin Type Co (www.sorkintype.com) with Reserved Font Name 'Merriweather'
Version: 1.000
ItalicAngle: -7
UnderlinePosition: -88
UnderlineWidth: 201
Ascent: 1638
Descent: 410
LayerCount: 2
Layer: 0 1 "Back"  1
Layer: 1 1 "Fore"  0
NeedsXUIDChange: 1
XUID: [1021 631 1661839179 10666793]
FSType: 0
OS2Version: 3
OS2_WeightWidthSlopeOnly: 0
OS2_UseTypoMetrics: 1
CreationTime: 1367323620
ModificationTime: 1367308684
PfmFamily: 17
TTFWeight: 800
TTFWidth: 5
LineGap: 0
VLineGap: 0
Panose: 2 0 9 3 6 0 0 9 0 4
OS2TypoAscent: 375
OS2TypoAOffset: 1
OS2TypoDescent: -149
OS2TypoDOffset: 1
OS2TypoLinegap: 0
OS2WinAscent: -3
OS2WinAOffset: 1
OS2WinDescent: 585
OS2WinDOffset: 1
HheadAscent: -3
HheadAOffset: 1
HheadDescent: 1
HheadDOffset: 1
OS2SubXSize: 2726
OS2SubYSize: 2517
OS2SubXOff: 0
OS2SubYOff: 315
OS2SupXSize: 2726
OS2SupYSize: 2517
OS2SupXOff: 0
OS2SupYOff: 1468
OS2StrikeYSize: 102
OS2StrikeYPos: 512
OS2FamilyClass: 512
OS2Vendor: 'STC '
OS2CodePages: 20000093.00000000
OS2UnicodeRanges: a00000af.5000204b.00000000.00000000
Lookup: 1 0 0 "'aalt' Access All Alternates in Latin lookup 0"  {"'aalt' Access All Alternates in Latin lookup 0 subtable"  } ['aalt' ('DFLT' <'dflt' > 'latn' <'AZE ' 'CRT ' 'MOL ' 'ROM ' 'TRK ' 'dflt' > ) ]
Lookup: 3 0 0 "'aalt' Access All Alternates in Latin lookup 1"  {"'aalt' Access All Alternates in Latin lookup 1 subtable"  } ['aalt' ('DFLT' <'dflt' > 'latn' <'AZE ' 'CRT ' 'MOL ' 'ROM ' 'TRK ' 'dflt' > ) ]
Lookup: 1 0 0 "'locl' Localized Forms lookup 2"  {"'locl' Localized Forms lookup 2 subtable"  } ['locl' ('DFLT' <'AZE ' > ) ]
Lookup: 1 0 0 "'locl' Localized Forms lookup 3"  {"'locl' Localized Forms lookup 3 subtable"  } ['locl' ('DFLT' <'TRK ' > ) ]

StartChar: .notdef
Encoding: 65536 -1 0
Width: 1872
Flags: HW
LayerCount: 2
Fore
SplineSet
213 1416 m 1,0,-1
 1629 1416 l 1,1,-1
 1629 0 l 1,2,-1
 213 0 l 1,3,-1
 213 1416 l 1,0,-1
571 219 m 1,4,-1
 918 587 l 1,5,-1
 1280 219 l 1,6,-1
 1402 341 l 1,7,-1
 1039 709 l 1,8,-1
 1402 1067 l 1,9,-1
 1274 1191 l 1,10,-1
 922 825 l 1,11,-1
 565 1193 l 1,12,-1
 442 1068 l 1,13,-1
 801 705 l 1,14,-1
 443 363 l 1,15,-1
 571 219 l 1,4,-1
EndSplineSet
EndChar

StartChar: numbersign
Encoding: 35 35 4
Width: 1405
Flags: HW
LayerCount: 2
Fore
SplineSet
282 321 m 1,0,-1
 108 321 l 1,1,-1
 128 549 l 1,2,-1
 314 549 l 1,3,-1
 364 850 l 1,4,-1
 184 850 l 1,5,-1
 203 1071 l 1,6,-1
 395 1071 l 1,7,-1
 442 1357 l 1,8,-1
 687 1357 l 1,9,-1
 642 1071 l 1,10,-1
 873 1071 l 1,11,-1
 923 1357 l 1,12,-1
 1168 1357 l 1,13,-1
 1120 1071 l 1,14,-1
 1312 1071 l 1,15,-1
 1293 850 l 1,16,-1
 1089 850 l 1,17,-1
 1038 549 l 1,18,-1
 1225 549 l 1,19,-1
 1205 321 l 1,20,-1
 1006 321 l 1,21,-1
 952 0 l 1,22,-1
 712 0 l 1,23,-1
 760 321 l 1,24,-1
 528 321 l 1,25,-1
 469 0 l 1,26,-1
 227 0 l 1,27,-1
 282 321 l 1,0,-1
792 549 m 1,28,-1
 842 850 l 1,29,-1
 611 850 l 1,30,-1
 560 549 l 1,31,-1
 792 549 l 1,28,-1
EndSplineSet
EndChar

StartChar: ampersand
Encoding: 38 38 5
Width: 1565
Flags: HW
LayerCount: 2
Fore
SplineSet
965 33 m 1,0,1
 806.24 -16 806.24 -16 640.12 -16 c 128,-1,2
 474 -16 474 -16 360.5 6 c 128,-1,3
 247 28 247 28 168 74.5 c 0,4,5
 5 170.443 5 170.443 5 361 c 0,6,7
 5 560.098 5 560.098 214 704 c 0,8,9
 275 746 275 746 342 784 c 1,10,11
 263 965.235 263 965.235 263 1108 c 0,12,13
 263 1297.07 263 1297.07 389.5 1417.5 c 0,14,15
 524.479 1546 524.479 1546 757 1546 c 0,16,17
 978 1546 978 1546 1081 1443 c 0,18,19
 1161 1363 1161 1363 1161 1255.5 c 128,-1,20
 1161 1148 1161 1148 1126 1075 c 128,-1,21
 1091 1002 1091 1002 1033 941.5 c 0,22,23
 940.756 845.28 940.756 845.28 752 736 c 1,24,25
 891.27 514.112 891.27 514.112 1047 369 c 1,26,27
 1095 433.696 1095 433.696 1095 521 c 0,28,29
 1095 553.5 1095 553.5 1090 591 c 1,30,31
 1026 585 1026 585 991 561 c 1,32,-1
 1001 785 l 1,33,34
 1036 830 1036 830 1150 830 c 2,35,-1
 1597 829 l 1,36,-1
 1577 594 l 1,37,-1
 1421 594 l 1,38,-1
 1421 586 l 2,39,40
 1421 367.348 1421 367.348 1275 215 c 1,41,42
 1356.2 187 1356.2 187 1461 187 c 0,43,44
 1483 187 1483 187 1507 188 c 1,45,-1
 1467 8 l 1,46,47
 1403 -16 1403 -16 1243.37 -16 c 128,-1,48
 1083.73 -16 1083.73 -16 965 33 c 1,0,1
637 945 m 1,49,50
 733.783 1003.52 733.783 1003.52 769.892 1045.76 c 0,51,52
 836 1123.09 836 1123.09 836 1191.55 c 128,-1,53
 836 1260 836 1260 808.5 1293 c 128,-1,54
 781 1326 781 1326 735 1326 c 128,-1,55
 689 1326 689 1326 666 1312.5 c 128,-1,56
 643 1299 643 1299 626.5 1275 c 0,57,58
 592 1224.82 592 1224.82 592 1159.41 c 0,59,60
 592 1061.47 592 1061.47 637 945 c 1,49,50
466 563 m 1,61,62
 352 475.308 352 475.308 352 391 c 0,63,64
 352 252.113 352 252.113 525 226 c 0,65,66
 578 218 578 218 620.5 218 c 0,67,68
 684 218 684 218 728 222 c 1,69,70
 610.69 339.31 610.69 339.31 522.5 474 c 1,71,-1
 466 563 l 1,61,62
EndSplineSet
EndChar

StartChar: quotesingle
Encoding: 39 39 6
Width: 564
Flags: HW
LayerCount: 2
Fore
SplineSet
301 1687 m 1,0,-1
 628 1687 l 1,1,-1
 444 966 l 1,2,-1
 216 966 l 1,3,-1
 301 1687 l 1,0,-1
EndSplineSet
EndChar

StartChar: parenleft
Encoding: 40 40 7
Width: 854
Flags: HW
LayerCount: 2
Fore
SplineSet
680 -245 m 1,0,-1
 504 -351 l 1,1,-1
 487 -351 l 1,2,3
 365.018 -250.801 365.018 -250.801 266.5 -64 c 0,4,5
 130 194.818 130 194.818 130 540 c 0,6,7
 130 980.635 130 980.635 313 1322 c 0,8,9
 450.303 1578.12 450.303 1578.12 651.5 1729.5 c 0,10,11
 704 1769 704 1769 745 1791 c 1,12,-1
 924 1672 l 1,13,14
 747.464 1490.88 747.464 1490.88 647.5 1320 c 0,15,16
 449 980.684 449 980.684 449 531.467 c 128,-1,17
 449 82.25 449 82.25 680 -245 c 1,0,-1
EndSplineSet
EndChar

StartChar: asterisk
Encoding: 42 42 9
Width: 1366
Flags: HW
LayerCount: 2
Fore
SplineSet
629 910 m 1,0,-1
 657 1048 l 1,1,-1
 260 759 l 1,2,-1
 153 969 l 1,3,-1
 480 1095 l 1,4,-1
 609 1150 l 1,5,-1
 192 1331 l 1,6,-1
 322 1539 l 1,7,-1
 580 1336 l 1,8,-1
 678 1255 l 1,9,-1
 679 1390 l 1,10,-1
 671 1721 l 1,11,-1
 909 1721 l 1,12,-1
 799 1255 l 1,13,-1
 920 1336 l 1,14,-1
 1212 1541 l 1,15,-1
 1309 1331 l 1,16,-1
 982 1203 l 1,17,-1
 853 1148 l 1,18,-1
 971 1095 l 1,19,-1
 1270 969 l 1,20,-1
 1120 761 l 1,21,-1
 881 964 l 1,22,-1
 778 1048 l 1,23,-1
 784 910 l 1,24,-1
 796 579 l 1,25,-1
 552 580 l 1,26,-1
 629 910 l 1,0,-1
EndSplineSet
EndChar

StartChar: plus
Encoding: 43 43 10
Width: 1352
Flags: HW
LayerCount: 2
Fore
SplineSet
530 526 m 1,0,-1
 555 661 l 1,1,-1
 431 654 l 1,2,-1
 182 654 l 1,3,-1
 217 917 l 1,4,-1
 466 917 l 1,5,-1
 583 906 l 1,6,-1
 592 1045 l 1,7,-1
 622 1324 l 1,8,-1
 894 1324 l 1,9,-1
 868 1045 l 1,10,-1
 843 907 l 1,11,-1
 941 917 l 1,12,-1
 1216 917 l 1,13,-1
 1181 654 l 1,14,-1
 907 654 l 1,15,-1
 810 661 l 1,16,-1
 804 526 l 1,17,-1
 770 250 l 1,18,-1
 497 250 l 1,19,-1
 530 526 l 1,0,-1
EndSplineSet
EndChar

StartChar: comma
Encoding: 44 44 11
Width: 526
Flags: HW
LayerCount: 2
Fore
SplineSet
46 107 m 1,0,-1
 202 295 l 1,1,2
 354.783 236.031 354.783 236.031 393 54.5 c 0,3,4
 403 7 403 7 403 -53.5 c 128,-1,5
 403 -114 403 -114 379.5 -191.5 c 128,-1,6
 356 -269 356 -269 312 -333.5 c 0,7,8
 219.177 -469.57 219.177 -469.57 61 -519 c 1,9,-1
 -32 -392 l 1,10,-1
 -29 -371 l 1,11,12
 76.6381 -316.672 76.6381 -316.672 114 -191 c 0,13,14
 125 -154 125 -154 125 -119.5 c 128,-1,15
 125 -85 125 -85 117.5 -56.5 c 128,-1,16
 110 -28 110 -28 98 -6 c 0,17,18
 74.2239 37.5895 74.2239 37.5895 39 53 c 1,19,-1
 46 107 l 1,0,-1
EndSplineSet
EndChar

StartChar: period
Encoding: 46 46 12
Width: 526
Flags: HW
LayerCount: 2
Fore
SplineSet
71.5 13.5 m 128,-1,1
 30 56 30 56 30 110.5 c 128,-1,2
 30 165 30 165 44.5 204 c 128,-1,3
 59 243 59 243 86 272.5 c 0,4,5
 145.949 338 145.949 338 238 338 c 0,6,7
 361.537 338 361.537 338 390.5 246 c 0,8,9
 399 219 399 219 399 179.5 c 128,-1,10
 399 140 399 140 384 99.5 c 128,-1,11
 369 59 369 59 341 30.5 c 0,12,13
 282.544 -29 282.544 -29 197.772 -29 c 128,-1,0
 113 -29 113 -29 71.5 13.5 c 128,-1,1
EndSplineSet
EndChar

StartChar: slash
Encoding: 47 47 13
Width: 854
Flags: HW
LayerCount: 2
Fore
SplineSet
-142 -362 m 1,0,-1
 719 1597 l 1,1,-1
 993 1597 l 1,2,-1
 130 -362 l 1,3,-1
 -142 -362 l 1,0,-1
EndSplineSet
EndChar

StartChar: zero
Encoding: 48 48 14
Width: 1278
Flags: HW
LayerCount: 2
Fore
SplineSet
119 275 m 128,-1,1
 93 359 93 359 93 455 c 128,-1,2
 93 551 93 551 116.5 642.5 c 128,-1,3
 140 734 140 734 182 812.5 c 128,-1,4
 224 891 224 891 283 954.5 c 128,-1,5
 342 1018 342 1018 413.5 1062.5 c 0,6,7
 563.73 1156 563.73 1156 734 1156 c 0,8,9
 958.792 1156 958.792 1156 1072 1022.5 c 0,10,11
 1175 901.038 1175 901.038 1175 691 c 0,12,13
 1175 404.491 1175 404.491 994 196.5 c 0,14,15
 877.975 63.1726 877.975 63.1726 713 10.5 c 0,16,17
 630 -16 630 -16 526 -16 c 128,-1,18
 422 -16 422 -16 337.5 23 c 128,-1,19
 253 62 253 62 199 126.5 c 128,-1,0
 145 191 145 191 119 275 c 128,-1,1
841 650 m 0,20,21
 841 874 841 874 700 874 c 0,22,23
 697.189 874.054 697.189 874.054 671.5 874.054 c 128,-1,24
 645.811 874.054 645.811 874.054 606.405 857.027 c 128,-1,25
 567 840 567 840 536.5 810 c 128,-1,26
 506 780 506 780 485 740.5 c 128,-1,27
 464 701 464 701 451 658 c 0,28,29
 427 578.615 427 578.615 427 511.308 c 128,-1,30
 427 444 427 444 437 403.5 c 128,-1,31
 447 363 447 363 466.5 332.5 c 0,32,33
 508.377 267 508.377 267 579.689 267 c 128,-1,34
 651 267 651 267 699.5 302 c 128,-1,35
 748 337 748 337 779.5 392 c 0,36,37
 841 499.381 841 499.381 841 650 c 0,20,21
EndSplineSet
EndChar

StartChar: one
Encoding: 49 49 15
Width: 1036
Flags: HW
LayerCount: 2
Fore
SplineSet
431 801 m 1,0,1
 367.2 781.2 367.2 781.2 311.1 774.6 c 128,-1,2
 255 768 255 768 222 762 c 1,3,-1
 182 960 l 1,4,5
 331.32 994.458 331.32 994.458 508 1104 c 1,6,-1
 598 1162 l 1,7,-1
 838 1152 l 1,8,-1
 668 0 l 1,9,-1
 311 0 l 1,10,-1
 431 801 l 1,0,1
EndSplineSet
Substitution2: "'sups' Superscript in Latin lookup 11 subtable" onesuperior
EndChar

StartChar: two
Encoding: 50 50 16
Width: 1289
Flags: HW
LayerCount: 2
Fore
SplineSet
51 142 m 1,0,1
 317.449 284.308 317.449 284.308 510.5 463 c 0,2,3
 706 643.959 706 643.959 706 766 c 0,4,5
 706 817 706 817 675 845.5 c 128,-1,6
 644 874 644 874 601.5 874 c 128,-1,7
 559 874 559 874 520 863.5 c 128,-1,8
 481 853 481 853 440.5 836 c 0,9,10
 351.661 798.71 351.661 798.71 296 751 c 1,11,-1
 177 940 l 1,12,13
 300.864 1072.12 300.864 1072.12 509 1134 c 0,14,15
 583 1156 583 1156 678.5 1156 c 128,-1,16
 774 1156 774 1156 855 1128 c 128,-1,17
 936 1100 936 1100 989.5 1053.5 c 0,18,19
 1095 961.804 1095 961.804 1095 820 c 0,20,21
 1095 547.092 1095 547.092 771.5 342.5 c 0,22,23
 679 284 679 284 582 231 c 1,24,-1
 1185 253 l 1,25,-1
 1140 0 l 1,26,-1
 97 0 l 1,27,-1
 51 142 l 1,0,1
EndSplineSet
Substitution2: "'sups' Superscript in Latin lookup 11 subtable" twosuperior
EndChar

StartChar: three
Encoding: 51 51 17
Width: 1168
Flags: HW
LayerCount: 2
Fore
SplineSet
80 -67 m 1,0,1
 154 -77 154 -77 214 -77 c 0,2,3
 639 -77 639 -77 639 170 c 0,4,5
 639 271.429 639 271.429 544 313.5 c 0,6,7
 509 329 509 329 458 331 c 1,8,-1
 271 293 l 1,9,-1
 299 550 l 1,10,11
 443.973 566.808 443.973 566.808 549 625.5 c 0,12,13
 662 688.647 662 688.647 662 776 c 0,14,15
 662 836 662 836 627 865.5 c 128,-1,16
 592 895 592 895 506 895 c 0,17,18
 375 895 375 895 250 795 c 1,19,-1
 152 1002 l 1,20,21
 246 1096 246 1096 468 1141 c 0,22,23
 542 1156 542 1156 622 1156 c 256,24,25
 791.5 1156 791.5 1156 902.5 1084 c 0,26,27
 1023 1005.84 1023 1005.84 1023 865 c 0,28,29
 1023 727.376 1023 727.376 927.5 617.5 c 0,30,31
 828.936 504.099 828.936 504.099 662 455 c 1,32,33
 823.866 449.287 823.866 449.287 924.5 357.5 c 0,34,35
 1018 272.22 1018 272.22 1018 156.61 c 128,-1,36
 1018 41 1018 41 958.5 -48.5 c 128,-1,37
 899 -138 899 -138 792.5 -200 c 0,38,39
 576.065 -326 576.065 -326 215 -326 c 0,40,41
 144 -326 144 -326 47 -314 c 1,42,-1
 80 -67 l 1,0,1
EndSplineSet
Substitution2: "'sups' Superscript in Latin lookup 11 subtable" threesuperior
EndChar

StartChar: four
Encoding: 52 52 18
Width: 1304
Flags: HW
LayerCount: 2
Fore
SplineSet
1 164 m 1,0,1
 141.5 438 l 1,2,-1
 426.5 984.5 l 1,3,4
 495 1121 495 1121 555 1256 c 1,5,-1
 852 1256 l 1,6,-1
 934 1167 l 1,7,-1
 424 333 l 1,8,-1
 345 222 l 1,9,-1
 710 239 l 1,10,-1
 762 614 l 1,11,-1
 1085 649 l 1,12,-1
 1038 247 l 1,13,-1
 1239 261 l 1,14,-1
 1202 0 l 1,15,-1
 1002 0 l 1,16,-1
 955 -375 l 1,17,-1
 626 -375 l 1,18,-1
 675 0 l 1,19,-1
 79 0 l 1,20,-1
 1 164 l 1,0,1
EndSplineSet
EndChar

StartChar: five
Encoding: 53 53 19
Width: 1176
Flags: HW
LayerCount: 2
Fore
SplineSet
71 -117 m 1,0,1
 105.5 -123 105.5 -123 152.25 -123 c 128,-1,2
 199 -123 199 -123 255.5 -116.5 c 128,-1,3
 312 -110 312 -110 369 -94.5 c 128,-1,4
 426 -79 426 -79 478.5 -54.5 c 128,-1,5
 531 -30 531 -30 571.5 6 c 0,6,7
 661 85.5556 661 85.5556 661 201 c 0,8,9
 661 283.867 661 283.867 630 316.933 c 0,10,11
 573.688 377 573.688 377 461 377 c 0,12,13
 330.4 377 330.4 377 235 324 c 1,14,-1
 109 459 l 1,15,-1
 263 1140 l 1,16,-1
 850 1140 l 1,17,-1
 872 1156 l 1,18,-1
 1080 1156 l 1,19,-1
 998 865 l 1,20,-1
 530 865 l 1,21,-1
 452 570 l 1,22,23
 533.667 605 533.667 605 641.333 605 c 128,-1,24
 749 605 749 605 818.5 585.5 c 128,-1,25
 888 566 888 566 940 523 c 0,26,27
 1052 430.385 1052 430.385 1052 241 c 0,28,29
 1052 -43.3629 1052 -43.3629 799.5 -208.5 c 0,30,31
 558.677 -366 558.677 -366 164 -366 c 0,32,33
 85 -366 85 -366 34 -349 c 1,34,-1
 71 -117 l 1,0,1
EndSplineSet
EndChar

StartChar: six
Encoding: 54 54 20
Width: 1293
Flags: HW
LayerCount: 2
Fore
SplineSet
111 519 m 0,0,1
 111 636 111 636 141 757.5 c 128,-1,2
 171 879 171 879 227 992 c 128,-1,3
 283 1105 283 1105 363.5 1205.5 c 128,-1,4
 444 1306 444 1306 544.5 1388.5 c 0,5,6
 753.153 1559.78 753.153 1559.78 1016 1625 c 1,7,-1
 1095 1414 l 1,8,9
 830.829 1324.8 830.829 1324.8 635.5 1095.5 c 0,10,11
 567.378 1015.53 567.378 1015.53 553 970 c 1,12,13
 626.779 1018.24 626.779 1018.24 767 1033 c 0,14,15
 805 1037 805 1037 834 1037 c 0,16,17
 1009.9 1037 1009.9 1037 1107.5 906.5 c 0,18,19
 1196 788.169 1196 788.169 1196 607 c 0,20,21
 1196 358.34 1196 358.34 1061 186 c 0,22,23
 902.767 -16 902.767 -16 601 -16 c 0,24,25
 353.141 -16 353.141 -16 226 137 c 0,26,27
 111 275.39 111 275.39 111 519 c 0,0,1
557 241.5 m 128,-1,29
 592 222 592 222 644 222 c 128,-1,30
 696 222 696 222 740 258 c 128,-1,31
 784 294 784 294 811 347 c 0,32,33
 861 445.148 861 445.148 861 574 c 0,34,35
 861 735.531 861 735.531 751 778.5 c 0,36,37
 719 791 719 791 683 791 c 256,38,39
 580.138 791 580.138 791 504.5 737.5 c 0,40,41
 484 723 484 723 474 710 c 1,42,43
 439 605 439 605 439 528.5 c 128,-1,44
 439 452 439 452 454.5 395 c 128,-1,45
 470 338 470 338 496 299.5 c 128,-1,28
 522 261 522 261 557 241.5 c 128,-1,29
EndSplineSet
EndChar

StartChar: seven
Encoding: 55 55 21
Width: 1136
Flags: HW
LayerCount: 2
Fore
SplineSet
729 867 m 1,0,-1
 76 867 l 1,1,-1
 140 1140 l 1,2,-1
 1092 1140 l 1,3,-1
 1141 1074 l 1,4,-1
 516 -349 l 1,5,-1
 218 -242 l 1,6,-1
 729 867 l 1,0,-1
EndSplineSet
EndChar

StartChar: eight
Encoding: 56 56 22
Width: 1390
Flags: HW
LayerCount: 2
Fore
SplineSet
497 770 m 1,0,1
 321 936.222 321 936.222 321 1111 c 0,2,3
 321 1313.98 321 1313.98 460.5 1432.5 c 0,4,5
 597.619 1549 597.619 1549 827 1549 c 0,6,7
 1029.28 1549 1029.28 1549 1158.5 1455.5 c 0,8,9
 1289 1361.07 1289 1361.07 1289 1210 c 0,10,11
 1289 981.041 1289 981.041 1079.5 868.5 c 0,12,13
 1019 836 1019 836 955 813 c 1,14,15
 1073.18 720.823 1073.18 720.823 1121.59 652.911 c 0,16,17
 1214 523.278 1214 523.278 1214 413.139 c 128,-1,18
 1214 303 1214 303 1170.5 224.5 c 128,-1,19
 1127 146 1127 146 1049.5 91.5 c 0,20,21
 890.945 -20 890.945 -20 638 -20 c 0,22,23
 412.872 -20 412.872 -20 271.5 77 c 0,24,25
 126 176.832 126 176.832 126 350 c 256,26,27
 126 589.045 126 589.045 359 712.5 c 0,28,29
 426 748 426 748 497 770 c 1,0,1
822 914 m 1,30,31
 979 1017.03 979 1017.03 979 1180 c 0,32,33
 979 1254.32 979 1254.32 926.5 1299 c 0,34,35
 878.325 1340 878.325 1340 824.662 1340 c 128,-1,36
 771 1340 771 1340 740.5 1325 c 128,-1,37
 710 1310 710 1310 690 1283.5 c 0,38,39
 649 1229.18 649 1229.18 649 1140 c 0,40,41
 649 1059.73 649 1059.73 754 969.5 c 0,42,43
 786 942 786 942 822 914 c 1,30,31
623 665 m 1,44,45
 461 561.909 461 561.909 461 398 c 0,46,47
 461 313.639 461 313.639 529.5 253 c 0,48,49
 593.889 196 593.889 196 678.944 196 c 128,-1,50
 764 196 764 196 812.5 244.5 c 128,-1,51
 861 293 861 293 861 374 c 0,52,53
 861 474.953 861 474.953 712 594.5 c 1,54,-1
 623 665 l 1,44,45
EndSplineSet
EndChar

StartChar: nine
Encoding: 57 57 23
Width: 1293
Flags: HW
LayerCount: 2
Fore
SplineSet
744 160 m 1,0,1
 638.143 103 638.143 103 519.071 103 c 128,-1,2
 400 103 400 103 327 138.5 c 128,-1,3
 254 174 254 174 204 233.5 c 0,4,5
 101 356.07 101 356.07 101 533 c 0,6,7
 101 781.66 101 781.66 236 954 c 0,8,9
 394.233 1156 394.233 1156 696 1156 c 0,10,11
 943.859 1156 943.859 1156 1071 1003 c 0,12,13
 1186 864.61 1186 864.61 1186 627 c 0,14,15
 1186 382.071 1186 382.071 1070 148 c 0,16,17
 956.491 -81.0445 956.491 -81.0445 752.5 -248.5 c 0,18,19
 540.441 -422.578 540.441 -422.578 281 -485 c 1,20,-1
 202 -274 l 1,21,22
 463.62 -189.059 463.62 -189.059 661.5 37.5 c 0,23,24
 730.129 116.075 730.129 116.075 744 160 c 1,0,1
614 349 m 256,25,26
 716.24 349 716.24 349 792.5 395.5 c 0,27,28
 813 408 813 408 823 420 c 1,29,30
 858 529.667 858 529.667 858 608.833 c 128,-1,31
 858 688 858 688 842.5 745 c 128,-1,32
 827 802 827 802 800.5 840.5 c 0,33,34
 747.156 918 747.156 918 674.078 918 c 128,-1,35
 601 918 601 918 557 882 c 128,-1,36
 513 846 513 846 486 793 c 0,37,38
 436 694.852 436 694.852 436 566 c 0,39,40
 436 457.367 436 457.367 489.5 399.5 c 0,41,42
 536.189 349 536.189 349 614 349 c 256,25,26
EndSplineSet
EndChar

StartChar: less
Encoding: 60 60 26
Width: 1395
Flags: HW
LayerCount: 2
Fore
SplineSet
215 830 m 1,0,-1
 1244 1350 l 1,1,-1
 1207 1039 l 1,2,-1
 585 753 l 1,3,-1
 1133 463 l 1,4,-1
 1107 180 l 1,5,-1
 199 700 l 1,6,-1
 215 830 l 1,0,-1
EndSplineSet
EndChar

StartChar: equal
Encoding: 61 61 27
Width: 1085
Flags: HW
LayerCount: 2
Fore
SplineSet
198 1056 m 1,0,-1
 1038 1056 l 1,1,-1
 1001 808 l 1,2,-1
 161 808 l 1,3,-1
 198 1056 l 1,0,-1
143 563 m 1,4,-1
 983 563 l 1,5,-1
 946 315 l 1,6,-1
 106 315 l 1,7,-1
 143 563 l 1,4,-1
EndSplineSet
EndChar

StartChar: question
Encoding: 63 63 29
Width: 1060
Flags: HW
LayerCount: 2
Fore
SplineSet
348 464 m 1,0,1
 272.086 515.759 272.086 515.759 236 635.5 c 0,2,3
 225 672 225 672 225 712 c 128,-1,4
 225 752 225 752 235.5 789.5 c 128,-1,5
 246 827 246 827 273.5 862 c 0,6,7
 326.882 929.941 326.882 929.941 477 1005 c 1,8,9
 685.898 1098.64 685.898 1098.64 738 1183 c 1,10,11
 741 1190 741 1190 744.5 1204 c 2,12,-1
 752 1235 l 2,13,14
 761 1273.25 761 1273.25 761 1312.62 c 128,-1,15
 761 1352 761 1352 740 1389.5 c 128,-1,16
 719 1427 719 1427 679.5 1455.5 c 0,17,18
 592.877 1518 592.877 1518 457 1518 c 0,19,20
 338.714 1518 338.714 1518 250 1495 c 1,21,-1
 306 1725 l 1,22,23
 347.809 1760.38 347.809 1760.38 458.5 1774 c 0,24,25
 491 1778 491 1778 521 1778 c 0,26,27
 800.374 1778 800.374 1778 947.5 1654.5 c 0,28,29
 1082 1541.6 1082 1541.6 1082 1347 c 0,30,31
 1082 1112.34 1082 1112.34 895 976.5 c 0,32,33
 842 938 842 938 786.5 907 c 2,34,-1
 678 848.5 l 1,35,36
 560.336 787.448 560.336 787.448 516.5 729 c 0,37,38
 491 695 491 695 491 663.5 c 128,-1,39
 491 632 491 632 496.5 614.5 c 128,-1,40
 502 597 502 597 509 581 c 2,41,-1
 522.5 551.5 l 2,42,43
 529 538 529 538 532 529 c 1,44,-1
 365 463 l 1,45,-1
 348 464 l 1,0,1
368.5 13.5 m 128,-1,47
 327 56 327 56 327 110.5 c 128,-1,48
 327 165 327 165 341.5 204 c 128,-1,49
 356 243 356 243 383 272.5 c 0,50,51
 442.949 338 442.949 338 535 338 c 0,52,53
 658.537 338 658.537 338 687.5 246 c 0,54,55
 696 219 696 219 696 179.5 c 128,-1,56
 696 140 696 140 681 99.5 c 128,-1,57
 666 59 666 59 638 30.5 c 0,58,59
 579.544 -29 579.544 -29 494.772 -29 c 128,-1,46
 410 -29 410 -29 368.5 13.5 c 128,-1,47
EndSplineSet
EndChar

StartChar: at
Encoding: 64 64 30
Width: 2028
Flags: HW
LayerCount: 2
Fore
SplineSet
1306 -153 m 1,0,-1
 1365 -324 l 1,1,2
 1255.9 -405.047 1255.9 -405.047 1064.5 -431.5 c 0,3,4
 1003 -440 1003 -440 939 -440 c 0,5,6
 566.861 -440 566.861 -440 338.5 -227 c 0,7,8
 102 -6.40807 102 -6.40807 102 374 c 0,9,10
 102 725.552 102 725.552 254.5 999 c 0,11,12
 399.767 1259.48 399.767 1259.48 657 1402.5 c 0,13,14
 913.295 1545 913.295 1545 1226 1545 c 0,15,16
 1564.73 1545 1564.73 1545 1766.5 1372.5 c 0,17,18
 1967 1201.09 1967 1201.09 1967 909 c 0,19,20
 1967 639.688 1967 639.688 1865.5 422.5 c 0,21,22
 1775.15 229.164 1775.15 229.164 1622 117 c 0,23,24
 1477.27 11 1477.27 11 1328 11 c 0,25,26
 1268 11 1268 11 1238 54.5 c 128,-1,27
 1208 98 1208 98 1208 165 c 0,28,29
 1208 235 1208 235 1213 292 c 2,30,-1
 1220 371 l 1,31,32
 1110.12 112.468 1110.12 112.468 959 34 c 0,33,34
 907 7 907 7 854 7 c 128,-1,35
 801 7 801 7 746 33.5 c 0,36,37
 625.388 91.6129 625.388 91.6129 570.5 250.5 c 0,38,39
 543.869 327.59 543.869 327.59 543.869 429.565 c 0,40,41
 543.869 696.675 543.869 696.675 692.5 898.5 c 0,42,43
 790.622 1031.74 790.622 1031.74 943.5 1085 c 0,44,45
 1021 1112 1021 1112 1078 1112 c 128,-1,46
 1135 1112 1135 1112 1164 1109 c 128,-1,47
 1193 1106 1193 1106 1223.5 1099.5 c 0,48,49
 1298.18 1083.58 1298.18 1083.58 1334 1058 c 1,50,-1
 1529 1088 l 1,51,52
 1489.84 939.207 1489.84 939.207 1450.5 510 c 1,53,-1
 1440 400 l 2,54,55
 1433.33 335 1433.33 335 1429.17 310 c 0,56,57
 1423 273 1423 273 1423 248 c 128,-1,58
 1423 223 1423 223 1436 223 c 0,59,60
 1544.71 223 1544.71 223 1629.5 427.5 c 0,61,62
 1712 626.471 1712 626.471 1712 860 c 0,63,64
 1712 1348 1712 1348 1175 1348 c 0,65,66
 928.738 1348 928.738 1348 732 1209 c 0,67,68
 549.93 1080.36 549.93 1080.36 447 864 c 0,69,70
 346 651.694 346 651.694 346 418 c 0,71,72
 346 -15.5074 346 -15.5074 659 -160.5 c 0,73,74
 789.603 -221 789.603 -221 976.711 -221 c 128,-1,75
 1163.82 -221 1163.82 -221 1306 -153 c 1,0,-1
1198 840 m 1,76,77
 1158.58 883 1158.58 883 1086.29 883 c 128,-1,78
 1014 883 1014 883 970.5 843 c 128,-1,79
 927 803 927 803 898 743 c 0,80,81
 840 623 840 623 840 484 c 0,82,83
 840 346.061 840 346.061 882.5 310 c 0,84,85
 899 296 899 296 924 296 c 128,-1,86
 949 296 949 296 977 325 c 128,-1,87
 1005 354 1005 354 1033.5 400.5 c 128,-1,88
 1062 447 1062 447 1089.5 506 c 128,-1,89
 1117 565 1117 565 1139 625.5 c 0,90,91
 1188.41 761.385 1188.41 761.385 1198 840 c 1,76,77
EndSplineSet
EndChar

StartChar: A
Encoding: 65 65 31
Width: 1345
Flags: HW
LayerCount: 2
Fore
SplineSet
617 1530 m 1,0,-1
 1067 1530 l 1,1,-1
 1294 0 l 1,2,-1
 939 -1 l 1,3,-1
 906 286 l 1,4,-1
 384 286 l 1,5,-1
 267 0 l 1,6,-1
 -123 -1 l 1,7,-1
 617 1530 l 1,0,-1
879 527 m 1,8,-1
 803 1202 l 1,9,-1
 797 1321 l 1,10,-1
 758 1202 l 1,11,-1
 482 527 l 1,12,-1
 879 527 l 1,8,-1
EndSplineSet
EndChar

StartChar: B
Encoding: 66 66 32
Width: 1352
Flags: HW
LayerCount: 2
Fore
SplineSet
532 -16 m 1,0,-1
 227 0 l 1,1,-1
 72 0 l 1,2,-1
 291 1530 l 1,3,-1
 478 1530 l 1,4,5
 550 1532 550 1532 629 1538.5 c 128,-1,6
 708 1545 708 1545 786 1545 c 0,7,8
 1294 1545 1294 1545 1294 1198 c 0,9,10
 1294 960.754 1294 960.754 1125 855.5 c 0,11,12
 1068 820 1068 820 992 804 c 1,13,14
 1128 776 1128 776 1200 693.5 c 128,-1,15
 1272 611 1272 611 1272 490 c 0,16,17
 1272 -16 1272 -16 532 -16 c 1,0,-1
556 907 m 1,18,19
 601 904 601 904 646 904 c 0,20,21
 784 904 784 904 856.5 964 c 128,-1,22
 929 1024 929 1024 929 1158 c 0,23,24
 929 1276.84 929 1276.84 807 1294.5 c 0,25,26
 769 1300 769 1300 728 1300 c 0,27,28
 645.5 1300 645.5 1300 611 1297 c 1,29,-1
 556 907 l 1,18,19
460 240 m 1,30,31
 502 233 502 233 577 233 c 128,-1,32
 652 233 652 233 709.5 242.5 c 128,-1,33
 767 252 767 252 808.5 278.5 c 0,34,35
 896 334.374 896 334.374 896 474 c 0,36,37
 896 584.864 896 584.864 832 628.5 c 0,38,39
 772.6 669 772.6 669 628 669 c 0,40,41
 555 669 555 669 521 665 c 1,42,-1
 460 240 l 1,30,31
EndSplineSet
EndChar

StartChar: C
Encoding: 67 67 33
Width: 1192
Flags: HW
LayerCount: 2
Fore
SplineSet
1145 1141 m 1,0,1
 1022.69 1247 1022.69 1247 858 1247 c 0,2,3
 584.217 1247 584.217 1247 485 921 c 0,4,5
 444 786.286 444 786.286 444 660.643 c 128,-1,6
 444 535 444 535 459 468.5 c 128,-1,7
 474 402 474 402 507 358 c 0,8,9
 572.25 271 572.25 271 719 271 c 0,10,11
 855 271 855 271 975 331 c 0,12,13
 1007 347 1007 347 1027 361 c 1,14,-1
 1073 112 l 1,15,16
 977.706 40.5294 977.706 40.5294 780.5 -0.5 c 0,17,18
 706 -16 706 -16 613.5 -16 c 128,-1,19
 521 -16 521 -16 440 9.5 c 128,-1,20
 359 35 359 35 299 79.5 c 128,-1,21
 239 124 239 124 197.5 185 c 128,-1,22
 156 246 156 246 130.5 317 c 0,23,24
 83 449.255 83 449.255 83 599.127 c 128,-1,25
 83 749 83 749 109.5 865.5 c 128,-1,26
 136 982 136 982 186.5 1084.5 c 128,-1,27
 237 1187 237 1187 308.5 1272 c 128,-1,28
 380 1357 380 1357 470.5 1418 c 0,29,30
 660.402 1546 660.402 1546 895 1546 c 0,31,32
 1061 1546 1061 1546 1194 1490 c 1,33,-1
 1247 1476 l 1,34,-1
 1145 1141 l 1,0,1
EndSplineSet
EndChar

StartChar: D
Encoding: 68 68 34
Width: 1423
Flags: HW
LayerCount: 2
Fore
SplineSet
447 1530 m 1,0,-1
 834 1546 l 1,1,2
 1415 1546 1415 1546 1415 932 c 0,3,4
 1415 535.471 1415 535.471 1207 272.5 c 0,5,6
 1063.2 90.693 1063.2 90.693 830.5 20 c 0,7,8
 712 -16 712 -16 569 -16 c 0,9,10
 523 -16 523 -16 448 -11 c 0,11,12
 283 3.12924e-07 283 3.12924e-07 216 0 c 2,13,-1
 72 0 l 1,14,-1
 291 1530 l 1,15,-1
 447 1530 l 1,0,-1
464 264 m 1,16,17
 527 243 527 243 628.5 243 c 128,-1,18
 730 243 730 243 811 298.5 c 128,-1,19
 892 354 892 354 945.5 448.5 c 0,20,21
 1051 634.85 1051 634.85 1051 937 c 0,22,23
 1051 1137.55 1051 1137.55 980.5 1215 c 0,24,25
 916.782 1285 916.782 1285 761 1285 c 0,26,27
 673 1285 673 1285 608 1272 c 1,28,-1
 464 264 l 1,16,17
EndSplineSet
EndChar

StartChar: E
Encoding: 69 69 35
Width: 1204
Flags: HW
LayerCount: 2
Fore
SplineSet
291 1530 m 1,0,-1
 1205 1530 l 1,1,-1
 1168 1255 l 1,2,-1
 606 1257 l 1,3,-1
 558 920 l 1,4,-1
 977 925 l 1,5,-1
 941 649 l 1,6,-1
 520 658 l 1,7,-1
 465 270 l 1,8,-1
 1098 280 l 1,9,-1
 1061 0 l 1,10,-1
 72 0 l 1,11,-1
 291 1530 l 1,0,-1
EndSplineSet
EndChar

StartChar: F
Encoding: 70 70 36
Width: 1080
Flags: HW
LayerCount: 2
Fore
SplineSet
291 1530 m 1,0,-1
 1148 1530 l 1,1,-1
 1106 1255 l 1,2,-1
 606 1259 l 1,3,-1
 553 887 l 1,4,-1
 981 893 l 1,5,-1
 945 602 l 1,6,-1
 513 609 l 1,7,-1
 426 0 l 1,8,-1
 72 0 l 1,9,-1
 291 1530 l 1,0,-1
EndSplineSet
EndChar

StartChar: G
Encoding: 71 71 37
Width: 1427
Flags: HW
LayerCount: 2
Fore
SplineSet
432.986 623.07 m 0,0,1
 432.986 249 432.986 249 730 249 c 0,2,3
 855.667 249 855.667 249 929 282 c 1,4,-1
 974 570 l 1,5,-1
 726 570 l 1,6,-1
 759 850 l 1,7,-1
 1335 850 l 1,8,-1
 1228 79 l 1,9,10
 1186.57 74.8571 1186.57 74.8571 1132.79 59.9286 c 2,11,-1
 1031 32 l 2,12,13
 853.769 -16 853.769 -16 708.385 -16 c 128,-1,14
 563 -16 563 -16 474 9.5 c 128,-1,15
 385 35 385 35 318 79 c 128,-1,16
 251 123 251 123 204.5 183 c 128,-1,17
 158 243 158 243 129 312 c 0,18,19
 74 442.862 74 442.862 74 629.931 c 128,-1,20
 74 817 74 817 137 990 c 128,-1,21
 200 1163 200 1163 310 1286.5 c 128,-1,22
 420 1410 420 1410 567.5 1478 c 128,-1,23
 715 1546 715 1546 884 1546 c 0,24,25
 1085 1546 1085 1546 1253 1490 c 1,26,-1
 1348 1457 l 1,27,-1
 1274 1135 l 1,28,29
 1174.19 1207.08 1174.19 1207.08 1010 1243 c 0,30,31
 946 1257 946 1257 869.5 1257 c 128,-1,32
 793 1257 793 1257 727.5 1230 c 128,-1,33
 662 1203 662 1203 613 1157 c 128,-1,34
 564 1111 564 1111 530 1049 c 128,-1,35
 496 987 496 987 474.5 917 c 0,36,37
 432.986 781.84 432.986 781.84 432.986 623.07 c 0,0,1
EndSplineSet
EndChar

StartChar: H
Encoding: 72 72 38
Width: 1500
Flags: HW
LayerCount: 2
Fore
SplineSet
279 1530 m 1,0,-1
 633 1530 l 1,1,-1
 538 866 l 1,2,-1
 1020 866 l 1,3,-1
 1115 1530 l 1,4,-1
 1473 1530 l 1,5,-1
 1254 0 l 1,6,-1
 896 0 l 1,7,-1
 985 622 l 1,8,-1
 503 622 l 1,9,-1
 414 0 l 1,10,-1
 60 0 l 1,11,-1
 279 1530 l 1,0,-1
EndSplineSet
EndChar

StartChar: I
Encoding: 73 73 39
Width: 706
Flags: HW
LayerCount: 2
Fore
SplineSet
317 1530 m 1,0,-1
 671 1530 l 1,1,-1
 452 0 l 1,2,-1
 98 0 l 1,3,-1
 317 1530 l 1,0,-1
EndSplineSet
EndChar

StartChar: J
Encoding: 74 74 40
Width: 697
Flags: HW
LayerCount: 2
Fore
SplineSet
108.5 110.5 m 0,0,1
 123 184 123 184 142 299 c 128,-1,2
 161 414 161 414 179 538 c 128,-1,3
 197 662 197 662 214 792 c 2,4,-1
 311 1530 l 1,5,-1
 667 1530 l 1,6,-1
 495.5 344.5 l 2,7,8
 461.245 113.554 461.245 113.554 450 75 c 1,9,10
 391.122 -160.513 391.122 -160.513 214 -269 c 0,11,12
 70.3265 -357 70.3265 -357 -136 -357 c 1,13,-1
 -180 -239 l 1,14,15
 -59.9979 -209.461 -59.9979 -209.461 17.5 -109.5 c 0,16,17
 81.3446 -27.1497 81.3446 -27.1497 108.5 110.5 c 0,0,1
EndSplineSet
EndChar

StartChar: K
Encoding: 75 75 41
Width: 1337
Flags: HW
LayerCount: 2
Fore
SplineSet
291 1530 m 1,0,-1
 645 1530 l 1,1,-1
 550 868 l 1,2,-1
 1076 1530 l 1,3,-1
 1480 1530 l 1,4,-1
 873 857 l 1,5,6
 1186.64 239.327 1186.64 239.327 1232.32 155.664 c 128,-1,7
 1278 72 1278 72 1324 -1 c 1,8,-1
 907 1 l 1,9,10
 901 10 901 10 887.5 38 c 2,11,-1
 767 306 l 1,12,-1
 641 598 l 1,13,-1
 487 427 l 1,14,-1
 426 0 l 1,15,-1
 72 0 l 1,16,-1
 291 1530 l 1,0,-1
EndSplineSet
EndChar

StartChar: L
Encoding: 76 76 42
Width: 1068
Flags: HW
LayerCount: 2
Fore
SplineSet
291 1530 m 1,0,-1
 645 1530 l 1,1,-1
 465 277 l 1,2,-1
 962 288 l 1,3,-1
 920 0 l 1,4,-1
 72 0 l 1,5,-1
 291 1530 l 1,0,-1
EndSplineSet
EndChar

StartChar: M
Encoding: 77 77 43
Width: 1988
Flags: HW
LayerCount: 2
Fore
SplineSet
388 1530 m 1,0,-1
 903 1530 l 1,1,-1
 971 477 l 1,2,-1
 977 252 l 1,3,-1
 1025 477 l 1,4,-1
 1380 1530 l 1,5,-1
 1897 1530 l 1,6,-1
 1873 0 l 1,7,-1
 1520 0 l 1,8,-1
 1609 1139 l 1,9,-1
 1636 1373 l 1,10,-1
 1562 1139 l 1,11,-1
 1125 -3 l 1,12,-1
 736 -18 l 1,13,-1
 616 1139 l 1,14,-1
 614 1373 l 1,15,-1
 566 1139 l 1,16,-1
 318 0 l 1,17,-1
 -31 0 l 1,18,-1
 388 1530 l 1,0,-1
EndSplineSet
EndChar

StartChar: N
Encoding: 78 78 44
Width: 1500
Flags: HW
LayerCount: 2
Fore
SplineSet
291 1530 m 1,0,-1
 598 1530 l 1,1,-1
 954 738 l 1,2,-1
 1033 478 l 1,3,-1
 1046 738 l 1,4,-1
 1143 1530 l 1,5,-1
 1485 1530 l 1,6,-1
 1266 0 l 1,7,-1
 969 0 l 1,8,-1
 621 833 l 1,9,-1
 522 1108 l 1,10,-1
 525 833 l 1,11,-1
 410 0 l 1,12,-1
 72 0 l 1,13,-1
 291 1530 l 1,0,-1
EndSplineSet
EndChar

StartChar: O
Encoding: 79 79 45
Width: 1394
Flags: HW
LayerCount: 2
Fore
SplineSet
100.5 348 m 128,-1,1
 66 456 66 456 66 582 c 128,-1,2
 66 708 66 708 89 830.5 c 128,-1,3
 112 953 112 953 156.5 1061 c 128,-1,4
 201 1169 201 1169 266.5 1258 c 128,-1,5
 332 1347 332 1347 415.5 1411 c 0,6,7
 591.633 1546 591.633 1546 821 1546 c 0,8,9
 1080.39 1546 1080.39 1546 1228 1368 c 0,10,11
 1364 1204 1364 1204 1364 946 c 0,12,13
 1364 541.86 1364 541.86 1165.5 269.5 c 0,14,15
 1032.92 87.5856 1032.92 87.5856 835 19 c 0,16,17
 734 -16 734 -16 607 -16 c 128,-1,18
 480 -16 480 -16 376.5 31 c 128,-1,19
 273 78 273 78 204 159 c 128,-1,0
 135 240 135 240 100.5 348 c 128,-1,1
553 267 m 128,-1,21
 593 250 593 250 647.5 250 c 128,-1,22
 702 250 702 250 750 279 c 128,-1,23
 798 308 798 308 837 357.5 c 128,-1,24
 876 407 876 407 906.5 474 c 128,-1,25
 937 541 937 541 958 617.5 c 0,26,27
 1000 770.5 1000 770.5 1000 902.25 c 128,-1,28
 1000 1034 1000 1034 986 1100.5 c 128,-1,29
 972 1167 972 1167 944.5 1207 c 0,30,31
 894.312 1280 894.312 1280 783 1280 c 0,32,33
 678.148 1280 678.148 1280 592.5 1170.5 c 0,34,35
 475.513 1020.93 475.513 1020.93 440.5 752.5 c 0,36,37
 430 672 430 672 430 584.5 c 128,-1,38
 430 497 430 497 444 430.5 c 128,-1,39
 458 364 458 364 485.5 324 c 128,-1,20
 513 284 513 284 553 267 c 128,-1,21
EndSplineSet
EndChar

StartChar: P
Encoding: 80 80 46
Width: 1298
Flags: HW
LayerCount: 2
Fore
SplineSet
557.5 488 m 1,0,-1
 496 489 l 1,1,-1
 426 0 l 1,2,-1
 72 0 l 1,3,-1
 290 1530 l 1,4,-1
 446 1530 l 2,5,6
 505 1530 505 1530 590 1538 c 128,-1,7
 675 1546 675 1546 775 1546 c 0,8,9
 1033 1546 1033 1546 1172.5 1436.5 c 128,-1,10
 1312 1327 1312 1327 1313 1107 c 1,11,12
 1313 838.509 1313 838.509 1144.5 669 c 0,13,14
 963.583 487 963.583 487 657 487 c 1,15,-1
 557.5 488 l 1,0,-1
534 764 m 1,16,17
 577.2 752 577.2 752 663 752 c 0,18,19
 945.065 752 945.065 752 964 1076 c 0,20,21
 964.643 1087.57 964.643 1087.57 964.643 1113.23 c 128,-1,22
 964.643 1138.89 964.643 1138.89 954.821 1175.95 c 128,-1,23
 945 1213 945 1213 915.5 1241.5 c 0,24,25
 854.947 1300 854.947 1300 711 1300 c 0,26,27
 666 1300 666 1300 611 1290 c 1,28,-1
 534 764 l 1,16,17
EndSplineSet
EndChar

StartChar: Q
Encoding: 81 81 47
Width: 1395
Flags: HW
LayerCount: 2
Fore
SplineSet
1257 -115 m 1,0,-1
 1257 -318 l 1,1,2
 1189.41 -382.517 1189.41 -382.517 977.5 -412 c 0,3,4
 920 -420 920 -420 867 -420 c 128,-1,5
 814 -420 814 -420 756 -412 c 128,-1,6
 698 -404 698 -404 647.5 -385.5 c 0,7,8
 470.964 -320.828 470.964 -320.828 470.964 -146.01 c 0,9,10
 470.964 -85.0357 470.964 -85.0357 497 -5 c 1,11,12
 289.138 31.5684 289.138 31.5684 173.5 198 c 0,13,14
 66 352.72 66 352.72 66 578 c 0,15,16
 66 985.565 66 985.565 266.5 1258 c 0,17,18
 401.135 1440.94 401.135 1440.94 601 1510.5 c 0,19,20
 703 1546 703 1546 830 1546 c 128,-1,21
 957 1546 957 1546 1058.5 1498 c 128,-1,22
 1160 1450 1160 1450 1228 1368 c 0,23,24
 1364 1204 1364 1204 1364 946 c 0,25,26
 1364 572.425 1364 572.425 1192.5 308.5 c 0,27,28
 1109 180 1109 180 988.5 96 c 128,-1,29
 868 12 868 12 715 -9 c 1,30,31
 713.684 -20.0526 713.684 -20.0526 713.684 -38.9474 c 128,-1,32
 713.684 -57.8421 713.684 -57.8421 725.842 -80.4211 c 128,-1,33
 738 -103 738 -103 769 -117.5 c 0,34,35
 819.241 -141 819.241 -141 992.187 -141 c 128,-1,36
 1165.13 -141 1165.13 -141 1257 -115 c 1,0,-1
553 267 m 128,-1,38
 593 250 593 250 647.5 250 c 128,-1,39
 702 250 702 250 750 279 c 128,-1,40
 798 308 798 308 837 357.5 c 128,-1,41
 876 407 876 407 906.5 474 c 128,-1,42
 937 541 937 541 958 617.5 c 0,43,44
 1000 770.5 1000 770.5 1000 902.25 c 128,-1,45
 1000 1034 1000 1034 986 1100.5 c 128,-1,46
 972 1167 972 1167 944.5 1207 c 0,47,48
 894.312 1280 894.312 1280 783 1280 c 0,49,50
 678.148 1280 678.148 1280 592.5 1170.5 c 0,51,52
 475.513 1020.93 475.513 1020.93 440.5 752.5 c 0,53,54
 430 672 430 672 430 584.5 c 128,-1,55
 430 497 430 497 444 430.5 c 128,-1,56
 458 364 458 364 485.5 324 c 128,-1,37
 513 284 513 284 553 267 c 128,-1,38
EndSplineSet
EndChar

StartChar: R
Encoding: 82 82 48
Width: 1344
Flags: HW
LayerCount: 2
Fore
SplineSet
290 1530 m 1,0,-1
 492 1530 l 2,1,2
 549.333 1530 549.333 1530 606.167 1535.5 c 0,3,4
 714.667 1546 714.667 1546 822.833 1546 c 128,-1,5
 931 1546 931 1546 1035 1519.5 c 128,-1,6
 1139 1493 1139 1493 1204.5 1443 c 0,7,8
 1329 1347.96 1329 1347.96 1329 1153 c 0,9,10
 1329 864.112 1329 864.112 1153.5 719.5 c 0,11,12
 1091 668 1091 668 1002 641 c 1,13,14
 1088.99 568.511 1088.99 568.511 1143 367 c 1,15,-1
 1195 207 l 2,16,17
 1245.12 51.6352 1245.12 51.6352 1282 0 c 1,18,-1
 890 0 l 1,19,20
 875.38 21.1171 875.38 21.1171 860.69 77.5585 c 2,21,-1
 803 306 l 1,22,23
 757.673 492.973 757.673 492.973 696.5 556 c 0,24,25
 680 573 680 573 668 573 c 2,26,-1
 511 573 l 1,27,-1
 426 0 l 1,28,-1
 72 0 l 1,29,-1
 290 1530 l 1,0,-1
548 848 m 1,30,31
 568 847 568 847 595 846.5 c 2,32,-1
 650 845.5 l 2,33,34
 678 845 678 845 702.5 845 c 2,35,-1
 743 845 l 2,36,37
 872.966 845 872.966 845 936.5 945.5 c 0,38,39
 984.087 1020.77 984.087 1020.77 984.087 1128.13 c 0,40,41
 984.087 1268.42 984.087 1268.42 846 1292.5 c 0,42,43
 803 1300 803 1300 766 1300 c 128,-1,44
 729 1300 729 1300 709.5 1299 c 128,-1,45
 690 1298 690 1298 671.5 1296.5 c 0,46,47
 625.024 1292.73 625.024 1292.73 610 1290 c 1,48,-1
 548 848 l 1,30,31
EndSplineSet
EndChar

StartChar: S
Encoding: 83 83 49
Width: 1058
Flags: HW
LayerCount: 2
Fore
SplineSet
115 368 m 1,0,1
 200.718 303.712 200.718 303.712 328.5 276 c 0,2,3
 370 267 370 267 417.5 267 c 128,-1,4
 465 267 465 267 503.5 279 c 128,-1,5
 542 291 542 291 566 311.5 c 0,6,7
 609.778 348.894 609.778 348.894 612 420 c 0,8,9
 613.936 483.899 613.936 483.899 582.468 523.95 c 0,10,11
 536.249 582.774 536.249 582.774 457.125 642.387 c 128,-1,12
 378 702 378 702 332.5 746 c 128,-1,13
 287 790 287 790 250.5 843 c 0,14,15
 168 962.794 168 962.794 168 1078.4 c 128,-1,16
 168 1194 168 1194 206 1278.5 c 128,-1,17
 244 1363 244 1363 314 1422.5 c 0,18,19
 459.294 1546 459.294 1546 702 1546 c 0,20,21
 882.067 1546 882.067 1546 1009 1490 c 0,22,23
 1043 1475 1043 1475 1063 1461 c 1,24,-1
 951 1180 l 1,25,26
 893.778 1237.22 893.778 1237.22 768.5 1260 c 0,27,28
 730 1267 730 1267 687 1267 c 128,-1,29
 644 1267 644 1267 609 1255.5 c 128,-1,30
 574 1244 574 1244 551 1225 c 0,31,32
 505.935 1187.77 505.935 1187.77 505.935 1139.87 c 128,-1,33
 505.935 1091.97 505.935 1091.97 519.968 1061.48 c 128,-1,34
 534 1031 534 1031 559.5 1001 c 128,-1,35
 585 971 585 971 620.5 941.5 c 2,36,-1
 697 879 l 1,37,38
 821.985 779.58 821.985 779.58 871.492 716.79 c 0,39,40
 974 586.781 974 586.781 974 463.89 c 128,-1,41
 974 341 974 341 931.5 252.5 c 128,-1,42
 889 164 889 164 812.5 104 c 0,43,44
 659.5 -16 659.5 -16 391 -16 c 0,45,46
 220.727 -16 220.727 -16 54 49.5 c 0,47,48
 12 66 12 66 -5 80 c 1,49,-1
 115 368 l 1,0,1
EndSplineSet
EndChar

StartChar: T
Encoding: 84 84 50
Width: 1153
Flags: HW
LayerCount: 2
Fore
SplineSet
495 1266 m 1,0,-1
 136 1255 l 1,1,-1
 180 1530 l 1,2,-1
 1247 1530 l 1,3,-1
 1207 1255 l 1,4,-1
 855 1266 l 1,5,-1
 674 0 l 1,6,-1
 314 0 l 1,7,-1
 495 1266 l 1,0,-1
EndSplineSet
EndChar

StartChar: U
Encoding: 85 85 51
Width: 1440
Flags: HW
LayerCount: 2
Fore
SplineSet
115 432 m 0,0,1
 114.778 440.667 114.778 440.667 114.778 460.333 c 0,2,3
 114.778 512 114.778 512 128 597 c 1,4,-1
 261 1530 l 1,5,-1
 614 1530 l 1,6,-1
 488 642 l 2,7,8
 477 566.375 477 566.375 477 480.188 c 128,-1,9
 477 394 477 394 488 356.5 c 128,-1,10
 499 319 499 319 522.5 296.5 c 0,11,12
 565.844 255 565.844 255 650.922 255 c 128,-1,13
 736 255 736 255 782 272.5 c 128,-1,14
 828 290 828 290 862 333.5 c 0,15,16
 926.644 416.207 926.644 416.207 960 634 c 1,17,-1
 1087 1530 l 1,18,-1
 1439 1530 l 1,19,-1
 1309 597 l 2,20,21
 1263.47 268.372 1263.47 268.372 1101 124.5 c 0,22,23
 942.34 -16 942.34 -16 621 -16 c 0,24,25
 240.091 -16 240.091 -16 145 245.5 c 0,26,27
 115 328 115 328 115 432 c 0,0,1
EndSplineSet
EndChar

StartChar: V
Encoding: 86 86 52
Width: 1233
Flags: HW
LayerCount: 2
Fore
SplineSet
103 1530 m 1,0,-1
 457 1530 l 1,1,-1
 575 550 l 1,2,-1
 592 288 l 1,3,-1
 669 550 l 1,4,-1
 1025 1530 l 1,5,-1
 1400 1530 l 1,6,-1
 740 0 l 1,7,-1
 328 0 l 1,8,-1
 103 1530 l 1,0,-1
EndSplineSet
EndChar

StartChar: W
Encoding: 87 87 53
Width: 1803
Flags: HW
LayerCount: 2
Fore
SplineSet
97 1530 m 1,0,-1
 454 1530 l 1,1,-1
 513 550 l 1,2,-1
 533 328 l 1,3,-1
 601 550 l 1,4,-1
 858 1191 l 1,5,-1
 822 1530 l 1,6,-1
 1167 1530 l 1,7,-1
 1227 550 l 1,8,-1
 1250 328 l 1,9,-1
 1303 550 l 1,10,-1
 1637 1530 l 1,11,-1
 2001 1530 l 1,12,-1
 1406 0 l 1,13,-1
 993 0 l 1,14,-1
 918 713 l 1,15,-1
 657 0 l 1,16,-1
 282 0 l 1,17,-1
 97 1530 l 1,0,-1
EndSplineSet
EndChar

StartChar: X
Encoding: 88 88 54
Width: 1244
Flags: HW
LayerCount: 2
Fore
SplineSet
464 808 m 1,0,-1
 143 1530 l 1,1,-1
 523 1530 l 1,2,-1
 700 1037 l 1,3,-1
 1017 1530 l 1,4,-1
 1403 1530 l 1,5,-1
 859 735 l 1,6,-1
 1206 0 l 1,7,-1
 820 -1 l 1,8,-1
 619 530 l 1,9,-1
 297 0 l 1,10,-1
 -99 0 l 1,11,-1
 464 808 l 1,0,-1
EndSplineSet
EndChar

StartChar: Y
Encoding: 89 89 55
Width: 1164
Flags: HW
LayerCount: 2
Fore
SplineSet
402 590 m 1,0,-1
 83 1530 l 1,1,-1
 455 1530 l 1,2,-1
 596 1005 l 1,3,-1
 621 871 l 1,4,-1
 679 1005 l 1,5,-1
 963 1530 l 1,6,-1
 1356 1530 l 1,7,-1
 756 590 l 1,8,-1
 671 0 l 1,9,-1
 317 0 l 1,10,-1
 402 590 l 1,0,-1
EndSplineSet
EndChar

StartChar: Z
Encoding: 90 90 56
Width: 1158
Flags: HW
LayerCount: 2
Fore
SplineSet
-68 89 m 1,0,-1
 706 1188 l 1,1,-1
 799 1255 l 1,2,-1
 212 1245 l 1,3,-1
 258 1530 l 1,4,-1
 1234 1530 l 1,5,-1
 1257 1444 l 1,6,-1
 515 356 l 1,7,-1
 431 282 l 1,8,-1
 1049 292 l 1,9,-1
 1002 0 l 1,10,-1
 -41 0 l 1,11,-1
 -68 89 l 1,0,-1
EndSplineSet
EndChar

StartChar: bracketleft
Encoding: 91 91 57
Width: 854
Flags: HW
LayerCount: 2
Fore
SplineSet
346 1513 m 2,0,1
 376.574 1733.13 376.574 1733.13 499.5 1784 c 0,2,3
 543 1802 543 1802 598.5 1802 c 0,4,5
 712.667 1802 712.667 1802 932 1755 c 1,6,-1
 906 1580 l 1,7,-1
 651 1580 l 1,8,-1
 437 -30 l 1,9,-1
 692 -30 l 1,10,-1
 670 -203 l 1,11,-1
 600.5 -223 l 2,12,13
 472.7 -259 472.7 -259 327 -259 c 0,14,15
 232 -259 232 -259 181 -209.5 c 128,-1,16
 130 -160 130 -160 130 -77 c 0,17,18
 130 -15 130 -15 138 33 c 1,19,-1
 346 1513 l 2,0,1
EndSplineSet
EndChar

StartChar: backslash
Encoding: 92 92 58
Width: 854
Flags: HW
LayerCount: 2
Fore
SplineSet
6 1597 m 1,0,-1
 274 1597 l 1,1,-1
 851 -362 l 1,2,-1
 582 -362 l 1,3,-1
 6 1597 l 1,0,-1
EndSplineSet
EndChar

StartChar: asciicircum
Encoding: 94 94 60
Width: 1364
Flags: HW
LayerCount: 2
Fore
SplineSet
657 1531 m 1,0,-1
 924 1531 l 1,1,-1
 1191 510 l 1,2,-1
 920 510 l 1,3,-1
 759 1160 l 1,4,-1
 401 510 l 1,5,-1
 126 510 l 1,6,-1
 657 1531 l 1,0,-1
EndSplineSet
EndChar

StartChar: underscore
Encoding: 95 95 61
Width: 1335
Flags: HW
LayerCount: 2
Fore
SplineSet
1287 -187 m 1,0,-1
 1267 -388 l 1,1,-1
 -111 -388 l 1,2,-1
 -91 -187 l 1,3,-1
 1287 -187 l 1,0,-1
EndSplineSet
EndChar

StartChar: grave
Encoding: 96 96 62
Width: 546
Flags: HW
LayerCount: 2
Fore
SplineSet
408 1226 m 1,0,1
 326.551 1255.86 326.551 1255.86 166.5 1392 c 0,2,3
 18.8782 1517.56 18.8782 1517.56 -11 1574 c 1,4,-1
 198 1774 l 1,5,-1
 532 1325 l 1,6,-1
 408 1226 l 1,0,1
EndSplineSet
EndChar

StartChar: a
Encoding: 97 97 63
Width: 1268
Flags: HW
LayerCount: 2
Fore
SplineSet
773.812 1156 m 0,0,1
 891.625 1156 891.625 1156 1021 1111 c 1,2,-1
 1205 1156 l 1,3,-1
 1044 0 l 1,4,-1
 724 0 l 1,5,-1
 735 248 l 1,6,7
 654.063 70.7089 654.063 70.7089 519.5 8 c 0,8,9
 468 -16 468 -16 389.5 -16 c 128,-1,10
 311 -16 311 -16 247 18.5 c 128,-1,11
 183 53 183 53 143.5 111.5 c 0,12,13
 70 220.354 70 220.354 70 412 c 0,14,15
 70 712.195 70 712.195 246 922.5 c 0,16,17
 441.411 1156 441.411 1156 773.812 1156 c 0,0,1
442 433 m 0,18,19
 442 224 442 224 531 224 c 0,20,21
 598.436 224 598.436 224 676 361.5 c 0,22,23
 739.209 473.552 739.209 473.552 776 606 c 1,24,-1
 823 941 l 1,25,26
 794.667 946 794.667 946 745.833 946 c 128,-1,27
 697 946 697 946 654 924.5 c 128,-1,28
 611 903 611 903 577 866.5 c 128,-1,29
 543 830 543 830 517.5 780 c 128,-1,30
 492 730 492 730 475.5 673 c 0,31,32
 442 557.273 442 557.273 442 433 c 0,18,19
EndSplineSet
Substitution2: "Single Substitution lookup 16 subtable" ordfeminine
Substitution2: "'aalt' Access All Alternates in Latin lookup 0 subtable" ordfeminine
EndChar

StartChar: b
Encoding: 98 98 64
Width: 1290
Flags: HW
LayerCount: 2
Fore
SplineSet
513.5 -16 m 0,0,1
 393 -16 393 -16 261 32 c 1,2,-1
 261 34 l 1,3,-1
 76 0 l 1,4,-1
 301 1634 l 1,5,-1
 644 1634 l 1,6,-1
 559 976 l 1,7,-1
 538 855 l 1,8,9
 611.321 1050.52 611.321 1050.52 759 1127 c 0,10,11
 815 1156 815 1156 896.5 1156 c 128,-1,12
 978 1156 978 1156 1042.5 1121 c 128,-1,13
 1107 1086 1107 1086 1146.5 1026.5 c 0,14,15
 1220 915.785 1220 915.785 1220 724 c 0,16,17
 1220 425.805 1220 425.805 1044 215.5 c 0,18,19
 850.262 -16 850.262 -16 513.5 -16 c 0,0,1
846 703 m 0,20,21
 846 912 846 912 758 912 c 0,22,23
 660.609 912 660.609 912 559 666 c 0,24,25
 523.861 580.927 523.861 580.927 504 499 c 1,26,-1
 505 555 l 1,27,-1
 460 199 l 1,28,29
 491.667 194 491.667 194 541.833 194 c 128,-1,30
 592 194 592 194 635 215 c 128,-1,31
 678 236 678 236 712 272.5 c 128,-1,32
 746 309 746 309 771 358 c 128,-1,33
 796 407 796 407 812.5 463.5 c 0,34,35
 846 578.212 846 578.212 846 703 c 0,20,21
EndSplineSet
EndChar

StartChar: c
Encoding: 99 99 65
Width: 956
Flags: HW
LayerCount: 2
Fore
SplineSet
95 279 m 128,-1,1
 74 361 74 361 74 480 c 128,-1,2
 74 599 74 599 120.5 730.5 c 128,-1,3
 167 862 167 862 250 956.5 c 0,4,5
 425.222 1156 425.222 1156 695 1156 c 0,6,7
 854.1 1156 854.1 1156 953 1113 c 1,8,-1
 867 771 l 1,9,10
 809 829 809 829 753 853.5 c 128,-1,11
 697 878 697 878 660 878 c 128,-1,12
 623 878 623 878 581 855.5 c 128,-1,13
 539 833 539 833 507.5 786 c 0,14,15
 438 682.302 438 682.302 438 498 c 0,16,17
 438 363.152 438 363.152 461.5 317.576 c 128,-1,18
 485 272 485 272 513.5 256.5 c 128,-1,19
 542 241 542 241 578.5 241 c 128,-1,20
 615 241 615 241 650 252 c 128,-1,21
 685 263 685 263 717 280.5 c 0,22,23
 784.892 317.628 784.892 317.628 819 356 c 1,24,-1
 908 185 l 1,25,26
 822.521 54.747 822.521 54.747 642.5 3.5 c 0,27,28
 574 -16 574 -16 473 -16 c 128,-1,29
 372 -16 372 -16 293 25 c 128,-1,30
 214 66 214 66 165 131.5 c 128,-1,0
 116 197 116 197 95 279 c 128,-1,1
EndSplineSet
EndChar

StartChar: d
Encoding: 100 100 66
Width: 1274
Flags: HW
LayerCount: 2
Fore
SplineSet
528 12 m 0,0,1
 473 -16 473 -16 392 -16 c 128,-1,2
 311 -16 311 -16 247 18.5 c 128,-1,3
 183 53 183 53 143.5 111.5 c 0,4,5
 70 220.354 70 220.354 70 412 c 0,6,7
 70 712.195 70 712.195 246 922.5 c 0,8,9
 441.411 1156 441.411 1156 773 1156 c 0,10,11
 812 1156 812 1156 853 1150 c 1,12,-1
 920 1634 l 1,13,-1
 1264 1634 l 1,14,-1
 1053 0 l 1,15,-1
 734 0 l 1,16,-1
 748 279 l 1,17,18
 671.162 84.8823 671.162 84.8823 528 12 c 0,0,1
531 228 m 0,19,20
 644 228 644 228 755 542.5 c 0,21,22
 770 585 770 585 780 620 c 1,23,-1
 824 937 l 1,24,25
 791 946 791 946 744 946 c 128,-1,26
 697 946 697 946 654 924.5 c 128,-1,27
 611 903 611 903 577 866.5 c 128,-1,28
 543 830 543 830 517.5 780 c 128,-1,29
 492 730 492 730 475.5 673 c 0,30,31
 442 557.273 442 557.273 442 433 c 0,32,33
 442 228 442 228 531 228 c 0,19,20
EndSplineSet
EndChar

StartChar: e
Encoding: 101 101 67
Width: 1112
Flags: HW
LayerCount: 2
Fore
SplineSet
73 475.5 m 0,0,1
 73 598 73 598 123 729 c 128,-1,2
 173 860 173 860 260 955 c 0,3,4
 444.074 1156 444.074 1156 716 1156 c 0,5,6
 973.143 1156 973.143 1156 1036 1002 c 0,7,8
 1056 953 1056 953 1056 867 c 128,-1,9
 1056 781 1056 781 1008 699 c 128,-1,10
 960 617 960 617 877.5 557.5 c 0,11,12
 733.311 453.509 733.311 453.509 449 383 c 1,13,14
 449 304.375 449 304.375 471 276.188 c 0,15,16
 510.171 226 510.171 226 594 226 c 0,17,18
 681.735 226 681.735 226 785 283.5 c 0,19,20
 875.79 334.054 875.79 334.054 917 389 c 1,21,-1
 1009 218 l 1,22,23
 952.677 136.075 952.677 136.075 832.5 69 c 0,24,25
 680.208 -16 680.208 -16 506 -16 c 0,26,27
 288.344 -16 288.344 -16 173.5 124 c 0,28,29
 73 246.514 73 246.514 73 475.5 c 0,0,1
444 561 m 1,30,31
 539.632 567.52 539.632 567.52 622 652 c 0,32,33
 712 744.308 712 744.308 712 859 c 0,34,35
 712 912 712 912 694.5 936 c 128,-1,36
 677 960 677 960 641 960 c 128,-1,37
 605 960 605 960 578.5 940 c 128,-1,38
 552 920 552 920 531 887.5 c 128,-1,39
 510 855 510 855 494 813 c 128,-1,40
 478 771 478 771 467 726.5 c 0,41,42
 446.341 642.924 446.341 642.924 444 561 c 1,30,31
EndSplineSet
EndChar

StartChar: f
Encoding: 102 102 68
Width: 765
Flags: HW
LayerCount: 2
Fore
SplineSet
237 924 m 1,0,-1
 115 924 l 1,1,-1
 156 1140 l 1,2,-1
 267 1140 l 1,3,-1
 286 1245 l 1,4,5
 312.322 1433.3 312.322 1433.3 443 1550.5 c 0,6,7
 576.248 1670 576.248 1670 776 1670 c 0,8,9
 892.294 1670 892.294 1670 955 1644 c 1,10,-1
 893 1406 l 1,11,12
 845 1454 845 1454 768 1454 c 256,13,14
 719.333 1454 719.333 1454 696.667 1432 c 0,15,16
 654.589 1391.16 654.589 1391.16 638 1299 c 2,17,-1
 610 1140 l 1,18,-1
 799 1140 l 1,19,-1
 772 924 l 1,20,-1
 585 924 l 1,21,-1
 471.5 96.5 l 2,22,23
 466 56 466 56 463 36 c 0,24,25
 460.6 20 460.6 20 458 0.5 c 1,26,-1
 458 0 l 1,27,-1
 110 0 l 1,28,-1
 237 924 l 1,0,-1
EndSplineSet
EndChar

StartChar: g
Encoding: 103 103 69
Width: 1269
Flags: HW
LayerCount: 2
Fore
SplineSet
773.312 1156 m 0,0,1
 890.625 1156 890.625 1156 1020 1111 c 1,2,-1
 1208 1156 l 1,3,-1
 1044 -29 l 1,4,5
 998.093 -375.067 998.093 -375.067 676.5 -477.5 c 0,6,7
 552.488 -517 552.488 -517 394 -517 c 0,8,9
 282.875 -517 282.875 -517 210.438 -498 c 128,-1,10
 138 -479 138 -479 123 -472 c 1,11,-1
 175 -217 l 1,12,13
 194.64 -236.64 194.64 -236.64 257.82 -260.82 c 0,14,15
 381.097 -308 381.097 -308 448.048 -308 c 128,-1,16
 515 -308 515 -308 552 -292.5 c 128,-1,17
 589 -277 589 -277 614 -249 c 0,18,19
 655.874 -202.101 655.874 -202.101 676 -97 c 1,20,-1
 739 256 l 1,21,22
 687.442 140.608 687.442 140.608 630.721 87.304 c 0,23,24
 520.795 -16 520.795 -16 415.897 -16 c 128,-1,25
 311 -16 311 -16 247 18.5 c 128,-1,26
 183 53 183 53 143.5 111.5 c 0,27,28
 70 220.354 70 220.354 70 412 c 0,29,30
 70 712.195 70 712.195 246 922.5 c 0,31,32
 441.411 1156 441.411 1156 773.312 1156 c 0,0,1
822 941 m 1,33,34
 793.667 946 793.667 946 745.333 946 c 128,-1,35
 697 946 697 946 654 924.5 c 128,-1,36
 611 903 611 903 577 866.5 c 128,-1,37
 543 830 543 830 517.5 780 c 128,-1,38
 492 730 492 730 475.5 673 c 0,39,40
 442 557.273 442 557.273 442 433 c 0,41,42
 442 228 442 228 531 228 c 0,43,44
 618.381 228 618.381 228 717 446 c 0,45,46
 753.992 527.773 753.992 527.773 776 607 c 1,47,-1
 822 941 l 1,33,34
EndSplineSet
EndChar

StartChar: h
Encoding: 104 104 70
Width: 1314
Flags: HW
LayerCount: 2
Fore
SplineSet
825.367 801.197 m 0,0,1
 825.367 887 825.367 887 744 887 c 0,2,3
 657.377 887 657.377 887 568.5 775.5 c 0,4,5
 541 741 541 741 519 698 c 1,6,-1
 425 0 l 1,7,-1
 78 0 l 1,8,-1
 298 1634 l 1,9,-1
 646 1634 l 1,10,-1
 571 1072 l 1,11,-1
 542 921 l 1,12,13
 645.571 1090.48 645.571 1090.48 806 1139.5 c 0,14,15
 860 1156 860 1156 921.5 1156 c 128,-1,16
 983 1156 983 1156 1034.5 1140.5 c 128,-1,17
 1086 1125 1086 1125 1122 1089 c 0,18,19
 1196 1015 1196 1015 1196 854 c 0,20,21
 1196 803.533 1196 803.533 1180 687.267 c 2,22,-1
 1156 511 l 2,23,24
 1147 442 1147 442 1136.5 371 c 0,25,26
 1091 52.5 1091 52.5 1084 0 c 1,27,-1
 727 0 l 1,28,29
 770.604 303.965 770.604 303.965 779.802 374.483 c 2,30,-1
 797 510 l 2,31,32
 825.367 736.939 825.367 736.939 825.367 801.197 c 0,0,1
EndSplineSet
EndChar

StartChar: dotlessi
Encoding: 305 305 72
Width: 664
Flags: HW
LayerCount: 2
Fore
SplineSet
236 1140 m 1,0,-1
 595 1140 l 1,1,-1
 437 0 l 1,2,-1
 80 0 l 1,3,-1
 236 1140 l 1,0,-1
EndSplineSet
EndChar

StartChar: dotaccent
Encoding: 729 729 73
Width: 392
Flags: HW
LayerCount: 2
Fore
SplineSet
264.5 1329 m 0,0,1
 224 1313 224 1313 180 1313 c 128,-1,2
 136 1313 136 1313 105 1326 c 0,3,4
 42.6143 1352.16 42.6143 1352.16 14 1414.5 c 0,5,6
 0.933333 1442.97 0.933333 1442.97 0.933333 1480.73 c 128,-1,7
 0.933333 1518.49 0.933333 1518.49 16.9667 1556.24 c 128,-1,8
 33 1594 33 1594 60.5 1621.5 c 0,9,10
 120 1681 120 1681 211 1681 c 0,11,12
 288.8 1681 288.8 1681 340.5 1631.5 c 0,13,14
 388.074 1585.95 388.074 1585.95 388.074 1520.02 c 0,15,16
 388.074 1377.82 388.074 1377.82 264.5 1329 c 0,0,1
EndSplineSet
EndChar

StartChar: dotlessj
Encoding: 567 567 75
Width: 664
Flags: HW
LayerCount: 2
Fore
SplineSet
-186 -313 m 1,0,1
 -173.143 -322 -173.143 -322 -127.071 -322 c 128,-1,2
 -81 -322 -81 -322 -39.5 -290 c 128,-1,3
 2 -258 2 -258 26.5 -205 c 0,4,5
 61.1308 -130.084 61.1308 -130.084 89 65 c 1,6,-1
 236 1140 l 1,7,-1
 595 1140 l 1,8,-1
 437 0 l 2,9,10
 402.082 -252.189 402.082 -252.189 248 -394.5 c 0,11,12
 103.459 -528 103.459 -528 -94 -528 c 0,13,14
 -228 -528 -228 -528 -274 -494 c 1,15,-1
 -186 -313 l 1,0,1
EndSplineSet
EndChar

StartChar: k
Encoding: 107 107 76
Width: 1226
Flags: HW
LayerCount: 2
Fore
SplineSet
298 1634 m 1,0,-1
 647 1634 l 1,1,-1
 426 0 l 1,2,-1
 78 0 l 1,3,-1
 298 1634 l 1,0,-1
543 630 m 1,4,-1
 546 630 l 1,5,-1
 543 631 l 1,6,7
 674.654 704.726 674.654 704.726 757 861.5 c 0,8,9
 783 911 783 911 805 960.5 c 0,10,11
 847.494 1056.11 847.494 1056.11 868 1140 c 1,12,-1
 1221 1140 l 1,13,14
 1214.55 994.92 1214.55 994.92 1118.5 851.5 c 0,15,16
 1017.56 700.784 1017.56 700.784 875 622 c 1,17,-1
 1199 0 l 1,18,-1
 791 0 l 1,19,-1
 543 630 l 1,4,-1
EndSplineSet
EndChar

StartChar: l
Encoding: 108 108 77
Width: 665
Flags: HW
LayerCount: 2
Fore
SplineSet
303 1634 m 1,0,-1
 662 1634 l 1,1,-1
 440 0 l 1,2,-1
 83 0 l 1,3,-1
 303 1634 l 1,0,-1
EndSplineSet
EndChar

StartChar: m
Encoding: 109 109 78
Width: 1965
Flags: HW
LayerCount: 2
Fore
SplineSet
835.367 801.197 m 0,0,1
 835.367 887 835.367 887 754 887 c 0,2,3
 668.746 887 668.746 887 580.5 779.5 c 0,4,5
 553 746 553 746 531 705 c 1,6,-1
 433 0 l 1,7,-1
 76 0 l 1,8,-1
 232 1140 l 1,9,-1
 576 1140 l 1,10,-1
 561 936 l 1,11,12
 709.119 1156 709.119 1156 940.956 1156 c 128,-1,13
 1172.79 1156 1172.79 1156 1202 926 c 1,14,15
 1352.38 1156 1352.38 1156 1584 1156 c 0,16,17
 1852 1156 1852 1156 1852 854 c 0,18,19
 1852 804.667 1852 804.667 1836 687.333 c 0,20,21
 1786.27 320.88 1786.27 320.88 1774.63 242.94 c 0,22,23
 1748.72 65.3814 1748.72 65.3814 1740 0 c 1,24,-1
 1384 0 l 1,25,-1
 1435.5 376 l 2,26,27
 1445 445 1445 445 1454.5 521.5 c 2,28,-1
 1472 668.5 l 2,29,30
 1482.36 759.797 1482.36 759.797 1482.36 800.943 c 0,31,32
 1482.36 887 1482.36 887 1401 887 c 0,33,34
 1348 887 1348 887 1292 840.5 c 128,-1,35
 1236 794 1236 794 1193 716 c 1,36,37
 1188 672 1188 672 1181 620 c 2,38,-1
 1166 511 l 2,39,40
 1157 442 1157 442 1146.5 371 c 0,41,42
 1101 52.5 1101 52.5 1094 0 c 1,43,-1
 737 0 l 1,44,45
 780.604 303.965 780.604 303.965 789.802 374.483 c 2,46,-1
 807 510 l 2,47,48
 835.367 736.939 835.367 736.939 835.367 801.197 c 0,0,1
EndSplineSet
EndChar

StartChar: n
Encoding: 110 110 79
Width: 1319
Flags: HW
LayerCount: 2
Fore
SplineSet
835.367 801.197 m 0,0,1
 835.367 887 835.367 887 754 887 c 0,2,3
 667.377 887 667.377 887 578.5 775.5 c 0,4,5
 551 741 551 741 529 698 c 1,6,-1
 433 0 l 1,7,-1
 76 0 l 1,8,-1
 232 1140 l 1,9,-1
 573 1140 l 1,10,-1
 560 934 l 1,11,12
 703.647 1156 703.647 1156 929 1156 c 0,13,14
 1206 1156 1206 1156 1206 854 c 0,15,16
 1206 803.533 1206 803.533 1190 687.267 c 2,17,-1
 1166 511 l 2,18,19
 1157 442 1157 442 1146.5 371 c 0,20,21
 1101 52.5 1101 52.5 1094 0 c 1,22,-1
 737 0 l 1,23,24
 780.604 303.965 780.604 303.965 789.802 374.483 c 2,25,-1
 807 510 l 2,26,27
 835.367 736.939 835.367 736.939 835.367 801.197 c 0,0,1
EndSplineSet
EndChar

StartChar: o
Encoding: 111 111 80
Width: 1181
Flags: HW
LayerCount: 2
Fore
SplineSet
65 465.5 m 0,0,1
 65 560 65 560 83 646 c 128,-1,2
 101 732 101 732 136.5 808.5 c 128,-1,3
 172 885 172 885 225 948.5 c 128,-1,4
 278 1012 278 1012 348.5 1058.5 c 0,5,6
 496.323 1156 496.323 1156 701 1156 c 0,7,8
 911.353 1156 911.353 1156 1020 1011.5 c 0,9,10
 1116 883.82 1116 883.82 1116 671 c 0,11,12
 1116 382 1116 382 957 191.5 c 0,13,14
 783.811 -16 783.811 -16 481 -16 c 0,15,16
 269.647 -16 269.647 -16 161 128.5 c 0,17,18
 65 256.18 65 256.18 65 465.5 c 0,0,1
419 429 m 0,19,20
 419 198 419 198 529 198 c 0,21,22
 679.848 198 679.848 198 735.5 469 c 0,23,24
 758 578.565 758 578.565 758 705 c 0,25,26
 758 942 758 942 648 942 c 0,27,28
 500.947 942 500.947 942 442 662 c 0,29,30
 419 552.75 419 552.75 419 429 c 0,19,20
EndSplineSet
Substitution2: "Single Substitution lookup 16 subtable" ordmasculine
Substitution2: "'aalt' Access All Alternates in Latin lookup 0 subtable" ordmasculine
EndChar

StartChar: p
Encoding: 112 112 81
Width: 1285
Flags: HW
LayerCount: 2
Fore
SplineSet
360 -492 m 1,0,-1
 8 -492 l 1,1,-1
 231 1140 l 1,2,-1
 558 1140 l 1,3,-1
 555 906 l 1,4,5
 632.768 1072.65 632.768 1072.65 768 1133.5 c 0,6,7
 818 1156 818 1156 895.5 1156 c 128,-1,8
 973 1156 973 1156 1037.5 1122 c 128,-1,9
 1102 1088 1102 1088 1141.5 1030 c 0,10,11
 1215 922.076 1215 922.076 1215 731 c 0,12,13
 1215 430.797 1215 430.797 1039 219 c 0,14,15
 843.718 -16 843.718 -16 512 -16 c 0,16,17
 471 -16 471 -16 428 -10 c 1,18,-1
 360 -492 l 1,0,-1
458 199 m 1,19,20
 488 194 488 194 538 194 c 128,-1,21
 588 194 588 194 630.5 215.5 c 128,-1,22
 673 237 673 237 707 274 c 128,-1,23
 741 311 741 311 766.5 361.5 c 128,-1,24
 792 412 792 412 808.5 469 c 0,25,26
 842 584.727 842 584.727 842 710 c 0,27,28
 842 912 842 912 754 912 c 0,29,30
 659.75 912 659.75 912 560 681 c 0,31,32
 523.342 596.108 523.342 596.108 503 517 c 1,33,-1
 458 199 l 1,19,20
EndSplineSet
EndChar

StartChar: q
Encoding: 113 113 82
Width: 1278
Flags: HW
LayerCount: 2
Fore
SplineSet
778.25 1156 m 0,0,1
 900.5 1156 900.5 1156 1027 1110 c 1,2,-1
 1207 1156 l 1,3,-1
 987 -492 l 1,4,-1
 637 -492 l 1,5,-1
 702 0 l 1,6,-1
 747 276 l 1,7,8
 665.887 81.3281 665.887 81.3281 527.5 11.5 c 0,9,10
 473 -16 473 -16 392 -16 c 128,-1,11
 311 -16 311 -16 247 18.5 c 128,-1,12
 183 53 183 53 143.5 111.5 c 0,13,14
 70 220.354 70 220.354 70 412 c 0,15,16
 70 712.195 70 712.195 246 922.5 c 0,17,18
 441.411 1156 441.411 1156 778.25 1156 c 0,0,1
819 942 m 1,19,20
 785 946 785 946 741 946 c 128,-1,21
 697 946 697 946 654 924.5 c 128,-1,22
 611 903 611 903 577 866.5 c 128,-1,23
 543 830 543 830 517.5 780 c 128,-1,24
 492 730 492 730 475.5 673 c 0,25,26
 442 557.273 442 557.273 442 433 c 0,27,28
 442 228 442 228 531 228 c 0,29,30
 636.622 228 636.622 228 745.5 516 c 0,31,32
 761 557 761 557 772 593 c 1,33,-1
 819 942 l 1,19,20
EndSplineSet
EndChar

StartChar: r
Encoding: 114 114 83
Width: 905
Flags: HW
LayerCount: 2
Fore
SplineSet
761 807 m 0,0,1
 641.304 807 641.304 807 538 719 c 1,2,-1
 535 722 l 1,3,-1
 435 0 l 1,4,-1
 78 0 l 1,5,-1
 234 1140 l 1,6,-1
 578 1140 l 1,7,-1
 562 912 l 1,8,-1
 561 904 l 1,9,-1
 562 905 l 1,10,11
 595.552 1005.66 595.552 1005.66 672.5 1078.5 c 0,12,13
 754.366 1156 754.366 1156 853 1156 c 0,14,15
 901.6 1156 901.6 1156 924 1142 c 1,16,-1
 861 781 l 1,17,18
 842.429 807 842.429 807 761 807 c 0,0,1
EndSplineSet
EndChar

StartChar: s
Encoding: 115 115 84
Width: 977
Flags: HW
LayerCount: 2
Fore
SplineSet
379 233 m 0,0,1
 524 233 524 233 524 316 c 0,2,3
 524 373.432 524 373.432 388 469 c 0,4,5
 213.365 591.717 213.365 591.717 175.5 725 c 0,6,7
 163 769 163 769 163 835 c 128,-1,8
 163 901 163 901 196 962.5 c 128,-1,9
 229 1024 229 1024 289.5 1067 c 0,10,11
 414.721 1156 414.721 1156 626 1156 c 0,12,13
 791.25 1156 791.25 1156 893 1119 c 1,14,-1
 855 820 l 1,15,16
 799.696 875.304 799.696 875.304 691.5 900.5 c 0,17,18
 655 909 655 909 604 909 c 128,-1,19
 553 909 553 909 523.5 885.5 c 128,-1,20
 494 862 494 862 494 833 c 128,-1,21
 494 804 494 804 505 784.5 c 128,-1,22
 516 765 516 765 537 745.5 c 128,-1,23
 558 726 558 726 589 702 c 128,-1,24
 620 678 620 678 665 641.5 c 128,-1,25
 710 605 710 605 748 570.5 c 128,-1,26
 786 536 786 536 811 499.5 c 0,27,28
 861 426.5 861 426.5 861 329.25 c 128,-1,29
 861 232 861 232 820.5 165.5 c 128,-1,30
 780 99 780 99 713.5 58.5 c 0,31,32
 591.173 -16 591.173 -16 387 -16 c 0,33,34
 232.4 -16 232.4 -16 105 29.5 c 0,35,36
 70 42 70 42 56 53 c 1,37,-1
 112 333 l 1,38,39
 169.112 279.696 169.112 279.696 307 243.5 c 0,40,41
 347 233 347 233 379 233 c 0,0,1
EndSplineSet
EndChar

StartChar: t
Encoding: 116 116 85
Width: 839
Flags: HW
LayerCount: 2
Fore
SplineSet
790 136 m 1,0,1
 595 -20 595 -20 360 -20 c 0,2,3
 252 -20 252 -20 188.5 36 c 128,-1,4
 125 92 125 92 125 195 c 0,5,6
 125 213.5 125 213.5 129.5 256.25 c 2,7,-1
 137.5 332.5 l 2,8,9
 141 366 141 366 146 398 c 2,10,-1
 218 924 l 1,11,-1
 134 924 l 1,12,-1
 170 1140 l 1,13,-1
 275 1140 l 1,14,-1
 373 1416 l 1,15,-1
 640 1416 l 1,16,-1
 603 1140 l 1,17,-1
 825 1140 l 1,18,-1
 802 924 l 1,19,-1
 575 924 l 1,20,-1
 495 341.5 l 2,21,22
 491 312 491 312 491 288 c 0,23,24
 491 224 491 224 561 224 c 0,25,26
 616.267 224 616.267 224 696 276 c 0,27,28
 719 291 719 291 736 306 c 1,29,-1
 790 136 l 1,0,1
EndSplineSet
EndChar

StartChar: u
Encoding: 117 117 86
Width: 1292
Flags: HW
LayerCount: 2
Fore
SplineSet
145.5 114 m 128,-1,1
 122 163 122 163 121.5 216.5 c 128,-1,2
 121 270 121 270 124 313 c 128,-1,3
 127 356 127 356 132 403 c 0,4,5
 140.617 484 140.617 484 157 594 c 1,6,-1
 232 1140 l 1,7,-1
 585 1140 l 1,8,-1
 515 589 l 1,9,-1
 505 515 l 2,10,11
 488 385.8 488 385.8 488 333.9 c 128,-1,12
 488 282 488 282 509 258 c 128,-1,13
 530 234 530 234 557 234 c 256,14,15
 632.636 234 632.636 234 719 348 c 0,16,17
 744 381 744 381 765 417 c 1,18,-1
 866 1140 l 1,19,-1
 1223 1140 l 1,20,-1
 1067 0 l 1,21,-1
 749 0 l 1,22,-1
 755 194 l 1,23,24
 663.271 49.3499 663.271 49.3499 513.5 -2 c 0,25,26
 461 -20 461 -20 404 -20 c 128,-1,27
 347 -20 347 -20 297 -7.5 c 128,-1,28
 247 5 247 5 208 35 c 128,-1,0
 169 65 169 65 145.5 114 c 128,-1,1
EndSplineSet
EndChar

StartChar: w
Encoding: 119 119 87
Width: 1763
Flags: HW
LayerCount: 2
Fore
SplineSet
1720 1140 m 1,0,1
 1731 1074 1731 1074 1731 961 c 128,-1,2
 1731 848 1731 848 1690.5 720 c 128,-1,3
 1650 592 1650 592 1575.5 470 c 0,4,5
 1433.21 236.995 1433.21 236.995 1158 8 c 1,6,-1
 1138 -9 l 1,7,-1
 879 -21 l 1,8,-1
 825 339 l 1,9,10
 717.719 163.637 717.719 163.637 545 8 c 1,11,-1
 525 -9 l 1,12,-1
 250 -21 l 1,13,-1
 195 355 l 1,14,-1
 92 1140 l 1,15,-1
 453 1140 l 1,16,-1
 512 475 l 1,17,-1
 525 266 l 1,18,-1
 584 342 l 1,19,20
 730.937 567.653 730.937 567.653 775 810 c 1,21,-1
 741 1140 l 1,22,-1
 1084 1140 l 1,23,-1
 1132 475 l 1,24,-1
 1145 266 l 1,25,-1
 1204 342 l 1,26,27
 1348.46 568.653 1348.46 568.653 1384.5 881 c 0,28,29
 1402 1032.67 1402 1032.67 1402 1140 c 1,30,-1
 1720 1140 l 1,0,1
EndSplineSet
EndChar

StartChar: x
Encoding: 120 120 88
Width: 1053
Flags: HW
LayerCount: 2
Fore
SplineSet
346 601 m 1,0,-1
 46 1140 l 1,1,-1
 454 1140 l 1,2,-1
 582 825 l 1,3,-1
 777 1140 l 1,4,-1
 1133 1140 l 1,5,-1
 710 559 l 1,6,-1
 1033 0 l 1,7,-1
 625 0 l 1,8,-1
 478 332 l 1,9,-1
 263 0 l 1,10,-1
 -105 0 l 1,11,-1
 346 601 l 1,0,-1
EndSplineSet
EndChar

StartChar: y
Encoding: 121 121 89
Width: 1140
Flags: HW
LayerCount: 2
Fore
SplineSet
1094 1140 m 1,0,1
 1100 1110 1100 1110 1100 1004 c 128,-1,2
 1100 898 1100 898 1088.5 812.5 c 128,-1,3
 1077 727 1077 727 1056.5 644.5 c 0,4,5
 951.325 221.237 951.325 221.237 682 -148 c 2,6,-1
 578.5 -290 l 2,7,8
 473.542 -434.993 473.542 -434.993 344.5 -487.5 c 0,9,10
 272 -517 272 -517 199.5 -517 c 128,-1,11
 127 -517 127 -517 89.5 -510 c 128,-1,12
 52 -503 52 -503 19 -492.5 c 0,13,14
 -36.3333 -474.894 -36.3333 -474.894 -92 -442 c 1,15,-1
 -3 -198 l 1,16,17
 83.4167 -259 83.4167 -259 171 -259 c 0,18,19
 255.196 -259 255.196 -259 320.5 -206 c 0,20,21
 381.207 -156.731 381.207 -156.731 471 -20 c 1,22,-1
 265 -20 l 1,23,-1
 95 1140 l 1,24,-1
 447 1140 l 1,25,-1
 554 137 l 1,26,27
 616.197 263.615 616.197 263.615 655.598 384.307 c 128,-1,28
 695 505 695 505 711 559 c 128,-1,29
 727 613 727 613 738 672 c 0,30,31
 757.204 775.004 757.204 775.004 765.602 898.502 c 128,-1,32
 774 1022 774 1022 774 1062 c 2,33,-1
 774 1140 l 1,34,-1
 1094 1140 l 1,0,1
EndSplineSet
EndChar

StartChar: z
Encoding: 122 122 90
Width: 984
Flags: HW
LayerCount: 2
Fore
SplineSet
-45 45 m 1,0,-1
 509 835 l 1,1,-1
 561 873 l 1,2,-1
 133 873 l 1,3,-1
 170 1140 l 1,4,-1
 992 1140 l 1,5,-1
 1027 1096 l 1,6,-1
 482 303 l 1,7,-1
 438 272 l 1,8,-1
 895 272 l 1,9,-1
 867 0 l 1,10,-1
 -10 0 l 1,11,-1
 -45 45 l 1,0,-1
EndSplineSet
EndChar

StartChar: braceleft
Encoding: 123 123 91
Width: 1024
Flags: HW
LayerCount: 2
Fore
SplineSet
190.5 -166.5 m 0,0,1
 181 -133 181 -133 181 -110 c 128,-1,2
 181 -87 181 -87 185 -56.5 c 0,3,4
 201.17 67.2021 201.17 67.2021 209.085 123.101 c 2,5,-1
 268 546 l 1,6,7
 268 588.333 268 588.333 226 616.667 c 128,-1,8
 184 645 184 645 140 657.5 c 128,-1,9
 96 670 96 670 51 681 c 1,10,-1
 83 884 l 1,11,12
 132 896 132 896 184 907.5 c 128,-1,13
 236 919 236 919 268.5 936 c 0,14,15
 332.496 969.475 332.496 969.475 340 1012 c 2,16,-1
 428 1550 l 2,17,18
 452.017 1698.1 452.017 1698.1 516 1755.5 c 0,19,20
 578.984 1812 578.984 1812 713 1812 c 0,21,22
 818.562 1812 818.562 1812 1043 1755 c 1,23,-1
 1012 1579 l 1,24,-1
 736 1579 l 1,25,-1
 642 960 l 2,26,27
 636 919 636 919 615 895 c 128,-1,28
 594 871 594 871 568.5 855 c 128,-1,29
 543 839 543 839 510 827 c 2,30,-1
 441 802 l 2,31,32
 399 787 399 787 349 771 c 1,33,34
 371 759 371 759 399.5 746.5 c 2,35,-1
 455.5 721 l 1,36,37
 519.034 690.966 519.034 690.966 534.517 674.983 c 2,38,-1
 559 649.5 l 2,39,40
 587.49 619.427 587.49 619.427 580 562 c 1,41,-1
 488 -30 l 1,42,-1
 763 -30 l 1,43,44
 761 -36 761 -36 758 -62.5 c 0,45,46
 751.6 -119.034 751.6 -119.034 741 -195 c 1,47,48
 548.5 -272 548.5 -272 376 -272 c 0,49,50
 220.418 -272 220.418 -272 190.5 -166.5 c 0,0,1
EndSplineSet
EndChar

StartChar: bar
Encoding: 124 124 92
Width: 854
Flags: HW
LayerCount: 2
Fore
SplineSet
320 1780 m 1,0,-1
 573 1780 l 1,1,-1
 573 -186 l 1,2,-1
 320 -186 l 1,3,-1
 320 1780 l 1,0,-1
EndSplineSet
EndChar

StartChar: asciitilde
Encoding: 126 126 94
Width: 1137
Flags: HW
LayerCount: 2
Fore
SplineSet
224 745 m 1,0,-1
 76 886 l 1,1,2
 100.912 964.888 100.912 964.888 203.5 1034 c 0,3,4
 310.375 1106 310.375 1106 418 1106 c 128,-1,5
 525.727 1106 525.727 1106 643 1020 c 1,6,-1
 701.5 978.5 l 1,7,8
 766.538 934 766.538 934 820 934 c 0,9,10
 925.283 934 925.283 934 1002 1041 c 1,11,-1
 1136 902 l 1,12,13
 1113.08 814.506 1113.08 814.506 1014 744.5 c 0,14,15
 911.385 672 911.385 672 804 672 c 0,16,17
 687.167 672 687.167 672 581 763 c 128,-1,18
 474.833 854 474.833 854 392.443 854 c 128,-1,19
 310.053 854 310.053 854 224 745 c 1,0,-1
EndSplineSet
EndChar

StartChar: exclam
Encoding: 33 33 96
Width: 686
Flags: HW
LayerCount: 2
Fore
SplineSet
337 1778 m 1,0,-1
 702 1778 l 1,1,-1
 459 488 l 1,2,-1
 201 488 l 1,3,-1
 337 1778 l 1,0,-1
136.5 13.5 m 128,-1,5
 95 56 95 56 95 110.5 c 128,-1,6
 95 165 95 165 109.5 204 c 128,-1,7
 124 243 124 243 151 272.5 c 0,8,9
 210.949 338 210.949 338 303 338 c 0,10,11
 426.537 338 426.537 338 455.5 246 c 0,12,13
 464 219 464 219 464 179.5 c 128,-1,14
 464 140 464 140 449 99.5 c 128,-1,15
 434 59 434 59 406 30.5 c 0,16,17
 347.544 -29 347.544 -29 262.772 -29 c 128,-1,4
 178 -29 178 -29 136.5 13.5 c 128,-1,5
EndSplineSet
EndChar

StartChar: sterling
Encoding: 163 163 97
Width: 1426
Flags: HW
LayerCount: 2
Fore
SplineSet
153.5 -12.5 m 0,0,1
 124 -20 124 -20 90 -20 c 128,-1,2
 56 -20 56 -20 25.5 -8 c 128,-1,3
 -5 4 -5 4 -24.5 23.5 c 0,4,5
 -62 61 -62 61 -62 112 c 128,-1,6
 -62 163 -62 163 -36.5 199.5 c 128,-1,7
 -11 236 -11 236 29 262 c 0,8,9
 113.615 317 113.615 317 212 317 c 1,10,11
 264.445 384.429 264.445 384.429 281 481 c 2,12,-1
 322 719 l 1,13,-1
 153 719 l 1,14,-1
 183 951 l 1,15,-1
 362 951 l 1,16,-1
 388 1100 l 2,17,18
 439.569 1398.36 439.569 1398.36 699 1506 c 0,19,20
 793 1545 793 1545 907 1545 c 128,-1,21
 1021 1545 1021 1545 1092.5 1530.5 c 128,-1,22
 1164 1516 1164 1516 1213 1496.5 c 0,23,24
 1278.39 1470.48 1278.39 1470.48 1335 1426 c 1,25,-1
 1163 1170 l 1,26,27
 1150.03 1208.91 1150.03 1208.91 1108.02 1242.95 c 0,28,29
 1021.57 1313 1021.57 1313 940 1313 c 0,30,31
 803.527 1313 803.527 1313 752.5 1187.5 c 0,32,33
 734 1142 734 1142 723 1075 c 2,34,-1
 702 951 l 1,35,-1
 1008 951 l 1,36,-1
 978 719 l 1,37,-1
 664 719 l 1,38,-1
 636 546 l 2,39,40
 619 444 619 444 588 379.5 c 128,-1,41
 557 315 557 315 531 287 c 1,42,43
 606.992 259.367 606.992 259.367 709.996 247.183 c 128,-1,44
 813 235 813 235 851 235 c 0,45,46
 980 235 980 235 1045.5 275 c 128,-1,47
 1111 315 1111 315 1111 380 c 0,48,49
 1111 434.2 1111 434.2 1058.5 482.5 c 0,50,51
 1046 494 1046 494 1039 498 c 1,52,-1
 1248 667 l 1,53,54
 1322.55 631.685 1322.55 631.685 1371 542.5 c 0,55,56
 1417 457.818 1417 457.818 1417 377 c 256,57,58
 1417 70.3377 1417 70.3377 1118 -1.5 c 0,59,60
 1041 -20 1041 -20 937.5 -20 c 128,-1,61
 834 -20 834 -20 747.5 -6 c 128,-1,62
 661 8 661 8 585.5 26 c 2,63,-1
 442.5 61.5 l 2,64,65
 375 79 375 79 313 85 c 1,66,67
 252.785 12.7419 252.785 12.7419 153.5 -12.5 c 0,0,1
EndSplineSet
EndChar

StartChar: currency
Encoding: 164 164 98
Width: 1540
Flags: HW
LayerCount: 2
Fore
SplineSet
1014 317 m 1,0,1
 907.065 252 907.065 252 784.618 252 c 128,-1,2
 662.172 252 662.172 252 557 313 c 1,3,-1
 346 102 l 1,4,-1
 204 243 l 1,5,-1
 412 451 l 1,6,7
 342 561.303 342 561.303 342 690 c 256,8,9
 342 816.625 342 816.625 410 925 c 1,10,-1
 201 1135 l 1,11,-1
 342 1277 l 1,12,-1
 553 1064 l 1,13,14
 661.8 1128 661.8 1128 786.248 1128 c 128,-1,15
 910.697 1128 910.697 1128 1021 1058 c 1,16,-1
 1228 1264 l 1,17,-1
 1369 1122 l 1,18,-1
 1160 913 l 1,19,20
 1222 808.241 1222 808.241 1222 686.214 c 128,-1,21
 1222 564.188 1222 564.188 1156 459 c 1,22,-1
 1367 248 l 1,23,-1
 1225 107 l 1,24,-1
 1014 317 l 1,0,1
576 690 m 256,25,26
 576 600.714 576 600.714 636 537.5 c 0,27,28
 696.271 474 696.271 474 782 474 c 256,29,30
 867.729 474 867.729 474 928 537.5 c 0,31,32
 988 600.714 988 600.714 988 690 c 256,33,34
 988 779.286 988 779.286 928 842.5 c 0,35,36
 867.729 906 867.729 906 782 906 c 256,37,38
 696.271 906 696.271 906 636 842.5 c 0,39,40
 576 779.286 576 779.286 576 690 c 256,25,26
EndSplineSet
EndChar

StartChar: brokenbar
Encoding: 166 166 99
Width: 854
Flags: HW
LayerCount: 2
Fore
SplineSet
320 1780 m 1,0,-1
 573 1780 l 1,1,-1
 573 916 l 1,2,-1
 320 916 l 1,3,-1
 320 1780 l 1,0,-1
320 678 m 1,4,-1
 573 678 l 1,5,-1
 573 -186 l 1,6,-1
 320 -186 l 1,7,-1
 320 678 l 1,4,-1
EndSplineSet
EndChar

StartChar: section
Encoding: 167 167 100
Width: 1194
Flags: HW
LayerCount: 2
Fore
SplineSet
982 356 m 1,0,1
 1017.08 287.9 1017.08 287.9 1018.04 204.45 c 128,-1,2
 1019 121 1019 121 988 53 c 128,-1,3
 957 -15 957 -15 892 -68.5 c 0,4,5
 748.028 -187 748.028 -187 487 -187 c 0,6,7
 298.462 -187 298.462 -187 125 -104.5 c 0,8,9
 84 -85 84 -85 67 -72 c 1,10,-1
 124 179 l 1,11,12
 202.424 91.8622 202.424 91.8622 449 68 c 0,13,14
 480 65 480 65 521.5 65 c 128,-1,15
 563 65 563 65 602 73.5 c 128,-1,16
 641 82 641 82 663.5 98 c 0,17,18
 703 126.089 703 126.089 703.5 169.544 c 128,-1,19
 704 213 704 213 687.5 236 c 128,-1,20
 671 259 671 259 639.5 280 c 128,-1,21
 608 301 608 301 563 322.5 c 2,22,-1
 462 372 l 1,23,24
 207.273 499.364 207.273 499.364 127.5 685.5 c 0,25,26
 98.9808 752.045 98.9808 752.045 98.9808 833.532 c 0,27,28
 98.9808 1007.74 98.9808 1007.74 286 1123 c 1,29,30
 247 1194.84 247 1194.84 247 1283.42 c 128,-1,31
 247 1372 247 1372 280.5 1441 c 128,-1,32
 314 1510 314 1510 381 1561.5 c 0,33,34
 526.058 1673 526.058 1673 778 1673 c 0,35,36
 970.222 1673 970.222 1673 1110 1599 c 0,37,38
 1144 1581 1144 1581 1159 1568 c 1,39,-1
 1092 1347 l 1,40,41
 1050.69 1404.19 1050.69 1404.19 882.5 1427 c 0,42,43
 830.875 1434 830.875 1434 778.938 1434 c 128,-1,44
 727 1434 727 1434 686.5 1425 c 128,-1,45
 646 1416 646 1416 620 1400.5 c 0,46,47
 569 1370.1 569 1370.1 569 1316 c 1,48,49
 567.261 1260.35 567.261 1260.35 625.5 1220.5 c 0,50,51
 654 1201 654 1201 697 1180.5 c 2,52,-1
 796 1132 l 1,53,54
 1154.37 950.49 1154.37 950.49 1158 667 c 1,55,56
 1158 533.318 1158 533.318 1056 420.5 c 0,57,58
 1023 384 1023 384 982 356 c 1,0,1
422 989 m 1,59,60
 389.766 938.347 389.766 938.347 388.883 887.173 c 128,-1,61
 388 836 388 836 398 805 c 128,-1,62
 408 774 408 774 436 743.5 c 0,63,64
 489.91 684.776 489.91 684.776 589.955 630.888 c 128,-1,65
 690 577 690 577 742 552 c 128,-1,66
 794 527 794 527 842 498 c 1,67,68
 877.087 550.63 877.087 550.63 877.087 601.663 c 128,-1,69
 877.087 652.696 877.087 652.696 867.043 682.348 c 128,-1,70
 857 712 857 712 829.5 742.5 c 0,71,72
 778.922 798.596 778.922 798.596 628 882 c 1,73,-1
 522 934.5 l 2,74,75
 470 960 470 960 422 989 c 1,59,60
EndSplineSet
EndChar

StartChar: dieresis
Encoding: 168 168 101
Width: 817
Flags: HW
LayerCount: 2
Fore
SplineSet
699 1354 m 128,-1,1
 663 1338 663 1338 624 1338 c 128,-1,2
 585 1338 585 1338 557.5 1352.5 c 128,-1,3
 530 1367 530 1367 510 1390.5 c 0,4,5
 441.562 1470.92 441.562 1470.92 480.5 1581.5 c 0,6,7
 506.341 1654.89 506.341 1654.89 572.5 1685.5 c 0,8,9
 606 1701 606 1701 645 1701 c 128,-1,10
 684 1701 684 1701 713.5 1687 c 0,11,12
 773.404 1658.57 773.404 1658.57 796 1599 c 0,13,14
 806.083 1572.42 806.083 1572.42 806.083 1536.93 c 128,-1,15
 806.083 1501.44 806.083 1501.44 794.042 1463.22 c 128,-1,16
 782 1425 782 1425 758.5 1397.5 c 128,-1,0
 735 1370 735 1370 699 1354 c 128,-1,1
227 1354 m 128,-1,18
 192 1338 192 1338 152.5 1338 c 128,-1,19
 113 1338 113 1338 85.5 1352.5 c 0,20,21
 28.5991 1382.5 28.5991 1382.5 4 1444 c 0,22,23
 -7.07692 1471.69 -7.07692 1471.69 -7.07692 1507.38 c 128,-1,24
 -7.07692 1543.06 -7.07692 1543.06 6.46154 1580.03 c 128,-1,25
 20 1617 20 1617 43.5 1643.5 c 0,26,27
 94.4906 1701 94.4906 1701 177 1701 c 0,28,29
 246.111 1701 246.111 1701 291 1650.5 c 0,30,31
 332.083 1604.28 332.083 1604.28 332.083 1552.94 c 128,-1,32
 332.083 1501.59 332.083 1501.59 320.542 1463.3 c 128,-1,33
 309 1425 309 1425 285.5 1397.5 c 128,-1,17
 262 1370 262 1370 227 1354 c 128,-1,18
EndSplineSet
EndChar

StartChar: copyright
Encoding: 169 169 102
Width: 2091
Flags: HW
LayerCount: 2
Fore
SplineSet
175 962.5 m 0,0,1
 175 1084 175 1084 205.5 1196.5 c 128,-1,2
 236 1309 236 1309 292.5 1406 c 128,-1,3
 349 1503 349 1503 428 1582.5 c 128,-1,4
 507 1662 507 1662 603.5 1719 c 0,5,6
 804.965 1838 804.965 1838 1045 1838 c 256,7,8
 1284.49 1838 1284.49 1838 1487 1719 c 0,9,10
 1790.1 1540.89 1790.1 1540.89 1885 1196.5 c 0,11,12
 1916 1084 1916 1084 1916 962.5 c 128,-1,13
 1916 841 1916 841 1885 728.5 c 128,-1,14
 1854 616 1854 616 1798 518.5 c 128,-1,15
 1742 421 1742 421 1663 341 c 128,-1,16
 1584 261 1584 261 1487 204 c 0,17,18
 1282.79 84 1282.79 84 1045 84 c 256,19,20
 806.658 84 806.658 84 603.5 204 c 0,21,22
 407.744 319.628 407.744 319.628 292.5 518.5 c 0,23,24
 175 721.266 175 721.266 175 962.5 c 0,0,1
317 962.5 m 0,25,26
 317 859 317 859 342 763.5 c 128,-1,27
 367 668 367 668 413 584.5 c 128,-1,28
 459 501 459 501 524 432.5 c 128,-1,29
 589 364 589 364 670 315.5 c 0,30,31
 841.186 213 841.186 213 1045 213 c 256,32,33
 1248.81 213 1248.81 213 1420 315.5 c 0,34,35
 1582.37 412.719 1582.37 412.719 1677 584.5 c 0,36,37
 1773 758.761 1773 758.761 1773 963 c 0,38,39
 1773 1274.35 1773 1274.35 1566 1492.5 c 0,40,41
 1434.98 1630.58 1434.98 1630.58 1244.5 1685 c 0,42,43
 1150 1712 1150 1712 1045 1712 c 256,44,45
 841.186 1712 841.186 1712 670 1609.5 c 0,46,47
 508.072 1512.54 508.072 1512.54 413 1341 c 0,48,49
 317 1167.78 317 1167.78 317 962.5 c 0,25,26
1324 747 m 1,50,-1
 1368 574 l 1,51,52
 1288.3 504.696 1288.3 504.696 1147.5 479.5 c 0,53,54
 1100 471 1100 471 1023.5 471 c 128,-1,55
 947 471 947 471 864 510 c 128,-1,56
 781 549 781 549 722 615.5 c 0,57,58
 599 754.136 599 754.136 599 954 c 0,59,60
 598.969 957.262 598.969 957.262 598.969 960.51 c 0,61,62
 598.969 1177.5 598.969 1177.5 723.5 1311 c 0,63,64
 857.828 1455 857.828 1455 1094 1455 c 0,65,66
 1207.11 1455 1207.11 1455 1307 1418.5 c 0,67,68
 1333 1409 1333 1409 1348 1400 c 1,69,-1
 1311 1195 l 1,70,71
 1231 1250 1231 1250 1098 1250 c 0,72,73
 988.912 1250 988.912 1250 920 1179 c 0,74,75
 850 1106.88 850 1106.88 850 992 c 0,76,77
 849.949 987.744 849.949 987.744 849.949 946.872 c 128,-1,78
 849.949 906 849.949 906 867.974 849 c 128,-1,79
 886 792 886 792 919.5 755 c 0,80,81
 983.784 684 983.784 684 1110.39 684 c 128,-1,82
 1237 684 1237 684 1324 747 c 1,50,-1
EndSplineSet
EndChar

StartChar: guilsinglleft
Encoding: 8249 8249 104
Width: 1190
Flags: HW
LayerCount: 2
Fore
SplineSet
206 720 m 1,0,-1
 948 1116 l 1,1,-1
 1006 911 l 1,2,-1
 576 605 l 1,3,-1
 940 304 l 1,4,-1
 830 132 l 1,5,-1
 174 530 l 1,6,-1
 206 720 l 1,0,-1
EndSplineSet
EndChar

StartChar: registered
Encoding: 174 174 105
Width: 2091
Flags: HW
LayerCount: 2
Fore
SplineSet
171 961.5 m 0,0,1
 171 1083 171 1083 202 1195.5 c 128,-1,2
 233 1308 233 1308 289.5 1405 c 128,-1,3
 346 1502 346 1502 425.5 1582 c 128,-1,4
 505 1662 505 1662 602.5 1719 c 0,5,6
 806.053 1838 806.053 1838 1045 1838 c 0,7,8
 1285.49 1838 1285.49 1838 1488 1719 c 0,9,10
 1684.25 1603.68 1684.25 1603.68 1801 1405 c 0,11,12
 1920 1202.49 1920 1202.49 1920 962 c 0,13,14
 1920 721.053 1920 721.053 1801 517.5 c 0,15,16
 1684.72 318.597 1684.72 318.597 1488 203 c 0,17,18
 1283.79 83 1283.79 83 1045 83 c 256,19,20
 807.763 83 807.763 83 602.5 203 c 0,21,22
 404.758 318.603 404.758 318.603 289.5 517.5 c 0,23,24
 171 721.991 171 721.991 171 961.5 c 0,0,1
313 962 m 256,25,26
 313 650.455 313 650.455 523 432.5 c 0,27,28
 734.489 213 734.489 213 1045 213 c 256,29,30
 1355.51 213 1355.51 213 1567 432.5 c 0,31,32
 1700.34 570.887 1700.34 570.887 1751.5 762.5 c 0,33,34
 1777 858 1777 858 1777 961.5 c 128,-1,35
 1777 1065 1777 1065 1751.5 1160.5 c 128,-1,36
 1726 1256 1726 1256 1679.5 1339.5 c 128,-1,37
 1633 1423 1633 1423 1567 1491 c 128,-1,38
 1501 1559 1501 1559 1419.5 1608 c 0,39,40
 1249.85 1710 1249.85 1710 1045 1710 c 256,41,42
 735.559 1710 735.559 1710 523 1491 c 0,43,44
 390.22 1354.2 390.22 1354.2 338.5 1160.5 c 0,45,46
 313 1065 313 1065 313 962 c 256,25,26
1016 835 m 1,47,-1
 974.5 834 l 2,48,49
 949.75 834 949.75 834 925 834 c 1,50,-1
 925 486 l 1,51,-1
 700 486 l 1,52,-1
 700 1449 l 1,53,-1
 797 1449 l 2,54,55
 828 1449 828 1449 855 1450 c 2,56,-1
 911.5 1452 l 2,57,58
 1000 1455 1000 1455 1076.5 1455 c 128,-1,59
 1153 1455 1153 1455 1222 1434 c 128,-1,60
 1291 1413 1291 1413 1336.5 1376.5 c 0,61,62
 1428 1303.1 1428 1303.1 1428 1179 c 0,63,64
 1428 916.436 1428 916.436 1234 860 c 1,65,66
 1314.1 813.626 1314.1 813.626 1386.5 661 c 0,67,68
 1405 622 1405 622 1422 592.5 c 2,69,-1
 1452 542 l 2,70,71
 1465 521 1465 521 1492 487 c 1,72,-1
 1237 487 l 1,73,74
 1221 504 1221 504 1211.5 525 c 128,-1,75
 1202 546 1202 546 1187.5 574.5 c 128,-1,76
 1173 603 1173 603 1157.5 642 c 128,-1,77
 1142 681 1142 681 1122.5 719 c 0,78,79
 1076.22 809.193 1076.22 809.193 1016 835 c 1,47,-1
1031.13 1290.03 m 2,80,-1
 993.293 1290.01 l 2,81,82
 958 1290 958 1290 925 1279 c 1,83,-1
 925 998 l 1,84,85
 955.8 991 955.8 991 1045 991 c 0,86,87
 1202 991 1202 991 1202 1150 c 0,88,89
 1202 1218 1202 1218 1163.03 1254.01 c 128,-1,90
 1124.05 1290.03 1124.05 1290.03 1031.13 1290.03 c 2,80,-1
EndSplineSet
EndChar

StartChar: macron
Encoding: 175 175 106
Width: 620
Flags: HW
LayerCount: 2
Fore
SplineSet
44 1614 m 1,0,-1
 621 1614 l 1,1,-1
 603 1405 l 1,2,-1
 26 1405 l 1,3,-1
 44 1614 l 1,0,-1
EndSplineSet
EndChar

StartChar: degree
Encoding: 176 176 107
Width: 957
Flags: HW
LayerCount: 2
Fore
SplineSet
563 915 m 0,0,1
 484 915 484 915 418 943.5 c 0,2,3
 284.932 1000.96 284.932 1000.96 230.5 1135.5 c 0,4,5
 205.86 1196.4 205.86 1196.4 205.86 1264.66 c 0,6,7
 205.86 1269.81 205.86 1269.81 206 1275 c 0,8,9
 208.017 1428.3 208.017 1428.3 315 1531 c 0,10,11
 422.292 1634 422.292 1634 583 1634 c 0,12,13
 736 1634 736 1634 841.5 1528.5 c 0,14,15
 942.036 1427.96 942.036 1427.96 942.036 1280.37 c 0,16,17
 942.036 1122.5 942.036 1122.5 831 1018 c 0,18,19
 721.562 915 721.562 915 563 915 c 0,0,1
506.5 1115 m 128,-1,21
 536 1101 536 1101 571 1101 c 128,-1,22
 606 1101 606 1101 636.5 1114.5 c 128,-1,23
 667 1128 667 1128 689.5 1151 c 0,24,25
 738 1200.58 738 1200.58 738 1276 c 0,26,27
 738.074 1278.67 738.074 1278.67 738.074 1296.5 c 128,-1,28
 738.074 1314.33 738.074 1314.33 726.037 1344.67 c 128,-1,29
 714 1375 714 1375 692.5 1398.5 c 0,30,31
 646.298 1449 646.298 1449 577 1449 c 0,32,33
 466.127 1449 466.127 1449 423 1344.5 c 0,34,35
 410 1313 410 1313 409.962 1293.12 c 128,-1,36
 409.923 1273.23 409.923 1273.23 409.923 1255.38 c 128,-1,37
 409.923 1237.54 409.923 1237.54 421.462 1206.77 c 128,-1,38
 433 1176 433 1176 455 1152.5 c 128,-1,20
 477 1129 477 1129 506.5 1115 c 128,-1,21
EndSplineSet
EndChar

StartChar: plusminus
Encoding: 177 177 108
Width: 1356
Flags: HW
LayerCount: 2
Fore
SplineSet
530 526 m 1,0,-1
 555 661 l 1,1,-1
 431 654 l 1,2,-1
 182 654 l 1,3,-1
 217 917 l 1,4,-1
 466 917 l 1,5,-1
 583 906 l 1,6,-1
 592 1045 l 1,7,-1
 622 1324 l 1,8,-1
 894 1324 l 1,9,-1
 868 1045 l 1,10,-1
 843 907 l 1,11,-1
 941 917 l 1,12,-1
 1216 917 l 1,13,-1
 1181 654 l 1,14,-1
 907 654 l 1,15,-1
 810 661 l 1,16,-1
 804 526 l 1,17,-1
 770 250 l 1,18,-1
 497 250 l 1,19,-1
 530 526 l 1,0,-1
180 207 m 1,20,-1
 1085 207 l 1,21,-1
 1069 0 l 1,22,-1
 163 0 l 1,23,-1
 180 207 l 1,20,-1
EndSplineSet
EndChar

StartChar: acute
Encoding: 180 180 109
Width: 565
Flags: HW
LayerCount: 2
Fore
SplineSet
19 1325 m 1,0,-1
 353 1774 l 1,1,-1
 562 1574 l 1,2,3
 532.122 1517.56 532.122 1517.56 384.5 1392 c 0,4,5
 224.449 1255.86 224.449 1255.86 143 1226 c 1,6,-1
 19 1325 l 1,0,-1
EndSplineSet
EndChar

StartChar: paragraph
Encoding: 182 182 110
Width: 1364
Flags: HW
LayerCount: 2
Fore
SplineSet
442 678 m 1,0,1
 283.3 681.968 283.3 681.968 182.5 795.5 c 0,2,3
 79.8857 911.076 79.8857 911.076 79.8857 1084.51 c 0,4,5
 79.8857 1420.47 79.8857 1420.47 417 1531 c 0,6,7
 539 1571 539 1571 716 1571 c 0,8,9
 800.571 1571 800.571 1571 888.786 1564.5 c 0,10,11
 1058.43 1552 1058.43 1552 1110 1552 c 2,12,-1
 1458 1552 l 1,13,-1
 1433 1360 l 1,14,-1
 1266 1327 l 1,15,-1
 1091 0 l 1,16,-1
 812 0 l 1,17,-1
 983 1322 l 1,18,-1
 789 1322 l 1,19,-1
 616 0 l 1,20,-1
 340 0 l 1,21,-1
 442 678 l 1,0,1
EndSplineSet
EndChar

StartChar: cedilla
Encoding: 184 184 112
Width: 484
Flags: HW
LayerCount: 2
Fore
SplineSet
217.5 -187.5 m 128,-1,1
 232 -163 232 -163 233.818 -129.591 c 128,-1,2
 235.636 -96.1818 235.636 -96.1818 235.636 -50.3636 c 128,-1,3
 235.636 -4.54547 235.636 -4.54547 227 30 c 1,4,-1
 327 34 l 1,5,-1
 416 30 l 1,6,7
 449.925 -17.4953 449.925 -17.4953 472 -166.5 c 0,8,9
 478 -207 478 -207 478 -247.5 c 128,-1,10
 478 -288 478 -288 462 -330.5 c 128,-1,11
 446 -373 446 -373 410.5 -404 c 0,12,13
 333.774 -471 333.774 -471 177 -471 c 0,14,15
 95.8333 -471 95.8333 -471 20.9167 -456.5 c 128,-1,16
 -54 -442 -54 -442 -63 -436 c 1,17,-1
 -27 -233 l 1,18,19
 7.66667 -249 7.66667 -249 49.3333 -249 c 128,-1,20
 91 -249 91 -249 123 -244 c 128,-1,21
 155 -239 155 -239 179 -225.5 c 128,-1,0
 203 -212 203 -212 217.5 -187.5 c 128,-1,1
EndSplineSet
EndChar

StartChar: questiondown
Encoding: 191 191 114
Width: 1068
Flags: HW
LayerCount: 2
Fore
SplineSet
679.5 1114 m 128,-1,1
 641 1096 641 1096 595 1096 c 128,-1,2
 549 1096 549 1096 518 1108 c 128,-1,3
 487 1120 487 1120 468 1140.5 c 0,4,5
 432 1179.34 432 1179.34 432 1236.67 c 128,-1,6
 432 1294 432 1294 447 1334.5 c 128,-1,7
 462 1375 462 1375 490 1403.5 c 0,8,9
 548.456 1463 548.456 1463 633.228 1463 c 128,-1,10
 718 1463 718 1463 759.5 1420.5 c 128,-1,11
 801 1378 801 1378 801 1323.5 c 128,-1,12
 801 1269 801 1269 786.5 1230 c 128,-1,13
 772 1191 772 1191 745 1161.5 c 128,-1,0
 718 1132 718 1132 679.5 1114 c 128,-1,1
46 86.5 m 0,14,15
 46 178 46 178 71.5 246.5 c 128,-1,16
 97 315 97 315 138.5 367 c 128,-1,17
 180 419 180 419 233 457.5 c 128,-1,18
 286 496 286 496 341.5 527 c 2,19,-1
 450 585.5 l 1,20,21
 567.664 646.552 567.664 646.552 611.5 705 c 0,22,23
 637 739 637 739 637 770.5 c 128,-1,24
 637 802 637 802 631.5 819.5 c 128,-1,25
 626 837 626 837 619 853 c 2,26,-1
 605.5 882.5 l 2,27,28
 599 896 599 896 596 905 c 1,29,-1
 763 971 l 1,30,-1
 780 970 l 1,31,32
 856.339 917.951 856.339 917.951 892 798 c 0,33,34
 903 761 903 761 903 721.5 c 128,-1,35
 903 682 903 682 892.5 644.5 c 128,-1,36
 882 607 882 607 854.5 572 c 0,37,38
 801.118 504.059 801.118 504.059 651 429 c 1,39,40
 442.102 335.356 442.102 335.356 390 251 c 1,41,42
 367 189.667 367 189.667 367 135.833 c 128,-1,43
 367 82 367 82 388 44 c 128,-1,44
 409 6 409 6 448.5 -22.5 c 0,45,46
 533.737 -84 533.737 -84 671 -84 c 0,47,48
 789.286 -84 789.286 -84 878 -61 c 1,49,-1
 822 -291 l 1,50,51
 780.191 -326.376 780.191 -326.376 669.5 -340 c 0,52,53
 637 -344 637 -344 607 -344 c 0,54,55
 327.626 -344 327.626 -344 180.5 -220.5 c 0,56,57
 46 -107.599 46 -107.599 46 86.5 c 0,14,15
EndSplineSet
EndChar

StartChar: Eth
Encoding: 208 208 115
Width: 1438
Flags: HW
LayerCount: 2
Fore
SplineSet
460 1532 m 1,0,-1
 847 1548 l 1,1,2
 1428 1548 1428 1548 1428 934 c 0,3,4
 1428 537.471 1428 537.471 1220 274.5 c 0,5,6
 1076.2 92.693 1076.2 92.693 843.5 22 c 0,7,8
 725 -14 725 -14 582 -14 c 0,9,10
 536 -14 536 -14 461 -9 c 0,11,12
 296 2 296 2 229 2 c 2,13,-1
 85 2 l 1,14,-1
 181 673 l 1,15,-1
 29 673 l 1,16,-1
 54 924 l 1,17,-1
 217 924 l 1,18,-1
 304 1532 l 1,19,-1
 460 1532 l 1,0,-1
477 266 m 1,20,21
 540 245 540 245 641.5 245 c 128,-1,22
 743 245 743 245 824 300.5 c 128,-1,23
 905 356 905 356 958.5 450.5 c 0,24,25
 1064 636.85 1064 636.85 1064 939 c 0,26,27
 1064 1139.55 1064 1139.55 993.5 1217 c 0,28,29
 929.782 1287 929.782 1287 774 1287 c 0,30,31
 686 1287 686 1287 621 1274 c 1,32,-1
 571 924 l 1,33,-1
 865 924 l 1,34,-1
 839 673 l 1,35,-1
 535 673 l 1,36,-1
 477 266 l 1,20,21
EndSplineSet
EndChar

StartChar: multiply
Encoding: 215 215 116
Width: 1397
Flags: HW
LayerCount: 2
Fore
SplineSet
166 454 m 1,0,-1
 551 790 l 1,1,-1
 238 1127 l 1,2,-1
 447 1312 l 1,3,-1
 738 951 l 1,4,-1
 1117 1312 l 1,5,-1
 1290 1105 l 1,6,-1
 897 769 l 1,7,-1
 1218 432 l 1,8,-1
 1009 247 l 1,9,-1
 710 608 l 1,10,-1
 339 248 l 1,11,-1
 166 454 l 1,0,-1
EndSplineSet
EndChar

StartChar: Thorn
Encoding: 222 222 117
Width: 1306
Flags: HW
LayerCount: 2
Fore
SplineSet
631 258 m 0,0,1
 583 258 583 258 475 270 c 1,2,-1
 437 0 l 1,3,-1
 76 0 l 1,4,-1
 291 1530 l 1,5,-1
 651 1530 l 1,6,-1
 616 1283 l 1,7,8
 696 1288 696 1288 749 1288 c 0,9,10
 1007 1288 1007 1288 1146.5 1180.5 c 128,-1,11
 1286 1073 1286 1073 1287 863 c 1,12,13
 1287 602.982 1287 602.982 1118.5 436.5 c 0,14,15
 937.836 258 937.836 258 631 258 c 0,0,1
686.25 1042 m 0,16,17
 612.5 1042 612.5 1042 585 1037 c 1,18,-1
 582 1040 l 1,19,-1
 512 534 l 1,20,21
 556 523 556 523 637 523 c 0,22,23
 781 523 781 523 856 605 c 0,24,25
 940.621 697.519 940.621 697.519 940.621 851.848 c 0,26,27
 940.621 1042 940.621 1042 686.25 1042 c 0,16,17
EndSplineSet
EndChar

StartChar: germandbls
Encoding: 223 223 118
Width: 1329
Flags: HW
LayerCount: 2
Fore
SplineSet
754 226 m 0,0,1
 909 226 909 226 909 345 c 0,2,3
 909 408.222 909 408.222 839 486 c 0,4,5
 742.491 593.232 742.491 593.232 703 713.5 c 0,6,7
 692 747 692 747 692 781.5 c 128,-1,8
 692 816 692 816 703.5 847 c 128,-1,9
 715 878 715 878 733.5 906 c 0,10,11
 761.737 948.737 761.737 948.737 822 1009 c 1,12,13
 956 1125.71 956 1125.71 956 1247 c 0,14,15
 956 1324.86 956 1324.86 878 1354.5 c 0,16,17
 853 1364 853 1364 813 1364 c 128,-1,18
 773 1364 773 1364 727.5 1337.5 c 128,-1,19
 682 1311 682 1311 643.5 1252 c 0,20,21
 560.293 1124.49 560.293 1124.49 530 867 c 1,22,-1
 412 0 l 1,23,-1
 65 0 l 1,24,-1
 189 927 l 1,25,26
 248.547 1333 248.547 1333 465.5 1481 c 0,27,28
 585.482 1562.85 585.482 1562.85 737 1578 c 0,29,30
 807 1585 807 1585 885.5 1585 c 128,-1,31
 964 1585 964 1585 1039.5 1565 c 128,-1,32
 1115 1545 1115 1545 1169.5 1506.5 c 0,33,34
 1284 1425.61 1284 1425.61 1284 1283 c 0,35,36
 1284 1103.34 1284 1103.34 1165.5 996.5 c 1,37,-1
 1108.5 943.5 l 1,38,39
 1047 884.321 1047 884.321 1047 829 c 0,40,41
 1047 778.97 1047 778.97 1077.5 729.985 c 128,-1,42
 1108 681 1108 681 1132 649 c 128,-1,43
 1156 617 1156 617 1178.5 583.5 c 128,-1,44
 1201 550 1201 550 1218.5 511.5 c 0,45,46
 1258 424.6 1258 424.6 1258 335.8 c 128,-1,47
 1258 247 1258 247 1227 182 c 128,-1,48
 1196 117 1196 117 1139 73 c 0,49,50
 1023.7 -16 1023.7 -16 828.741 -16 c 128,-1,51
 633.778 -16 633.778 -16 545 31 c 1,52,-1
 569 295 l 1,53,54
 610.66 249.868 610.66 249.868 702.5 231.5 c 0,55,56
 730 226 730 226 754 226 c 0,0,1
EndSplineSet
EndChar

StartChar: eth
Encoding: 240 240 119
Width: 1212
Flags: HW
LayerCount: 2
Fore
SplineSet
428 1814 m 1,0,1
 586.696 1773.85 586.696 1773.85 737 1668 c 1,2,-1
 871 1821 l 1,3,-1
 989 1706 l 1,4,-1
 863 1566 l 1,5,6
 1007.59 1423.27 1007.59 1423.27 1082 1205.5 c 0,7,8
 1146 1018.21 1146 1018.21 1146 823.603 c 128,-1,9
 1146 629 1146 629 1106.5 479.5 c 128,-1,10
 1067 330 1067 330 988 220 c 0,11,12
 818.509 -16 818.509 -16 516 -16 c 0,13,14
 299.927 -16 299.927 -16 175.5 123 c 0,15,16
 66 245.324 66 245.324 66 420.162 c 128,-1,17
 66 595 66 595 105.5 731 c 128,-1,18
 145 867 145 867 217.5 962 c 0,19,20
 367.079 1158 367.079 1158 621 1158 c 0,21,22
 750.524 1158 750.524 1158 802 1111 c 1,23,24
 795.716 1255.52 795.716 1255.52 704 1388 c 1,25,-1
 602 1275 l 1,26,-1
 476 1389 l 1,27,-1
 595 1510 l 1,28,29
 495.583 1599.06 495.583 1599.06 368 1635 c 1,30,-1
 428 1814 l 1,0,1
500.5 200 m 128,-1,32
 520 182 520 182 551.5 182 c 128,-1,33
 583 182 583 182 616.5 211 c 128,-1,34
 650 240 650 240 677 290 c 0,35,36
 741.886 410.16 741.886 410.16 765 649 c 2,37,-1
 771 713.5 l 2,38,39
 774 747 774 747 776 777 c 2,40,-1
 779.5 831.5 l 2,41,42
 781.095 857.555 781.095 857.555 781.095 873.159 c 128,-1,43
 781.095 888.762 781.095 888.762 772.048 906.381 c 128,-1,44
 763 924 763 924 744 939.5 c 0,45,46
 700.484 975 700.484 975 653.242 975 c 128,-1,47
 606 975 606 975 577.5 950.5 c 128,-1,48
 549 926 549 926 527 884 c 128,-1,49
 505 842 505 842 488.5 786 c 128,-1,50
 472 730 472 730 461.5 667.5 c 0,51,52
 440 539.524 440 539.524 440 451.262 c 128,-1,53
 440 363 440 363 447 321 c 128,-1,54
 454 279 454 279 467.5 248.5 c 128,-1,31
 481 218 481 218 500.5 200 c 128,-1,32
EndSplineSet
EndChar

StartChar: oslash
Encoding: 248 248 120
Width: 1180
Flags: HW
LayerCount: 2
Fore
SplineSet
486.5 -14 m 0,0,1
 387 -14 387 -14 317 14 c 1,2,-1
 226 -132 l 1,3,-1
 137 -83 l 1,4,-1
 229 62 l 1,5,6
 65 187.86 65 187.86 65 471 c 0,7,8
 65 758.802 65 758.802 225 950.5 c 0,9,10
 398.189 1158 398.189 1158 701 1158 c 0,11,12
 788.308 1158 788.308 1158 861 1131 c 1,13,-1
 959 1303 l 1,14,-1
 1048 1254 l 1,15,-1
 950 1083 l 1,16,17
 1116 955.605 1116 955.605 1116 673 c 0,18,19
 1116 384 1116 384 957 193.5 c 0,20,21
 783.811 -14 783.811 -14 486.5 -14 c 0,0,1
709 919 m 1,22,23
 685 944 685 944 646 944 c 128,-1,24
 607 944 607 944 574.5 921.5 c 128,-1,25
 542 899 542 899 516.5 861 c 128,-1,26
 491 823 491 823 472.5 772 c 128,-1,27
 454 721 454 721 442 664 c 0,28,29
 419 554.75 419 554.75 419 472.375 c 128,-1,30
 419 390 419 390 422 357 c 1,31,-1
 709 919 l 1,22,23
464 229 m 1,32,33
 489 200 489 200 529.5 200 c 128,-1,34
 570 200 570 200 603.5 221 c 128,-1,35
 637 242 637 242 662.5 279 c 128,-1,36
 688 316 688 316 706 365.5 c 128,-1,37
 724 415 724 415 735.5 471 c 0,38,39
 758 580.565 758 580.565 758 655.283 c 0,40,41
 758 752 758 752 754 788 c 1,42,-1
 464 229 l 1,32,33
EndSplineSet
EndChar

StartChar: thorn
Encoding: 254 254 121
Width: 1290
Flags: HW
LayerCount: 2
Fore
SplineSet
731.5 13 m 0,0,1
 634 -16 634 -16 549 -16 c 128,-1,2
 464 -16 464 -16 412 -6 c 1,3,-1
 402 -142 l 1,4,-1
 362 -492 l 1,5,-1
 8 -492 l 1,6,-1
 301 1634 l 1,7,-1
 644 1634 l 1,8,-1
 559 976 l 1,9,-1
 538 855 l 1,10,11
 611.321 1050.52 611.321 1050.52 759 1127 c 0,12,13
 815 1156 815 1156 896.5 1156 c 128,-1,14
 978 1156 978 1156 1042.5 1121 c 128,-1,15
 1107 1086 1107 1086 1146.5 1026.5 c 0,16,17
 1220 915.785 1220 915.785 1220 724 c 0,18,19
 1220 425.805 1220 425.805 1044 215.5 c 0,20,21
 921.935 69.6421 921.935 69.6421 731.5 13 c 0,0,1
846 703 m 0,22,23
 846 912 846 912 758 912 c 0,24,25
 660.609 912 660.609 912 559 666 c 0,26,27
 523.861 580.927 523.861 580.927 504 499 c 1,28,-1
 505 555 l 1,29,-1
 460 199 l 1,30,31
 491.667 194 491.667 194 541.833 194 c 128,-1,32
 592 194 592 194 635 215 c 128,-1,33
 678 236 678 236 712 272.5 c 128,-1,34
 746 309 746 309 771 358 c 128,-1,35
 796 407 796 407 812.5 463.5 c 0,36,37
 846 578.212 846 578.212 846 703 c 0,22,23
EndSplineSet
EndChar

StartChar: endash
Encoding: 8211 8211 122
Width: 1538
Flags: HW
LayerCount: 2
Fore
SplineSet
260 896 m 1,0,-1
 1359 896 l 1,1,-1
 1322 648 l 1,2,-1
 223 648 l 1,3,-1
 260 896 l 1,0,-1
EndSplineSet
EndChar

StartChar: emdash
Encoding: 8212 8212 123
Width: 2031
Flags: HW
LayerCount: 2
Fore
SplineSet
260 896 m 1,0,-1
 1832 896 l 1,1,-1
 1795 648 l 1,2,-1
 223 648 l 1,3,-1
 260 896 l 1,0,-1
EndSplineSet
EndChar

StartChar: quoteleft
Encoding: 8216 8216 124
Width: 709
Flags: HW
LayerCount: 2
Fore
SplineSet
388 887 m 1,0,1
 269.17 954.337 269.17 954.337 223 1110.5 c 0,2,3
 206 1168 206 1168 206 1257 c 128,-1,4
 206 1346 206 1346 241 1434 c 128,-1,5
 276 1522 276 1522 329 1589.5 c 0,6,7
 427.048 1714.37 427.048 1714.37 560 1771 c 1,8,-1
 675 1630 l 1,9,-1
 673 1608 l 1,10,11
 615.228 1579.11 615.228 1579.11 572 1501.5 c 0,12,13
 523 1413.52 523 1413.52 523 1301 c 0,14,15
 523 1202.52 523 1202.52 561.5 1120.5 c 0,16,17
 573 1096 573 1096 585 1084 c 1,18,-1
 580 1043 l 1,19,-1
 388 887 l 1,0,1
EndSplineSet
EndChar

StartChar: dagger
Encoding: 8224 8224 130
Width: 815
Flags: HW
LayerCount: 2
Fore
SplineSet
245 151 m 1,0,-1
 362 1063 l 1,1,-1
 123 1063 l 1,2,-1
 157 1277 l 1,3,-1
 407 1277 l 1,4,-1
 429 1469 l 1,5,-1
 453 1646 l 1,6,-1
 703 1646 l 1,7,-1
 673 1469 l 1,8,-1
 632 1277 l 1,9,-1
 885 1277 l 1,10,-1
 852 1063 l 1,11,-1
 611 1063 l 1,12,-1
 595 944 l 1,13,-1
 462 151 l 1,14,-1
 245 151 l 1,0,-1
EndSplineSet
EndChar

StartChar: bullet
Encoding: 8226 8226 131
Width: 858
Flags: HW
LayerCount: 2
Fore
SplineSet
512.5 530.5 m 128,-1,1
 466 507 466 507 418.5 507 c 128,-1,2
 371 507 371 507 339 521 c 128,-1,3
 307 535 307 535 283.5 559 c 0,4,5
 233 610.574 233 610.574 233 669.287 c 128,-1,6
 233 728 233 728 252 773.5 c 128,-1,7
 271 819 271 819 305 856 c 0,8,9
 381.27 939 381.27 939 484 939 c 0,10,11
 559.435 939 559.435 939 609.5 890 c 0,12,13
 660 840.574 660 840.574 660 781.287 c 128,-1,14
 660 722 660 722 642.5 675.5 c 128,-1,15
 625 629 625 629 592 591.5 c 128,-1,0
 559 554 559 554 512.5 530.5 c 128,-1,1
EndSplineSet
EndChar

StartChar: mu
Encoding: 181 181 134
Width: 1364
Flags: HW
LayerCount: 2
Fore
SplineSet
521.231 377.695 m 0,0,1
 521.231 241 521.231 241 626 241 c 0,2,3
 673.4 241 673.4 241 714.2 275 c 0,4,5
 793.199 340.833 793.199 340.833 802 413 c 2,6,-1
 896 1140 l 1,7,-1
 1248 1140 l 1,8,-1
 1139 278 l 2,9,10
 1134 239 1134 239 1145 217 c 128,-1,11
 1156 195 1156 195 1171 195 c 128,-1,12
 1186 195 1186 195 1201.5 201.5 c 128,-1,13
 1217 208 1217 208 1232 218 c 0,14,15
 1263.14 238.762 1263.14 238.762 1282 266 c 1,16,-1
 1360 133 l 1,17,-1
 1309.5 83.5 l 1,18,19
 1204.17 -18 1204.17 -18 1044 -18 c 0,20,21
 961.968 -18 961.968 -18 926.484 4 c 0,22,23
 862.976 43.3747 862.976 43.3747 848 122 c 1,24,25
 765 -16 765 -16 627 -16 c 0,26,27
 542.733 -16 542.733 -16 486 21 c 0,28,29
 463 36 463 36 450 60 c 1,30,-1
 386 -372 l 1,31,-1
 51 -372 l 1,32,-1
 216 801 l 2,33,34
 226.207 872.448 226.207 872.448 204 901 c 0,35,36
 197 910 197 910 187 910 c 0,37,38
 146 910 146 910 100 864 c 1,39,-1
 52 1029 l 1,40,41
 115.474 1092.47 115.474 1092.47 266 1139 c 0,42,43
 321 1156 321 1156 373.5 1156 c 128,-1,44
 426 1156 426 1156 467 1144.5 c 0,45,46
 590.8 1109.78 590.8 1109.78 590.8 984.495 c 0,47,48
 590.8 969.9 590.8 969.9 589 954 c 2,49,-1
 525 435 l 2,50,51
 521.231 403.231 521.231 403.231 521.231 377.695 c 0,0,1
EndSplineSet
EndChar

StartChar: logicalnot
Encoding: 172 172 136
Width: 1370
Flags: HW
LayerCount: 2
Fore
SplineSet
228 853 m 1,0,-1
 1188 853 l 1,1,-1
 1126 322 l 1,2,-1
 869 322 l 1,3,-1
 905 626 l 1,4,-1
 202 626 l 1,5,-1
 228 853 l 1,0,-1
EndSplineSet
EndChar

StartChar: yen
Encoding: 165 165 137
Width: 1469
Flags: HW
LayerCount: 2
Fore
SplineSet
125 506 m 1,0,-1
 532 506 l 1,1,-1
 554 680 l 1,2,-1
 146 680 l 1,3,-1
 165 862 l 1,4,-1
 483 862 l 1,5,-1
 224 1530 l 1,6,-1
 579 1530 l 1,7,-1
 746 971 l 1,8,-1
 774 862 l 1,9,-1
 820 971 l 1,10,-1
 1095 1530 l 1,11,-1
 1517 1530 l 1,12,-1
 1056 862 l 1,13,-1
 1360 862 l 1,14,-1
 1341 680 l 1,15,-1
 931 680 l 1,16,-1
 906 506 l 1,17,-1
 1317 506 l 1,18,-1
 1301 324 l 1,19,-1
 880 324 l 1,20,-1
 835 0 l 1,21,-1
 468 0 l 1,22,-1
 509 324 l 1,23,-1
 106 324 l 1,24,-1
 125 506 l 1,0,-1
EndSplineSet
EndChar

StartChar: divide
Encoding: 247 247 138
Width: 1397
Flags: HW
LayerCount: 2
Fore
SplineSet
847.5 1070.5 m 128,-1,1
 808 1055 808 1055 747.5 1055 c 128,-1,2
 687 1055 687 1055 645.5 1097.5 c 128,-1,3
 604 1140 604 1140 604 1194.5 c 128,-1,4
 604 1249 604 1249 618.5 1288 c 128,-1,5
 633 1327 633 1327 660 1356.5 c 0,6,7
 719.949 1422 719.949 1422 812 1422 c 0,8,9
 935.537 1422 935.537 1422 964.5 1330 c 0,10,11
 973 1303 973 1303 973 1263.5 c 128,-1,12
 973 1224 973 1224 958 1183.5 c 128,-1,13
 943 1143 943 1143 915 1114.5 c 128,-1,0
 887 1086 887 1086 847.5 1070.5 c 128,-1,1
260 918 m 1,14,-1
 1220 916 l 1,15,-1
 1186 653 l 1,16,-1
 224 653 l 1,17,-1
 260 918 l 1,14,-1
533.5 185.5 m 128,-1,19
 492 228 492 228 492 282.5 c 128,-1,20
 492 337 492 337 506.5 376 c 128,-1,21
 521 415 521 415 548 444.5 c 0,22,23
 607.949 510 607.949 510 700 510 c 0,24,25
 823.537 510 823.537 510 852.5 418 c 0,26,27
 861 391 861 391 861 351.5 c 128,-1,28
 861 312 861 312 846 271.5 c 128,-1,29
 831 231 831 231 803 202.5 c 0,30,31
 744.544 143 744.544 143 659.772 143 c 128,-1,18
 575 143 575 143 533.5 185.5 c 128,-1,19
EndSplineSet
EndChar

StartChar: Ccedilla
Encoding: 199 199 139
Width: 1204
Flags: HW
LayerCount: 2
Fore
SplineSet
270 -231 m 1,0,1
 304.667 -247 304.667 -247 346.333 -247 c 128,-1,2
 388 -247 388 -247 420 -242 c 128,-1,3
 452 -237 452 -237 476 -223.5 c 0,4,5
 527.274 -194.658 527.274 -194.658 531 -122 c 0,6,7
 534.661 -61.5984 534.661 -61.5984 530 -8 c 1,8,9
 230.769 38.8674 230.769 38.8674 134 343 c 0,10,11
 95 465.571 95 465.571 95 607.286 c 128,-1,12
 95 749 95 749 121.5 865.5 c 128,-1,13
 148 982 148 982 198.5 1084.5 c 128,-1,14
 249 1187 249 1187 320.5 1272 c 128,-1,15
 392 1357 392 1357 482.5 1418 c 0,16,17
 672.402 1546 672.402 1546 907 1546 c 0,18,19
 1073 1546 1073 1546 1206 1490 c 1,20,-1
 1259 1476 l 1,21,-1
 1157 1141 l 1,22,23
 1034.69 1247 1034.69 1247 870 1247 c 0,24,25
 596.217 1247 596.217 1247 497 921 c 0,26,27
 456 786.286 456 786.286 456 660.643 c 128,-1,28
 456 535 456 535 471 468.5 c 128,-1,29
 486 402 486 402 519 358 c 0,30,31
 584.25 271 584.25 271 731 271 c 0,32,33
 867 271 867 271 987 331 c 0,34,35
 1019 347 1019 347 1039 361 c 1,36,-1
 1085 112 l 1,37,38
 1004.93 54.809 1004.93 54.809 857 14 c 0,39,40
 799 -2 799 -2 733 -10 c 1,41,42
 775 -130.75 775 -130.75 775 -208.375 c 128,-1,43
 775 -286 775 -286 759 -328.5 c 128,-1,44
 743 -371 743 -371 707.5 -402 c 0,45,46
 630.774 -469 630.774 -469 474 -469 c 0,47,48
 392.833 -469 392.833 -469 317.917 -454.5 c 128,-1,49
 243 -440 243 -440 234 -434 c 1,50,-1
 270 -231 l 1,0,1
EndSplineSet
EndChar

StartChar: AE
Encoding: 198 198 140
Width: 1984
Flags: HW
LayerCount: 2
Fore
SplineSet
642 1328 m 1,0,-1
 400 1360 l 1,1,-1
 428 1530 l 1,2,-1
 1985 1530 l 1,3,-1
 1948 1255 l 1,4,-1
 1386 1257 l 1,5,-1
 1338 920 l 1,6,-1
 1757 925 l 1,7,-1
 1721 649 l 1,8,-1
 1300 658 l 1,9,-1
 1245 270 l 1,10,-1
 1878 280 l 1,11,-1
 1841 0 l 1,12,-1
 852 0 l 1,13,-1
 894 296 l 1,14,-1
 429 296 l 1,15,-1
 271 0 l 1,16,-1
 -121 0 l 1,17,-1
 642 1328 l 1,0,-1
930 547 m 1,18,-1
 1034 1270 l 1,19,-1
 954 1278 l 1,20,-1
 563 547 l 1,21,-1
 930 547 l 1,18,-1
EndSplineSet
EndChar

StartChar: cent
Encoding: 162 162 141
Width: 1077
Flags: HW
LayerCount: 2
Fore
SplineSet
346 10 m 1,0,1
 216.784 56.1486 216.784 56.1486 148.5 186 c 0,2,3
 91 295.344 91 295.344 91 435.672 c 128,-1,4
 91 576 91 576 125 691.5 c 128,-1,5
 159 807 159 807 221 897.5 c 0,6,7
 349.137 1084.54 349.137 1084.54 561 1137 c 1,8,-1
 627 1428 l 1,9,-1
 867 1428 l 1,10,-1
 803 1150 l 1,11,12
 914.497 1137.88 914.497 1137.88 970 1113 c 1,13,-1
 884 771 l 1,14,15
 826 829 826 829 770 853.5 c 128,-1,16
 714 878 714 878 677 878 c 128,-1,17
 640 878 640 878 598 855.5 c 128,-1,18
 556 833 556 833 524.5 786 c 0,19,20
 455 682.302 455 682.302 455 498 c 0,21,22
 455 363.152 455 363.152 478.5 317.576 c 128,-1,23
 502 272 502 272 530.5 256.5 c 128,-1,24
 559 241 559 241 595.5 241 c 128,-1,25
 632 241 632 241 667 252 c 128,-1,26
 702 263 702 263 734 280.5 c 0,27,28
 801.892 317.628 801.892 317.628 836 356 c 1,29,-1
 925 185 l 1,30,31
 848.634 72.4601 848.634 72.4601 706 18 c 0,32,33
 651 -3 651 -3 582 -11 c 1,34,-1
 534 -275 l 1,35,-1
 294 -275 l 1,36,-1
 346 10 l 1,0,1
EndSplineSet
EndChar

StartChar: ae
Encoding: 230 230 142
Width: 1770
Flags: HW
LayerCount: 2
Fore
SplineSet
1084 1090 m 1,0,1
 1220.12 1156 1220.12 1156 1374 1156 c 0,2,3
 1631.14 1156 1631.14 1156 1694 1002 c 0,4,5
 1714 953 1714 953 1714 867 c 128,-1,6
 1714 781 1714 781 1666 699 c 128,-1,7
 1618 617 1618 617 1535.5 557.5 c 0,8,9
 1391.31 453.509 1391.31 453.509 1107 383 c 1,10,11
 1107 304.375 1107 304.375 1129 276.188 c 0,12,13
 1168.17 226 1168.17 226 1252 226 c 0,14,15
 1339.73 226 1339.73 226 1443 283.5 c 0,16,17
 1533.79 334.054 1533.79 334.054 1575 389 c 1,18,-1
 1667 218 l 1,19,20
 1610.68 136.075 1610.68 136.075 1490.5 69 c 0,21,22
 1338.21 -16 1338.21 -16 1164 -16 c 0,23,24
 907.097 -16 907.097 -16 797 172.5 c 0,25,26
 764 229 764 229 748 294 c 1,27,28
 657.439 86.464 657.439 86.464 512.5 12 c 0,29,30
 458 -16 458 -16 378.5 -16 c 128,-1,31
 299 -16 299 -16 236.5 18.5 c 128,-1,32
 174 53 174 53 136.5 111.5 c 0,33,34
 68 218.36 68 218.36 68 412 c 0,35,36
 68 602 68 602 151.5 769 c 0,37,38
 287.479 1040.96 287.479 1040.96 590.5 1126.5 c 0,39,40
 695 1156 695 1156 835.286 1156 c 128,-1,41
 975.571 1156 975.571 1156 1084 1090 c 1,0,1
1102 561 m 1,42,43
 1197.63 567.52 1197.63 567.52 1280 652 c 0,44,45
 1370 744.308 1370 744.308 1370 859 c 0,46,47
 1370 912 1370 912 1352.5 936 c 128,-1,48
 1335 960 1335 960 1299 960 c 128,-1,49
 1263 960 1263 960 1236.5 940 c 128,-1,50
 1210 920 1210 920 1189 887.5 c 128,-1,51
 1168 855 1168 855 1152 813 c 128,-1,52
 1136 771 1136 771 1125 726.5 c 0,53,54
 1104.34 642.924 1104.34 642.924 1102 561 c 1,42,43
890 934 m 1,55,56
 838 946 838 946 787 946 c 128,-1,57
 736 946 736 946 686 924.5 c 128,-1,58
 636 903 636 903 596.5 866.5 c 128,-1,59
 557 830 557 830 527.5 780 c 128,-1,60
 498 730 498 730 478.5 673 c 0,61,62
 440 560.462 440 560.462 440 445.731 c 128,-1,63
 440 331 440 331 457 288.5 c 128,-1,64
 474 246 474 246 509.5 246 c 128,-1,65
 545 246 545 246 578 274.5 c 128,-1,66
 611 303 611 303 643 349.5 c 0,67,68
 715.599 454.996 715.599 454.996 741 582 c 1,69,70
 772.699 792.004 772.699 792.004 890 934 c 1,55,56
EndSplineSet
EndChar

StartChar: Lslash
Encoding: 321 321 143
Width: 1080
Flags: HW
LayerCount: 2
Fore
SplineSet
161 538 m 1,0,-1
 27 493 l 1,1,-1
 -31 677 l 1,2,-1
 192 755 l 1,3,-1
 303 1532 l 1,4,-1
 657 1532 l 1,5,-1
 564 885 l 1,6,-1
 927 1013 l 1,7,-1
 984 820 l 1,8,-1
 532 665 l 1,9,-1
 477 279 l 1,10,-1
 974 290 l 1,11,-1
 932 2 l 1,12,-1
 84 2 l 1,13,-1
 161 538 l 1,0,-1
EndSplineSet
EndChar

StartChar: circumflex
Encoding: 710 710 144
Width: 803
Flags: HW
LayerCount: 2
Fore
SplineSet
35 1296 m 1,0,-1
 406 1670 l 1,1,-1
 586 1670 l 1,2,-1
 798 1296 l 1,3,-1
 643 1228 l 1,4,-1
 463 1402 l 1,5,-1
 173 1229 l 1,6,-1
 35 1296 l 1,0,-1
EndSplineSet
EndChar

StartChar: caron
Encoding: 711 711 145
Width: 802
Flags: HW
LayerCount: 2
Fore
SplineSet
35 1602 m 1,0,-1
 161 1670 l 1,1,-1
 374 1480 l 1,2,-1
 650 1669 l 1,3,-1
 798 1602 l 1,4,-1
 426 1228 l 1,5,-1
 247 1228 l 1,6,-1
 35 1602 l 1,0,-1
EndSplineSet
EndChar

StartChar: breve
Encoding: 728 728 146
Width: 724
Flags: HW
LayerCount: 2
Fore
SplineSet
237 1681 m 1,0,1
 233 1659 233 1659 233 1632.5 c 128,-1,2
 233 1606 233 1606 239 1583.5 c 128,-1,3
 245 1561 245 1561 261 1546.5 c 0,4,5
 293.552 1517 293.552 1517 377 1517 c 256,6,7
 491.847 1517 491.847 1517 525.5 1621.5 c 0,8,9
 535 1651 535 1651 540 1681 c 1,10,-1
 724 1681 l 1,11,12
 725 1673 725 1673 725 1664 c 2,13,-1
 725 1647 l 2,14,15
 725 1511.19 725 1511.19 638.5 1414 c 0,16,17
 537.04 1300 537.04 1300 361 1300 c 0,18,19
 108.119 1300 108.119 1300 54 1473.5 c 0,20,21
 37 1528 37 1528 37 1566.5 c 128,-1,22
 37 1605 37 1605 38 1616.5 c 128,-1,23
 39 1628 39 1628 41 1640 c 2,24,-1
 45 1663 l 2,25,26
 47 1674 47 1674 49 1681 c 1,27,-1
 237 1681 l 1,0,1
EndSplineSet
EndChar

StartChar: ring
Encoding: 730 730 147
Width: 729
Flags: HW
LayerCount: 2
Fore
SplineSet
502 1272 m 128,-1,1
 434 1253 434 1253 363.5 1253 c 128,-1,2
 293 1253 293 1253 235.5 1269 c 128,-1,3
 178 1285 178 1285 137 1316 c 0,4,5
 52 1380.27 52 1380.27 52 1482.63 c 128,-1,6
 52 1585 52 1585 91 1644 c 128,-1,7
 130 1703 130 1703 188.5 1738.5 c 0,8,9
 296.437 1804 296.437 1804 442 1804 c 0,10,11
 657.034 1804 657.034 1804 725 1672.5 c 0,12,13
 748 1628 748 1628 748 1557.5 c 128,-1,14
 748 1487 748 1487 714 1428 c 128,-1,15
 680 1369 680 1369 625 1330 c 128,-1,0
 570 1291 570 1291 502 1272 c 128,-1,1
429.061 1664 m 128,-1,17
 388 1664 388 1664 358 1656.5 c 128,-1,18
 328 1649 328 1649 303.5 1632.5 c 0,19,20
 248 1595.12 248 1595.12 248 1520 c 0,21,22
 248 1467.8 248 1467.8 292 1431.5 c 0,23,24
 335.03 1396 335.03 1396 375.515 1396 c 0,25,26
 457 1396 457 1396 505 1428 c 128,-1,27
 553 1460 553 1460 553 1526.01 c 128,-1,28
 553 1592.03 553 1592.03 511.561 1628.01 c 128,-1,16
 470.121 1664 470.121 1664 429.061 1664 c 128,-1,17
EndSplineSet
EndChar

StartChar: tilde
Encoding: 732 732 148
Width: 824
Flags: HW
LayerCount: 2
Fore
SplineSet
-44 1501 m 1,0,1
 -8.35652 1572.29 -8.35652 1572.29 84 1633.5 c 0,2,3
 181.316 1698 181.316 1698 262 1698 c 0,4,5
 360.575 1698 360.575 1698 439.5 1621 c 0,6,7
 488.6 1573.1 488.6 1573.1 515.8 1558.55 c 128,-1,8
 543 1544 543 1544 572.5 1544 c 128,-1,9
 602 1544 602 1544 626.5 1554 c 128,-1,10
 651 1564 651 1564 671.5 1579.5 c 128,-1,11
 692 1595 692 1595 708.5 1614.5 c 2,12,-1
 741 1654 l 1,13,-1
 860 1509 l 1,14,15
 828.463 1433.31 828.463 1433.31 739.5 1369 c 0,16,17
 644.05 1300 644.05 1300 560 1300 c 0,18,19
 447.4 1300 447.4 1300 369.5 1376 c 0,20,21
 321.051 1423.27 321.051 1423.27 290.026 1438.13 c 128,-1,22
 259 1453 259 1453 229.5 1453.5 c 128,-1,23
 200 1454 200 1454 177.5 1446.5 c 128,-1,24
 155 1439 155 1439 134.5 1426.5 c 128,-1,25
 114 1414 114 1414 96 1397.5 c 2,26,-1
 62 1365 l 1,27,-1
 -44 1501 l 1,0,1
EndSplineSet
EndChar

StartChar: hungarumlaut
Encoding: 733 733 149
Width: 926
Flags: HW
LayerCount: 2
Fore
SplineSet
629 1306 m 1,0,-1
 898 1753 l 1,1,-1
 1114 1610 l 1,2,3
 1093.18 1532.68 1093.18 1532.68 965.5 1394.5 c 0,4,5
 842.738 1261.65 842.738 1261.65 759 1223 c 1,6,-1
 629 1306 l 1,0,-1
141 1306 m 1,7,-1
 405 1753 l 1,8,-1
 615 1616 l 1,9,10
 593.37 1535.66 593.37 1535.66 475.5 1399 c 0,11,12
 354.573 1258.8 354.573 1258.8 280 1223 c 1,13,-1
 141 1306 l 1,7,-1
EndSplineSet
EndChar

StartChar: ogonek
Encoding: 731 731 150
Width: 651
Flags: HW
LayerCount: 2
Fore
SplineSet
533 -326 m 1,0,1
 379 -480 379 -480 186 -480 c 0,2,3
 88 -480 88 -480 39.5 -432.5 c 128,-1,4
 -9 -385 -9 -385 -9 -322.5 c 128,-1,5
 -9 -260 -9 -260 11 -218 c 128,-1,6
 31 -176 31 -176 63 -140 c 128,-1,7
 95 -104 95 -104 135 -73.5 c 128,-1,8
 175 -43 175 -43 214 -19.5 c 0,9,10
 286.102 23.9463 286.102 23.9463 344 45 c 1,11,-1
 407 59 l 1,12,-1
 529 38 l 1,13,14
 275 -121.373 275 -121.373 275 -215 c 0,15,16
 275 -287 275 -287 342 -287 c 0,17,18
 384 -287 384 -287 419 -266 c 128,-1,19
 454 -245 454 -245 497 -212 c 1,20,-1
 533 -326 l 1,0,1
EndSplineSet
EndChar

StartChar: Eogonek
Encoding: 280 280 151
Width: 1216
Flags: HW
LayerCount: 2
Fore
SplineSet
1095 -387 m 1,0,1
 975.905 -510 975.905 -510 766 -510 c 0,2,3
 671.755 -510 671.755 -510 611 -452.5 c 0,4,5
 553 -397.607 553 -397.607 553 -329.804 c 128,-1,6
 553 -262 553 -262 582.5 -211.5 c 128,-1,7
 612 -161 612 -161 654.5 -119 c 0,8,9
 736.22 -38.2419 736.22 -38.2419 828 0 c 1,10,-1
 84 0 l 1,11,-1
 303 1530 l 1,12,-1
 1217 1530 l 1,13,-1
 1180 1255 l 1,14,-1
 618 1257 l 1,15,-1
 570 920 l 1,16,-1
 989 925 l 1,17,-1
 953 649 l 1,18,-1
 532 658 l 1,19,-1
 477 270 l 1,20,-1
 1110 280 l 1,21,-1
 1073 1 l 1,22,-1
 1080 0 l 1,23,24
 915.93 -67.5581 915.93 -67.5581 853.5 -154 c 0,25,26
 834 -181 834 -181 834 -205 c 0,27,28
 834 -277 834 -277 902.636 -277 c 128,-1,29
 971.273 -277 971.273 -277 1054 -212 c 1,30,-1
 1095 -387 l 1,0,1
EndSplineSet
EndChar

StartChar: twosuperior
Encoding: 178 178 153
Width: 1163
Flags: HW
LayerCount: 2
Fore
SplineSet
619 1411 m 0,0,1
 443.444 1411 443.444 1411 340 1313 c 1,2,-1
 228 1458 l 1,3,4
 279.194 1527.81 279.194 1527.81 401.5 1582.5 c 0,5,6
 545.745 1647 545.745 1647 662.873 1647 c 128,-1,7
 780 1647 780 1647 852 1627 c 128,-1,8
 924 1607 924 1607 973.5 1569.5 c 0,9,10
 1075 1492.61 1075 1492.61 1075 1358 c 0,11,12
 1075 1219.69 1075 1219.69 953.5 1052.5 c 0,13,14
 823.276 873.302 823.276 873.302 624 766 c 1,15,-1
 1089 792 l 1,16,-1
 1072 546 l 1,17,-1
 224 546 l 1,18,-1
 151 721 l 1,19,20
 312.802 807.82 312.802 807.82 503.5 980.5 c 0,21,22
 731 1186.5 731 1186.5 731 1298.75 c 128,-1,23
 731 1411 731 1411 619 1411 c 0,0,1
EndSplineSet
EndChar

StartChar: onesuperior
Encoding: 185 185 154
Width: 1020
Flags: HW
LayerCount: 2
Fore
SplineSet
526 1360 m 1,0,-1
 295 1308 l 1,1,-1
 282 1466 l 1,2,3
 426.121 1503.06 426.121 1503.06 598.5 1588 c 0,4,5
 669.169 1622.82 669.169 1622.82 698 1645 c 1,6,-1
 867 1624 l 1,7,-1
 719 546 l 1,8,-1
 414 546 l 1,9,-1
 526 1360 l 1,0,-1
EndSplineSet
EndChar

StartChar: fraction
Encoding: 8260 8260 155
Width: 1026
Flags: HW
LayerCount: 2
Fore
SplineSet
760 1530 m 1,0,-1
 1019 1530 l 1,1,-1
 338 0 l 1,2,-1
 79 0 l 1,3,-1
 760 1530 l 1,0,-1
EndSplineSet
EndChar

StartChar: foursuperior
Encoding: 8308 8308 157
Width: 1264
Flags: HW
LayerCount: 2
Fore
SplineSet
52 832 m 1,0,-1
 602 1758 l 1,1,-1
 670 1759 l 1,2,-1
 883 1655 l 1,3,-1
 438 986 l 1,4,-1
 372 900 l 1,5,-1
 674 910 l 1,6,-1
 709 1159 l 1,7,-1
 976 1182 l 1,8,-1
 944 920 l 1,9,-1
 1136 927 l 1,10,-1
 1112 704 l 1,11,-1
 918 704 l 1,12,-1
 883 411 l 1,13,-1
 605 411 l 1,14,-1
 645 704 l 1,15,-1
 113 704 l 1,16,-1
 52 832 l 1,0,-1
EndSplineSet
EndChar

StartChar: threesuperior
Encoding: 179 179 159
Width: 1071
Flags: HW
LayerCount: 2
Fore
SplineSet
973 1408 m 0,0,1
 973 1190.26 973 1190.26 786 1117 c 1,2,3
 1000 1080.22 1000 1080.22 1000 870 c 0,4,5
 1000 694.447 1000 694.447 848.5 587 c 0,6,7
 703.27 484 703.27 484 484 484 c 0,8,9
 320.6 484 320.6 484 183 532 c 0,10,11
 140 547 140 547 111 565 c 1,12,-1
 155 756 l 1,13,14
 247.587 695.818 247.587 695.818 404.504 695.818 c 0,15,16
 596.195 695.818 596.195 695.818 664 799 c 0,17,18
 687 834 687 834 687 884 c 0,19,20
 687 981.188 687 981.188 578 988 c 1,21,-1
 340 929 l 1,22,-1
 375 1138 l 1,23,24
 530.593 1176.9 530.593 1176.9 578.296 1208.95 c 128,-1,25
 626 1241 626 1241 639 1265 c 128,-1,26
 652 1289 652 1289 652 1308.5 c 128,-1,27
 652 1328 652 1328 646 1345 c 128,-1,28
 640 1362 640 1362 626 1377 c 0,29,30
 592.4 1413 592.4 1413 529 1413 c 0,31,32
 393.364 1413 393.364 1413 302 1346 c 1,33,-1
 227 1526 l 1,34,35
 396.133 1644 396.133 1644 638 1644 c 0,36,37
 823.667 1644 823.667 1644 910 1560 c 0,38,39
 973 1498.7 973 1498.7 973 1408 c 0,0,1
EndSplineSet
EndChar

StartChar: dollar
Encoding: 36 36 160
Width: 1204
Flags: HW
LayerCount: 2
Fore
SplineSet
470 261 m 0,0,1
 685 261 685 261 685 401 c 0,2,3
 685 467.244 685 467.244 653 510.622 c 0,4,5
 602.807 578.661 602.807 578.661 524.404 636.831 c 128,-1,6
 446 695 446 695 399 739 c 128,-1,7
 352 783 352 783 313.5 837 c 0,8,9
 223.864 962.723 223.864 962.723 223.864 1102.47 c 0,10,11
 223.864 1263.22 223.864 1263.22 328.5 1377 c 0,12,13
 432.689 1490.29 432.689 1490.29 614 1529 c 1,14,-1
 659 1793 l 1,15,-1
 899 1793 l 1,16,-1
 856 1542 l 1,17,18
 1019.83 1528.76 1019.83 1528.76 1120 1461 c 1,19,-1
 1012 1180 l 1,20,21
 955.925 1236.07 955.925 1236.07 817.5 1260 c 0,22,23
 777 1267 777 1267 740 1267 c 0,24,25
 648 1267 648 1267 600.5 1231.5 c 128,-1,26
 553 1196 553 1196 553 1151 c 128,-1,27
 553 1106 553 1106 564.5 1077 c 128,-1,28
 576 1048 576 1048 600.5 1018.5 c 128,-1,29
 625 989 625 989 663 956.5 c 1,30,-1
 754 882 l 1,31,32
 877.75 788.5 877.75 788.5 930.875 722.25 c 0,33,34
 1042.04 583.626 1042.04 583.626 1042.04 444.955 c 0,35,36
 1042.04 158.899 1042.04 158.899 808 46.5 c 0,37,38
 732 10 732 10 635 -5 c 1,39,-1
 586 -275 l 1,40,-1
 346 -275 l 1,41,-1
 394 -10 l 1,42,43
 237.419 5.05587 237.419 5.05587 119 53.5 c 0,44,45
 86 67 86 67 72 78 c 1,46,-1
 187 360 l 1,47,48
 274.326 294.506 274.326 294.506 392 269.5 c 0,49,50
 432 261 432 261 470 261 c 0,0,1
EndSplineSet
EndChar

StartChar: grave.cap
Encoding: 65537 -1 161
Width: 527
Flags: HW
LayerCount: 2
Fore
SplineSet
347 1550 m 1,0,1
 231.233 1593.41 231.233 1593.41 92.5 1718.5 c 0,2,3
 26.4543 1778.05 26.4543 1778.05 1 1827 c 1,4,-1
 211 2014 l 1,5,-1
 490 1672 l 1,6,-1
 347 1550 l 1,0,1
EndSplineSet
EndChar

StartChar: dieresis.cap
Encoding: 65538 -1 162
Width: 814
Flags: HW
LayerCount: 2
Fore
SplineSet
878 1648 m 128,-1,1
 842 1632 842 1632 803 1632 c 128,-1,2
 764 1632 764 1632 736.5 1646.5 c 128,-1,3
 709 1661 709 1661 689 1684.5 c 0,4,5
 620.562 1764.92 620.562 1764.92 659.5 1875.5 c 0,6,7
 685.341 1948.89 685.341 1948.89 751.5 1979.5 c 0,8,9
 785 1995 785 1995 824 1995 c 128,-1,10
 863 1995 863 1995 892.5 1981 c 0,11,12
 952.404 1952.57 952.404 1952.57 975 1893 c 0,13,14
 985.083 1866.42 985.083 1866.42 985.083 1830.93 c 128,-1,15
 985.083 1795.44 985.083 1795.44 973.042 1757.22 c 128,-1,16
 961 1719 961 1719 937.5 1691.5 c 128,-1,0
 914 1664 914 1664 878 1648 c 128,-1,1
406 1648 m 128,-1,18
 371 1632 371 1632 331.5 1632 c 128,-1,19
 292 1632 292 1632 264.5 1646.5 c 0,20,21
 207.599 1676.5 207.599 1676.5 183 1738 c 0,22,23
 171.923 1765.69 171.923 1765.69 171.923 1801.38 c 128,-1,24
 171.923 1837.06 171.923 1837.06 185.462 1874.03 c 128,-1,25
 199 1911 199 1911 222.5 1937.5 c 0,26,27
 273.491 1995 273.491 1995 356 1995 c 0,28,29
 425.111 1995 425.111 1995 470 1944.5 c 0,30,31
 511.083 1898.28 511.083 1898.28 511.083 1846.94 c 128,-1,32
 511.083 1795.59 511.083 1795.59 499.542 1757.3 c 128,-1,33
 488 1719 488 1719 464.5 1691.5 c 128,-1,17
 441 1664 441 1664 406 1648 c 128,-1,18
EndSplineSet
EndChar

StartChar: commaaccent
Encoding: 63171 63171 163
Width: 371
Flags: HW
LayerCount: 2
Fore
SplineSet
182 -37 m 1,0,1
 249.321 -50.8603 249.321 -50.8603 295.5 -111 c 0,2,3
 341 -170.256 341 -170.256 341 -241.628 c 128,-1,4
 341 -313 341 -313 320 -367 c 128,-1,5
 299 -421 299 -421 265.5 -461.5 c 0,6,7
 196.582 -544.819 196.582 -544.819 112 -560 c 1,8,-1
 11 -490 l 1,9,-1
 14 -464 l 1,10,11
 55.4519 -440.971 55.4519 -440.971 75.5 -383.5 c 0,12,13
 83 -362 83 -362 83 -339 c 128,-1,14
 83 -316 83 -316 78 -298.5 c 128,-1,15
 73 -281 73 -281 64 -267 c 0,16,17
 45.3906 -238.052 45.3906 -238.052 15 -234 c 1,18,-1
 26 -141 l 1,19,-1
 182 -37 l 1,0,1
EndSplineSet
EndChar

StartChar: acute.cap
Encoding: 65539 -1 164
Width: 532
Flags: HW
LayerCount: 2
Fore
SplineSet
21 1672 m 1,0,-1
 300 2014 l 1,1,-1
 510 1827 l 1,2,3
 460.367 1731.55 460.367 1731.55 285 1615.5 c 0,4,5
 214.821 1569.06 214.821 1569.06 164 1550 c 1,6,-1
 21 1672 l 1,0,-1
EndSplineSet
EndChar

StartChar: circumflex.cap
Encoding: 65540 -1 165
Width: 802
Flags: HW
LayerCount: 2
Fore
SplineSet
19 1666 m 1,0,-1
 390 2014 l 1,1,-1
 570 2014 l 1,2,-1
 782 1677 l 1,3,-1
 637 1599 l 1,4,-1
 454 1766 l 1,5,-1
 167 1599 l 1,6,-1
 19 1666 l 1,0,-1
EndSplineSet
EndChar

StartChar: caron.cap
Encoding: 65541 -1 166
Width: 800
Flags: HW
LayerCount: 2
Fore
SplineSet
55 1936 m 1,0,-1
 200 2014 l 1,1,-1
 383 1837 l 1,2,-1
 670 2014 l 1,3,-1
 818 1947 l 1,4,-1
 447 1599 l 1,5,-1
 267 1599 l 1,6,-1
 55 1936 l 1,0,-1
EndSplineSet
EndChar

StartChar: breve.cap
Encoding: 65542 -1 167
Width: 722
Flags: HW
LayerCount: 2
Fore
SplineSet
237 2014 m 1,0,1
 233 1992 233 1992 233 1965.5 c 128,-1,2
 233 1939 233 1939 239 1916.5 c 128,-1,3
 245 1894 245 1894 261 1879.5 c 0,4,5
 293.552 1850 293.552 1850 377 1850 c 256,6,7
 491.847 1850 491.847 1850 525.5 1954.5 c 0,8,9
 535 1984 535 1984 540 2014 c 1,10,-1
 724 2014 l 1,11,12
 725 2006 725 2006 725 1997 c 2,13,-1
 725 1980 l 2,14,15
 725 1844.19 725 1844.19 638.5 1747 c 0,16,17
 537.04 1633 537.04 1633 361 1633 c 0,18,19
 108.119 1633 108.119 1633 54 1806.5 c 0,20,21
 37 1861 37 1861 37 1899.5 c 128,-1,22
 37 1938 37 1938 38 1949.5 c 128,-1,23
 39 1961 39 1961 41 1973 c 2,24,-1
 45 1996 l 2,25,26
 47 2007 47 2007 49 2014 c 1,27,-1
 237 2014 l 1,0,1
EndSplineSet
EndChar

StartChar: dotaccent.cap
Encoding: 65543 -1 168
Width: 393
Flags: HW
LayerCount: 2
Fore
SplineSet
264 1628 m 0,0,1
 224 1612 224 1612 178 1612 c 128,-1,2
 132 1612 132 1612 100 1625 c 0,3,4
 34.3544 1651.67 34.3544 1651.67 8 1713.5 c 0,5,6
 -4.07143 1741.82 -4.07143 1741.82 -4.07143 1779.68 c 128,-1,7
 -4.07143 1817.55 -4.07143 1817.55 11.9643 1854.27 c 128,-1,8
 28 1891 28 1891 55.5 1917.5 c 0,9,10
 115.17 1975 115.17 1975 206 1975 c 0,11,12
 290.227 1975 290.227 1975 341.5 1927 c 0,13,14
 388.077 1883.4 388.077 1883.4 388.077 1819.05 c 0,15,16
 388.077 1677.63 388.077 1677.63 264 1628 c 0,0,1
EndSplineSet
EndChar

StartChar: ring.cap
Encoding: 65544 -1 169
Width: 729
Flags: HW
LayerCount: 2
Fore
SplineSet
493.5 1489.5 m 128,-1,1
 427 1471 427 1471 356.5 1471 c 128,-1,2
 286 1471 286 1471 227 1486.5 c 128,-1,3
 168 1502 168 1502 125 1532 c 0,4,5
 35 1594.79 35 1594.79 35 1696.9 c 128,-1,6
 35 1799 35 1799 74 1857.5 c 128,-1,7
 113 1916 113 1916 171.5 1950.5 c 0,8,9
 279.174 2014 279.174 2014 425 2014 c 0,10,11
 639.529 2014 639.529 2014 708 1884.5 c 0,12,13
 731 1841 731 1841 731 1771 c 128,-1,14
 731 1701 731 1701 698.5 1642.5 c 128,-1,15
 666 1584 666 1584 613 1546 c 128,-1,0
 560 1508 560 1508 493.5 1489.5 c 128,-1,1
412.061 1878 m 128,-1,17
 371 1878 371 1878 341 1870.5 c 128,-1,18
 311 1863 311 1863 286.5 1846.5 c 0,19,20
 231 1809.12 231 1809.12 231 1734 c 0,21,22
 231 1681.8 231 1681.8 275 1645.5 c 0,23,24
 318.03 1610 318.03 1610 358.515 1610 c 0,25,26
 440 1610 440 1610 488 1642 c 128,-1,27
 536 1674 536 1674 536 1740.01 c 128,-1,28
 536 1806.03 536 1806.03 494.561 1842.01 c 128,-1,16
 453.121 1878 453.121 1878 412.061 1878 c 128,-1,17
EndSplineSet
EndChar

StartChar: tilde.cap
Encoding: 65545 -1 170
Width: 821
Flags: HW
LayerCount: 2
Fore
SplineSet
-7 1783 m 1,0,1
 28.6435 1854.29 28.6435 1854.29 121 1915.5 c 0,2,3
 218.316 1980 218.316 1980 299 1980 c 0,4,5
 373.188 1980 373.188 1980 414.594 1953.5 c 128,-1,6
 456 1927 456 1927 476.5 1908 c 128,-1,7
 497 1889 497 1889 517 1873 c 0,8,9
 563.25 1836 563.25 1836 601.125 1836 c 128,-1,10
 639 1836 639 1836 663.5 1846 c 128,-1,11
 688 1856 688 1856 708.5 1871.5 c 128,-1,12
 729 1887 729 1887 745.5 1906.5 c 2,13,-1
 778 1946 l 1,14,-1
 897 1801 l 1,15,16
 865.463 1725.31 865.463 1725.31 776.5 1661 c 0,17,18
 681.05 1592 681.05 1592 597 1592 c 0,19,20
 484.622 1592 484.622 1592 406.5 1662.5 c 0,21,22
 357.291 1706.91 357.291 1706.91 326.645 1720.95 c 128,-1,23
 296 1735 296 1735 266.5 1735.5 c 128,-1,24
 237 1736 237 1736 214.5 1728.5 c 128,-1,25
 192 1721 192 1721 171.5 1708.5 c 128,-1,26
 151 1696 151 1696 133 1679.5 c 2,27,-1
 99 1647 l 1,28,-1
 -7 1783 l 1,0,1
EndSplineSet
EndChar

StartChar: hungarumlaut.cap
Encoding: 65546 -1 171
Width: 931
Flags: HW
LayerCount: 2
Fore
SplineSet
444 1645 m 1,0,-1
 729 2014 l 1,1,-1
 909 1870 l 1,2,3
 854.449 1777.68 854.449 1777.68 782.224 1709.34 c 0,4,5
 651.522 1585.67 651.522 1585.67 562 1559 c 1,6,-1
 444 1645 l 1,0,-1
-50 1645 m 1,7,-1
 234 2014 l 1,8,-1
 417 1871 l 1,9,10
 378.6 1786.52 378.6 1786.52 268.5 1685.5 c 0,11,12
 162.326 1588.08 162.326 1588.08 73 1559 c 1,13,-1
 -50 1645 l 1,7,-1
EndSplineSet
EndChar

StartChar: ordfeminine
Encoding: 170 170 172
Width: 963
Flags: HW
LayerCount: 2
Fore
SplineSet
665 880 m 1,0,1
 515.812 726 515.812 726 355 726 c 0,2,3
 164.772 726 164.772 726 109.5 885.5 c 0,4,5
 92 936 92 936 92 1025 c 128,-1,6
 92 1114 92 1114 137 1219 c 128,-1,7
 182 1324 182 1324 261.5 1403.5 c 0,8,9
 435 1577 435 1577 692 1577 c 0,10,11
 794 1577 794 1577 890 1545 c 1,12,-1
 1051 1573 l 1,13,-1
 890 726 l 1,14,-1
 672 726 l 1,15,-1
 665 880 l 1,0,1
407.5 944.5 m 128,-1,17
 424 916 424 916 469 916 c 0,18,19
 552.294 916 552.294 916 647 1031 c 1,20,-1
 735 1426 l 1,21,22
 711 1432 711 1432 672 1432 c 128,-1,23
 633 1432 633 1432 590.5 1411.5 c 128,-1,24
 548 1391 548 1391 515 1357.5 c 128,-1,25
 482 1324 482 1324 458.5 1281.5 c 128,-1,26
 435 1239 435 1239 420 1194.5 c 0,27,28
 391 1108.47 391 1108.47 391 1040.73 c 128,-1,16
 391 973 391 973 407.5 944.5 c 128,-1,17
EndSplineSet
EndChar

StartChar: ordmasculine
Encoding: 186 186 173
Width: 946
Flags: HW
LayerCount: 2
Fore
SplineSet
671 749 m 128,-1,1
 574 716 574 716 482.5 716 c 128,-1,2
 391 716 391 716 324.5 740 c 128,-1,3
 258 764 258 764 208 809.5 c 0,4,5
 100 907.78 100 907.78 100 1071 c 0,6,7
 100 1308.98 100 1308.98 261.5 1454 c 0,8,9
 411.841 1589 411.841 1589 627 1589 c 0,10,11
 797.868 1589 797.868 1589 898.5 1496.5 c 0,12,13
 1003 1400.44 1003 1400.44 1003 1234 c 0,14,15
 1003 988.419 1003 988.419 842 847 c 0,16,0
 768 782 768 782 671 749 c 128,-1,1
390 1076 m 0,17,18
 390 884 390 884 495 884 c 0,19,20
 651.741 884 651.741 884 695.5 1092.5 c 0,21,22
 710 1161.59 710 1161.59 710 1249.79 c 128,-1,23
 710 1338 710 1338 687 1383 c 128,-1,24
 664 1428 664 1428 611.5 1428 c 128,-1,25
 559 1428 559 1428 527.5 1410 c 128,-1,26
 496 1392 496 1392 472.5 1363 c 128,-1,27
 449 1334 449 1334 433.5 1296.5 c 128,-1,28
 418 1259 418 1259 408 1220 c 0,29,30
 390 1149.8 390 1149.8 390 1076 c 0,17,18
EndSplineSet
EndChar

StartChar: percent
Encoding: 37 37 174
Width: 2003
Flags: HW
LayerCount: 2
Fore
SplineSet
586 1532 m 0,0,1
 910 1532 910 1532 910 1188 c 0,2,3
 910 985.88 910 985.88 779.5 834.5 c 0,4,5
 640.276 673 640.276 673 427 673 c 0,6,7
 268.617 673 268.617 673 184 770 c 0,8,9
 102 864 102 864 102 1035 c 0,10,11
 102 1228.86 102 1228.86 238.5 1377 c 0,12,13
 381.321 1532 381.321 1532 586 1532 c 0,0,1
1263 1530 m 1,14,-1
 1512 1530 l 1,15,-1
 805 0 l 1,16,-1
 536 0 l 1,17,-1
 1263 1530 l 1,14,-1
372 928 m 128,-1,19
 407 880 407 880 464 880 c 128,-1,20
 521 880 521 880 558 909.5 c 128,-1,21
 595 939 595 939 618.5 981.5 c 0,22,23
 665 1065.6 665 1065.6 665 1151.3 c 128,-1,24
 665 1237 665 1237 633 1282 c 128,-1,25
 601 1327 601 1327 545.5 1327 c 128,-1,26
 490 1327 490 1327 451.5 1299 c 128,-1,27
 413 1271 413 1271 387.5 1229.5 c 0,28,29
 337 1147.31 337 1147.31 337 1061.66 c 128,-1,18
 337 976 337 976 372 928 c 128,-1,19
1657 918 m 0,30,31
 1981 918 1981 918 1981 574 c 0,32,33
 1981 371.88 1981 371.88 1850.5 220.5 c 0,34,35
 1711.28 59 1711.28 59 1498 59 c 0,36,37
 1339.62 59 1339.62 59 1255 156 c 0,38,39
 1173 250 1173 250 1173 421 c 0,40,41
 1173 614.86 1173 614.86 1309.5 763 c 0,42,43
 1452.32 918 1452.32 918 1657 918 c 0,30,31
1420.5 526 m 128,-1,45
 1408 478 1408 478 1408 420 c 128,-1,46
 1408 362 1408 362 1443 314 c 128,-1,47
 1478 266 1478 266 1535 266 c 128,-1,48
 1592 266 1592 266 1629 295.5 c 128,-1,49
 1666 325 1666 325 1689.5 367.5 c 0,50,51
 1736 451.596 1736 451.596 1736 537.298 c 128,-1,52
 1736 623 1736 623 1704 668 c 128,-1,53
 1672 713 1672 713 1616.5 713 c 128,-1,54
 1561 713 1561 713 1522.5 685 c 128,-1,55
 1484 657 1484 657 1458.5 615.5 c 128,-1,44
 1433 574 1433 574 1420.5 526 c 128,-1,45
EndSplineSet
Ligature2: "'frac' Diagonal Fractions in Latin lookup 10 subtable" zero slash zero
EndChar

StartChar: Oslash
Encoding: 216 216 175
Width: 1393
Flags: HW
LayerCount: 2
Fore
SplineSet
598.35 -14 m 0,0,1
 462.7 -14 462.7 -14 343 49 c 1,2,-1
 230 -132 l 1,3,-1
 141 -83 l 1,4,-1
 260 105 l 1,5,6
 66 267.327 66 267.327 66 580 c 0,7,8
 66 987.565 66 987.565 266.5 1260 c 0,9,10
 401.135 1442.94 401.135 1442.94 601 1512.5 c 0,11,12
 703 1548 703 1548 841.545 1548 c 128,-1,13
 980.091 1548 980.091 1548 1101 1478 c 1,14,-1
 1211 1670 l 1,15,-1
 1300 1621 l 1,16,-1
 1183 1417 l 1,17,18
 1364 1249.92 1364 1249.92 1364 948 c 0,19,20
 1364 543.86 1364 543.86 1165.5 271.5 c 0,21,22
 957.424 -14 957.424 -14 598.35 -14 c 0,0,1
927 1230 m 1,23,24
 878.714 1282 878.714 1282 783 1282 c 0,25,26
 678.148 1282 678.148 1282 592.5 1172.5 c 0,27,28
 475.513 1022.93 475.513 1022.93 440.5 754.5 c 0,29,30
 430 674 430 674 430 603.5 c 0,31,32
 430 473.455 430 473.455 453 394 c 1,33,-1
 927 1230 l 1,23,24
510 296 m 1,34,35
 557.667 252 557.667 252 629.833 252 c 128,-1,36
 702 252 702 252 750 281 c 128,-1,37
 798 310 798 310 837 359.5 c 128,-1,38
 876 409 876 409 906.5 476 c 128,-1,39
 937 543 937 543 958 619.5 c 0,40,41
 1000 772.5 1000 772.5 1000 912.25 c 128,-1,42
 1000 1052 1000 1052 981 1122 c 1,43,-1
 510 296 l 1,34,35
EndSplineSet
EndChar

StartChar: aogonek
Encoding: 261 261 181
Width: 1268
Flags: HW
LayerCount: 2
Fore
SplineSet
1059 -387 m 1,0,1
 939.905 -510 939.905 -510 730 -510 c 0,2,3
 635.755 -510 635.755 -510 575 -452.5 c 0,4,5
 517 -397.607 517 -397.607 517 -329.804 c 128,-1,6
 517 -262 517 -262 546.5 -211.5 c 128,-1,7
 576 -161 576 -161 618.5 -119 c 0,8,9
 700.22 -38.2419 700.22 -38.2419 792 0 c 1,10,-1
 724 0 l 1,11,-1
 735 248 l 1,12,13
 654.063 70.7089 654.063 70.7089 519.5 8 c 0,14,15
 468 -16 468 -16 389.5 -16 c 128,-1,16
 311 -16 311 -16 247 18.5 c 128,-1,17
 183 53 183 53 143.5 111.5 c 0,18,19
 70 220.354 70 220.354 70 412 c 0,20,21
 70 712.195 70 712.195 246 922.5 c 0,22,23
 441.411 1156 441.411 1156 773 1156 c 0,24,25
 891.625 1156 891.625 1156 1021 1111 c 1,26,-1
 1205 1156 l 1,27,-1
 1044 0 l 1,28,29
 879.93 -67.5581 879.93 -67.5581 817.5 -154 c 0,30,31
 798 -181 798 -181 798 -205 c 0,32,33
 798 -277 798 -277 866.636 -277 c 128,-1,34
 935.273 -277 935.273 -277 1018 -212 c 1,35,-1
 1059 -387 l 1,0,1
442 433 m 0,36,37
 442 224 442 224 531 224 c 0,38,39
 598.436 224 598.436 224 676 361.5 c 0,40,41
 739.209 473.552 739.209 473.552 776 606 c 1,42,-1
 823 941 l 1,43,44
 794.667 946 794.667 946 745.833 946 c 128,-1,45
 697 946 697 946 654 924.5 c 128,-1,46
 611 903 611 903 577 866.5 c 128,-1,47
 543 830 543 830 517.5 780 c 128,-1,48
 492 730 492 730 475.5 673 c 0,49,50
 442 557.273 442 557.273 442 433 c 0,36,37
EndSplineSet
EndChar

StartChar: ccedilla
Encoding: 231 231 183
Width: 956
Flags: HW
LayerCount: 2
Fore
SplineSet
170 -233 m 1,0,1
 204.667 -249 204.667 -249 246.333 -249 c 128,-1,2
 288 -249 288 -249 320 -244 c 128,-1,3
 352 -239 352 -239 376 -225.5 c 0,4,5
 427.274 -196.658 427.274 -196.658 431 -124 c 0,6,7
 434.618 -66.1089 434.618 -66.1089 430 -13 c 1,8,9
 247.195 5.46518 247.195 5.46518 153 149 c 0,10,11
 74 269.381 74 269.381 74 434.19 c 128,-1,12
 74 599 74 599 120.5 730.5 c 128,-1,13
 167 862 167 862 250 956.5 c 0,14,15
 425.222 1156 425.222 1156 695 1156 c 0,16,17
 854.1 1156 854.1 1156 953 1113 c 1,18,-1
 867 771 l 1,19,20
 809 829 809 829 753 853.5 c 128,-1,21
 697 878 697 878 660 878 c 128,-1,22
 623 878 623 878 581 855.5 c 128,-1,23
 539 833 539 833 507.5 786 c 0,24,25
 438 682.302 438 682.302 438 498 c 0,26,27
 438 363.152 438 363.152 461.5 317.576 c 128,-1,28
 485 272 485 272 513.5 256.5 c 128,-1,29
 542 241 542 241 578.5 241 c 128,-1,30
 615 241 615 241 650 252 c 128,-1,31
 685 263 685 263 717 280.5 c 0,32,33
 784.892 317.628 784.892 317.628 819 356 c 1,34,-1
 908 185 l 1,35,36
 811.731 43.4273 811.731 43.4273 628 0 c 1,37,38
 675 -114.889 675 -114.889 675 -238 c 0,39,40
 675 -402.757 675 -402.757 514.5 -453 c 0,41,42
 457 -471 457 -471 405.5 -471 c 128,-1,43
 354 -471 354 -471 317.5 -468 c 128,-1,44
 281 -465 281 -465 243 -459.5 c 0,45,46
 148.798 -445.866 148.798 -445.866 134 -436 c 1,47,-1
 170 -233 l 1,0,1
EndSplineSet
EndChar

StartChar: eogonek
Encoding: 281 281 188
Width: 1112
Flags: HW
LayerCount: 2
Fore
SplineSet
817 -387 m 1,0,1
 697.905 -510 697.905 -510 488 -510 c 0,2,3
 393.755 -510 393.755 -510 333 -452.5 c 0,4,5
 275 -397.607 275 -397.607 275 -316 c 0,6,7
 275 -187.682 275 -187.682 438.5 -66.5 c 0,8,9
 481 -35 481 -35 518 -15 c 1,10,-1
 506 -16 l 1,11,12
 288.344 -16 288.344 -16 173.5 124 c 0,13,14
 73 246.514 73 246.514 73 422.257 c 128,-1,15
 73 598 73 598 123 729 c 128,-1,16
 173 860 173 860 260 955 c 0,17,18
 444.074 1156 444.074 1156 716 1156 c 0,19,20
 973.143 1156 973.143 1156 1036 1002 c 0,21,22
 1056 953 1056 953 1056 867 c 128,-1,23
 1056 781 1056 781 1008 699 c 128,-1,24
 960 617 960 617 877.5 557.5 c 0,25,26
 733.311 453.509 733.311 453.509 449 383 c 1,27,28
 449 304.375 449 304.375 471 276.188 c 0,29,30
 510.171 226 510.171 226 594 226 c 0,31,32
 681.735 226 681.735 226 785 283.5 c 0,33,34
 875.79 334.054 875.79 334.054 917 389 c 1,35,-1
 1009 218 l 1,36,37
 951.477 132.966 951.477 132.966 821 63 c 1,38,39
 726.382 6.22917 726.382 6.22917 665.691 -52.8854 c 0,40,41
 556 -159.727 556 -159.727 556 -205 c 0,42,43
 556 -277 556 -277 624.636 -277 c 128,-1,44
 693.273 -277 693.273 -277 776 -212 c 1,45,-1
 817 -387 l 1,0,1
444 561 m 1,46,47
 539.632 567.52 539.632 567.52 622 652 c 0,48,49
 712 744.308 712 744.308 712 859 c 0,50,51
 712 912 712 912 694.5 936 c 128,-1,52
 677 960 677 960 641 960 c 128,-1,53
 605 960 605 960 578.5 940 c 128,-1,54
 552 920 552 920 531 887.5 c 128,-1,55
 510 855 510 855 494 813 c 128,-1,56
 478 771 478 771 467 726.5 c 0,57,58
 446.341 642.924 446.341 642.924 444 561 c 1,46,47
EndSplineSet
EndChar

StartChar: lslash
Encoding: 322 322 194
Width: 665
Flags: HW
LayerCount: 2
Fore
SplineSet
177 700 m 1,0,-1
 8 633 l 1,1,-1
 8 830 l 1,2,-1
 206 911 l 1,3,-1
 303 1634 l 1,4,-1
 662 1634 l 1,5,-1
 585 1066 l 1,6,-1
 758 1137 l 1,7,-1
 758 930 l 1,8,-1
 555 849 l 1,9,-1
 440 0 l 1,10,-1
 83 0 l 1,11,-1
 177 700 l 1,0,-1
EndSplineSet
EndChar

StartChar: Aogonek
Encoding: 260 260 209
Width: 1357
Flags: HW
LayerCount: 2
Fore
SplineSet
1265 -387 m 1,0,1
 1145.9 -510 1145.9 -510 936 -510 c 0,2,3
 841.755 -510 841.755 -510 781 -452.5 c 0,4,5
 723 -397.607 723 -397.607 723 -329.804 c 128,-1,6
 723 -262 723 -262 752 -212 c 128,-1,7
 781 -162 781 -162 823.5 -120 c 0,8,9
 905.949 -38.5214 905.949 -38.5214 996 -1 c 1,10,-1
 951 -1 l 1,11,-1
 918 286 l 1,12,-1
 396 286 l 1,13,-1
 279 0 l 1,14,-1
 -111 -1 l 1,15,-1
 629 1530 l 1,16,-1
 1079 1530 l 1,17,-1
 1306 0 l 1,18,-1
 1250 0 l 1,19,20
 1085.93 -67.5582 1085.93 -67.5582 1023.5 -154 c 0,21,22
 1004 -181 1004 -181 1004 -205 c 0,23,24
 1004 -277 1004 -277 1072.64 -277 c 128,-1,25
 1141.27 -277 1141.27 -277 1224 -212 c 1,26,-1
 1265 -387 l 1,0,1
891 527 m 1,27,-1
 815 1202 l 1,28,-1
 809 1321 l 1,29,-1
 770 1202 l 1,30,-1
 494 527 l 1,31,-1
 891 527 l 1,27,-1
EndSplineSet
EndChar

StartChar: caronvertical
Encoding: 65547 -1 220
Width: 318
Flags: HW
LayerCount: 2
Fore
SplineSet
459 1682 m 1,0,1
 498 1643 498 1643 498 1493 c 0,2,3
 498 1292.96 498 1292.96 414.5 1129 c 0,4,5
 387 1075 387 1075 351 1037 c 1,6,-1
 200 1065 l 1,7,-1
 194 1090 l 1,8,9
 235 1199.33 235 1199.33 235 1376.81 c 128,-1,10
 235 1554.29 235 1554.29 211 1592 c 1,11,-1
 230 1634 l 1,12,-1
 459 1682 l 1,0,1
EndSplineSet
EndChar

StartChar: afii61352
Encoding: 8470 8470 237
Width: 2512
Flags: HW
LayerCount: 2
Fore
SplineSet
1567 945.5 m 0,0,1
 1567 1043 1567 1043 1603 1152.5 c 128,-1,2
 1639 1262 1639 1262 1710.5 1346.5 c 0,3,4
 1867.46 1532 1867.46 1532 2138 1532 c 0,5,6
 2326.91 1532 2326.91 1532 2427 1403 c 0,7,8
 2513 1292.16 2513 1292.16 2513 1118 c 0,9,10
 2513 867.091 2513 867.091 2369.5 697.5 c 0,11,12
 2212.54 512 2212.54 512 1942 512 c 0,13,14
 1753.09 512 1753.09 512 1653 641 c 0,15,16
 1567 751.844 1567 751.844 1567 945.5 c 0,0,1
285 1530 m 1,17,-1
 611 1530 l 1,18,-1
 930 768 l 1,19,-1
 1018 510 l 1,20,-1
 1039 772 l 1,21,-1
 1126 1530 l 1,22,-1
 1454 1530 l 1,23,-1
 1261 0 l 1,24,-1
 958 0 l 1,25,-1
 643 776 l 1,26,-1
 538 1075 l 1,27,-1
 521 778 l 1,28,-1
 417 0 l 1,29,-1
 92 0 l 1,30,-1
 285 1530 l 1,17,-1
1927 1204 m 0,31,32
 1879 1081.12 1879 1081.12 1879 889.06 c 128,-1,33
 1879 697 1879 697 1987 697 c 0,34,35
 2097.43 697 2097.43 697 2151 836.5 c 0,36,37
 2196 953.688 2196 953.688 2196 1150.84 c 128,-1,38
 2196 1348 2196 1348 2089.62 1348 c 128,-1,39
 1983.25 1348 1983.25 1348 1927 1204 c 0,31,32
1536 207 m 1,40,-1
 2389 207 l 1,41,-1
 2371 0 l 1,42,-1
 1518 0 l 1,43,-1
 1536 207 l 1,40,-1
EndSplineSet
EndChar

StartChar: oe
Encoding: 339 339 242
Width: 1775
Flags: HW
LayerCount: 2
Fore
SplineSet
852 106 m 1,0,1
 697.895 -16 697.895 -16 481 -16 c 0,2,3
 268.692 -16 268.692 -16 161 124 c 0,4,5
 65 248.8 65 248.8 65 460 c 0,6,7
 65 750.893 65 750.893 224.5 944.5 c 0,8,9
 398.741 1156 398.741 1156 701 1156 c 0,10,11
 896 1156 896 1156 1000 1026 c 1,12,13
 1165.08 1156 1165.08 1156 1379 1156 c 0,14,15
 1636.14 1156 1636.14 1156 1699 1002 c 0,16,17
 1719 953 1719 953 1719 867 c 128,-1,18
 1719 781 1719 781 1671 699 c 128,-1,19
 1623 617 1623 617 1540.5 557.5 c 0,20,21
 1396.31 453.509 1396.31 453.509 1112 383 c 1,22,23
 1112 304.375 1112 304.375 1134 276.188 c 0,24,25
 1173.17 226 1173.17 226 1257 226 c 0,26,27
 1344.73 226 1344.73 226 1448 283.5 c 0,28,29
 1538.79 334.054 1538.79 334.054 1580 389 c 1,30,-1
 1672 218 l 1,31,32
 1615.68 136.075 1615.68 136.075 1495.5 69 c 0,33,34
 1343.21 -16 1343.21 -16 1154.32 -16 c 128,-1,35
 965.439 -16 965.439 -16 852 106 c 1,0,1
1107 561 m 1,36,37
 1202.63 567.52 1202.63 567.52 1285 652 c 0,38,39
 1375 744.308 1375 744.308 1375 859 c 0,40,41
 1375 912 1375 912 1357.5 936 c 128,-1,42
 1340 960 1340 960 1304 960 c 128,-1,43
 1268 960 1268 960 1241.5 940 c 128,-1,44
 1215 920 1215 920 1194 887.5 c 128,-1,45
 1173 855 1173 855 1157 813 c 128,-1,46
 1141 771 1141 771 1130 726.5 c 0,47,48
 1109.34 642.924 1109.34 642.924 1107 561 c 1,36,37
419 420 m 0,49,50
 419 198 419 198 529 198 c 0,51,52
 614.645 198 614.645 198 672.5 303.5 c 0,53,54
 737.445 421.93 737.445 421.93 754 633 c 0,55,56
 758 684 758 684 758 733 c 128,-1,57
 758 782 758 782 750.5 825 c 128,-1,58
 743 868 743 868 729 894 c 0,59,60
 703.154 942 703.154 942 655.077 942 c 128,-1,61
 607 942 607 942 574.5 919 c 128,-1,62
 542 896 542 896 516.5 856.5 c 128,-1,63
 491 817 491 817 472.5 765 c 128,-1,64
 454 713 454 713 442 655 c 0,65,66
 419 543.833 419 543.833 419 420 c 0,49,50
EndSplineSet
EndChar

StartChar: daggerdbl
Encoding: 8225 8225 243
Width: 815
Flags: HW
LayerCount: 2
Fore
SplineSet
259 340 m 1,0,-1
 299 576 l 1,1,-1
 58 576 l 1,2,-1
 89 779 l 1,3,-1
 325 779 l 1,4,-1
 362 1063 l 1,5,-1
 126 1063 l 1,6,-1
 158 1277 l 1,7,-1
 407 1277 l 1,8,-1
 429 1469 l 1,9,-1
 453 1646 l 1,10,-1
 703 1646 l 1,11,-1
 673 1469 l 1,12,-1
 634 1277 l 1,13,-1
 885 1277 l 1,14,-1
 852 1063 l 1,15,-1
 611 1063 l 1,16,-1
 595 944 l 1,17,-1
 567 779 l 1,18,-1
 825 779 l 1,19,-1
 797 576 l 1,20,-1
 533 576 l 1,21,-1
 510 352 l 1,22,-1
 410 -51 l 1,23,-1
 238 -51 l 1,24,-1
 259 340 l 1,0,-1
EndSplineSet
EndChar

StartChar: Euro
Encoding: 8364 8364 244
Width: 1389
Flags: HW
LayerCount: 2
Fore
SplineSet
578 524 m 1,0,1
 607.333 216 607.333 216 843 216 c 0,2,3
 969.622 216 969.622 216 1086.5 294.5 c 0,4,5
 1120 317 1120 317 1150 340 c 1,6,-1
 1220 139 l 1,7,8
 1126.54 35.1606 1126.54 35.1606 924 -3 c 0,9,10
 855 -16 855 -16 746.5 -16 c 128,-1,11
 638 -16 638 -16 538 29.5 c 128,-1,12
 438 75 438 75 372.5 150 c 0,13,14
 249.683 290.63 249.683 290.63 225 524 c 1,15,-1
 23 524 l 1,16,-1
 42 706 l 1,17,-1
 221 706 l 1,18,19
 225 785 225 785 239 860 c 1,20,-1
 68 860 l 1,21,-1
 87 1042 l 1,22,-1
 290 1042 l 1,23,24
 379.565 1274.87 379.565 1274.87 568 1410.5 c 128,-1,25
 756.252 1546 756.252 1546 995 1546 c 0,26,27
 1140.26 1546 1140.26 1546 1250.5 1510.5 c 2,28,-1
 1309 1492 l 1,29,-1
 1235 1223 l 1,30,31
 1199.05 1262.94 1199.05 1262.94 1073 1285 c 0,32,33
 1033 1292 1033 1292 991 1292 c 0,34,35
 880 1292 880 1292 796 1224.5 c 128,-1,36
 712 1157 712 1157 658 1042 c 1,37,-1
 1122 1042 l 1,38,-1
 1103 860 l 1,39,-1
 599 860 l 1,40,41
 584.531 793.081 584.531 793.081 578 706 c 1,42,-1
 1083 706 l 1,43,-1
 1068 524 l 1,44,-1
 578 524 l 1,0,1
EndSplineSet
EndChar

StartChar: infinity
Encoding: 8734 8734 245
Width: 2101
Flags: HW
LayerCount: 2
Fore
SplineSet
1037 372 m 1,0,1
 844.514 149.901 844.514 149.901 597.756 149.901 c 0,2,3
 352.392 149.901 352.392 149.901 214.5 291 c 0,4,5
 87 421.465 87 421.465 87 624 c 0,6,7
 87 822.242 87 822.242 223 950 c 0,8,9
 365.645 1084 365.645 1084 597 1084 c 0,10,11
 910.306 1084 910.306 1084 1091 851 c 1,12,13
 1294.22 1079 1294.22 1079 1531 1079 c 0,14,15
 1534.45 1079.03 1534.45 1079.03 1537.88 1079.03 c 0,16,17
 1784.71 1079.03 1784.71 1079.03 1919.5 941 c 0,18,19
 2041 816.584 2041 816.584 2041 613 c 0,20,21
 2041 413.348 2041 413.348 1905 282.5 c 0,22,23
 1762.09 145 1762.09 145 1529 145 c 0,24,25
 1207.25 145 1207.25 145 1037 372 c 1,0,1
1215 670 m 1,26,27
 1360.8 400 1360.8 400 1530 400 c 0,28,29
 1620.15 400 1620.15 400 1674.5 460.5 c 0,30,31
 1730 522.283 1730 522.283 1730 625 c 0,32,33
 1730 767 1730 767 1595 815 c 0,34,35
 1550 831 1550 831 1486 831 c 0,36,37
 1342.69 831 1342.69 831 1215 670 c 1,26,27
410.5 702 m 128,-1,39
 396 663 396 663 396 617.5 c 128,-1,40
 396 572 396 572 410.5 533 c 128,-1,41
 425 494 425 494 454 464 c 0,42,43
 517.8 398 517.8 398 632 398 c 0,44,45
 778.047 398 778.047 398 912 558 c 1,46,47
 814.726 738.137 814.726 738.137 687 802 c 0,48,49
 641 825 641 825 595 825 c 128,-1,50
 549 825 549 825 513 810.5 c 128,-1,51
 477 796 477 796 451 768.5 c 128,-1,38
 425 741 425 741 410.5 702 c 128,-1,39
EndSplineSet
EndChar

StartChar: lessequal
Encoding: 8804 8804 246
Width: 1391
Flags: HW
LayerCount: 2
Fore
SplineSet
212 782 m 1,0,-1
 1229 1228 l 1,1,-1
 1190 939 l 1,2,-1
 677 733 l 1,3,-1
 1145 522 l 1,4,-1
 1115 251 l 1,5,-1
 207 703 l 1,6,-1
 212 782 l 1,0,-1
170 207 m 1,7,-1
 1114 207 l 1,8,-1
 1098 0 l 1,9,-1
 153 0 l 1,10,-1
 170 207 l 1,7,-1
EndSplineSet
EndChar

StartChar: greaterequal
Encoding: 8805 8805 247
Width: 1391
Flags: HW
LayerCount: 2
Fore
SplineSet
224 552 m 1,0,-1
 727 750 l 1,1,-1
 281 976 l 1,2,-1
 312 1255 l 1,3,-1
 1223 768 l 1,4,-1
 1207 669 l 1,5,-1
 188 251 l 1,6,-1
 224 552 l 1,0,-1
180 207 m 1,7,-1
 1124 207 l 1,8,-1
 1108 0 l 1,9,-1
 163 0 l 1,10,-1
 180 207 l 1,7,-1
EndSplineSet
EndChar

StartChar: partialdiff
Encoding: 8706 8706 248
Width: 1354
Flags: HW
LayerCount: 2
Fore
SplineSet
124 1587 m 1,0,1
 300.071 1732 300.071 1732 534 1732 c 0,2,3
 779.328 1732 779.328 1732 957 1595 c 0,4,5
 1115.74 1472.6 1115.74 1472.6 1200.5 1250.5 c 0,6,7
 1278 1047.43 1278 1047.43 1278 797 c 0,8,9
 1278 389 1278 389 1122 186.5 c 128,-1,10
 966 -16 966 -16 645 -16 c 0,11,12
 432.94 -16 432.94 -16 278.5 146 c 0,13,14
 120.957 311.254 120.957 311.254 120.957 546.147 c 0,15,16
 120.957 925.843 120.957 925.843 419.5 1048.5 c 0,17,18
 539.981 1098 539.981 1098 697 1098 c 0,19,20
 820.727 1098 820.727 1098 920 1046 c 1,21,22
 866.228 1346.49 866.228 1346.49 649 1437 c 0,23,24
 577 1467 577 1467 517 1467 c 128,-1,25
 457 1467 457 1467 422.5 1461 c 128,-1,26
 388 1455 388 1455 355 1444.5 c 0,27,28
 281.474 1421.11 281.474 1421.11 236 1387 c 1,29,-1
 124 1587 l 1,0,1
934 796 m 1,30,31
 833.421 874 833.421 874 710.711 874 c 128,-1,32
 588 874 588 874 530.927 797.902 c 128,-1,33
 473.854 721.805 473.854 721.805 473.854 564.366 c 0,34,35
 473.854 322.575 473.854 322.575 597.5 254.5 c 0,36,37
 642 230 642 230 709 230 c 0,38,39
 934.182 230 934.182 230 934.182 687.401 c 1,40,-1
 933.5 756.875 l 2,41,42
 933.5 779 933.5 779 934 796 c 1,30,31
EndSplineSet
EndChar

StartChar: summation
Encoding: 8721 8721 249
Width: 1503
Flags: HW
LayerCount: 2
Fore
SplineSet
710 683 m 1,0,-1
 163 1442 l 1,1,-1
 193 1522 l 1,2,-1
 1291 1522 l 1,3,-1
 1291 1243 l 1,4,-1
 687 1243 l 1,5,-1
 1078 689 l 1,6,-1
 689 97 l 1,7,-1
 1349 97 l 1,8,-1
 1349 -170 l 1,9,-1
 189 -170 l 1,10,-1
 163 -99 l 1,11,-1
 710 683 l 1,0,-1
EndSplineSet
EndChar

StartChar: product
Encoding: 8719 8719 250
Width: 1716
Flags: HW
LayerCount: 2
Fore
SplineSet
393 1245 m 1,0,-1
 168 1246 l 1,1,-1
 168 1522 l 1,2,-1
 1745 1522 l 1,3,-1
 1745 1246 l 1,4,-1
 1514 1245 l 1,5,-1
 1514 -172 l 1,6,-1
 1138 -172 l 1,7,-1
 1138 1245 l 1,8,-1
 770 1245 l 1,9,-1
 770 -172 l 1,10,-1
 393 -172 l 1,11,-1
 393 1245 l 1,0,-1
EndSplineSet
EndChar

StartChar: pi
Encoding: 960 960 251
Width: 1603
Flags: HW
LayerCount: 2
Fore
SplineSet
1204.51 335.918 m 0,0,1
 1204.51 237 1204.51 237 1262 237 c 0,2,3
 1327.43 237 1327.43 237 1404.5 320 c 2,4,-1
 1440 358 l 1,5,-1
 1550 227 l 1,6,7
 1501.15 131.517 1501.15 131.517 1392.5 63 c 0,8,9
 1267.23 -16 1267.23 -16 1125.61 -16 c 128,-1,10
 984 -16 984 -16 930.49 54.5973 c 128,-1,11
 876.98 125.195 876.98 125.195 876.98 232.858 c 0,12,13
 876.98 260 876.98 260 880 290 c 2,14,-1
 944 850 l 1,15,-1
 703 850 l 1,16,-1
 674 408 l 2,17,18
 664.475 253.696 664.475 253.696 638.238 196.848 c 128,-1,19
 612 140 612 140 586.5 111 c 128,-1,20
 561 82 561 82 527 52 c 1,21,22
 443.123 -10.9077 443.123 -10.9077 326 -16 c 1,23,-1
 122 135 l 1,24,25
 162.133 143.6 162.133 143.6 204.567 176.8 c 128,-1,26
 247 210 247 210 272.5 246 c 128,-1,27
 298 282 298 282 314 322 c 0,28,29
 340.358 387.896 340.358 387.896 352 495 c 1,30,-1
 402 850 l 1,31,-1
 336 850 l 2,32,33
 238.607 850 238.607 850 178.5 799 c 0,34,35
 162 785 162 785 147 770 c 1,36,-1
 0 833 l 1,37,38
 9.72102 976.871 9.72102 976.871 116.5 1061 c 0,39,40
 216.769 1140 216.769 1140 371 1140 c 2,41,-1
 1252 1140 l 2,42,43
 1314 1140 1314 1140 1343.5 1157 c 128,-1,44
 1373 1174 1373 1174 1387 1215 c 1,45,-1
 1583 1215 l 1,46,47
 1576.98 1018.21 1576.98 1018.21 1500 934.5 c 0,48,49
 1423.22 851 1423.22 851 1252 851 c 2,50,-1
 1228 851 l 1,51,-1
 1205 356 l 2,52,53
 1204.51 345.459 1204.51 345.459 1204.51 335.918 c 0,0,1
EndSplineSet
EndChar

StartChar: integral
Encoding: 8747 8747 252
Width: 1087
Flags: HW
LayerCount: 2
Fore
SplineSet
209 -175 m 1,0,1
 244.976 -230.962 244.976 -230.962 354 -264 c 0,2,3
 387 -274 387 -274 432 -274 c 128,-1,4
 477 -274 477 -274 515 -255 c 0,5,6
 613.105 -205.947 613.105 -205.947 613.105 -36.2742 c 0,7,8
 613.105 177.349 613.105 177.349 400.5 565.5 c 0,9,10
 277.558 789.953 277.558 789.953 233.279 932.477 c 0,11,12
 187.871 1078.63 187.871 1078.63 187.871 1184.77 c 128,-1,13
 187.871 1290.9 187.871 1290.9 215.935 1379.45 c 128,-1,14
 244 1468 244 1468 307 1536.5 c 0,15,16
 442.657 1684 442.657 1684 701 1684 c 0,17,18
 866.667 1684 866.667 1684 974 1603.5 c 0,19,20
 1008 1578 1008 1578 1027 1547 c 1,21,-1
 896 1364 l 1,22,23
 874.855 1410.52 874.855 1410.52 781.5 1439 c 0,24,25
 752 1448 752 1448 720 1448 c 0,26,27
 614 1448 614 1448 561.464 1383.68 c 128,-1,28
 508.928 1319.36 508.928 1319.36 508.928 1204.65 c 0,29,30
 508.928 1040.99 508.928 1040.99 621 808.5 c 0,31,32
 668 711 668 711 722.5 612.5 c 128,-1,33
 777 514 777 514 823.5 413 c 0,34,35
 936.036 168.568 936.036 168.568 936.036 -8.85268 c 0,36,37
 936.036 -218.915 936.036 -218.915 823 -355.5 c 0,38,39
 688.517 -518 688.517 -518 439 -518 c 0,40,41
 345.143 -518 345.143 -518 272.071 -490.5 c 0,42,43
 140.769 -441.085 140.769 -441.085 106 -387 c 1,44,-1
 209 -175 l 1,0,1
EndSplineSet
EndChar

StartChar: Omega
Encoding: 8486 8486 253
Width: 1659
Flags: HW
LayerCount: 2
Fore
SplineSet
101 252 m 1,0,-1
 405 252 l 1,1,2
 241.623 440.038 241.623 440.038 192 683.5 c 0,3,4
 176 762 176 762 176 839 c 0,5,6
 176 1195 176 1195 366.5 1370 c 128,-1,7
 557 1545 557 1545 919 1545 c 0,8,9
 1199.37 1545 1199.37 1545 1365 1405 c 0,10,11
 1545 1252.86 1545 1252.86 1545 967 c 0,12,13
 1545 687 1545 687 1362 418.5 c 0,14,15
 1301 329 1301 329 1220 252 c 1,16,-1
 1530 252 l 1,17,-1
 1503 0 l 1,18,-1
 937 0 l 1,19,-1
 867 189 l 1,20,21
 1011.21 265.003 1011.21 265.003 1111.5 475.5 c 0,22,23
 1208 678.044 1208 678.044 1208 887 c 0,24,25
 1208 1083.51 1208 1083.51 1102 1185 c 0,26,27
 1014.27 1269 1014.27 1269 882 1269 c 0,28,29
 613.333 1269 613.333 1269 530.5 1020.5 c 0,30,31
 500 929 500 929 500 833 c 128,-1,32
 500 737 500 737 508 675.5 c 128,-1,33
 516 614 516 614 530.5 553 c 128,-1,34
 545 492 545 492 565 434.5 c 128,-1,35
 585 377 585 377 609 329 c 0,36,37
 661.541 223.919 661.541 223.919 713 189 c 1,38,-1
 623 0 l 1,39,-1
 68 0 l 1,40,-1
 101 252 l 1,0,-1
EndSplineSet
EndChar

StartChar: radical
Encoding: 8730 8730 254
Width: 1647
Flags: HW
LayerCount: 2
Fore
SplineSet
99 575 m 1,0,-1
 382 716 l 1,1,-1
 644 716 l 1,2,-1
 858 76 l 1,3,-1
 1338 1870 l 1,4,-1
 1705 1870 l 1,5,-1
 1020 -354 l 1,6,-1
 703 -354 l 1,7,-1
 392 378 l 1,8,-1
 225 294 l 1,9,-1
 99 575 l 1,0,-1
EndSplineSet
EndChar

StartChar: Delta
Encoding: 8710 8710 256
Width: 1407
Flags: HW
LayerCount: 2
Fore
SplineSet
-54 22 m 1,0,-1
 710 1508 l 1,1,-1
 742 1508 l 1,2,-1
 1311 27 l 1,3,-1
 1294 0 l 1,4,-1
 -42 0 l 1,5,-1
 -54 22 l 1,0,-1
908 288 m 1,6,-1
 688 896 l 1,7,-1
 392 288 l 1,8,-1
 908 288 l 1,6,-1
EndSplineSet
EndChar

StartChar: v
Encoding: 118 118 257
Width: 1138
Flags: HW
LayerCount: 2
Fore
SplineSet
1096 1140 m 1,0,1
 1107 1063 1107 1063 1107 955.5 c 128,-1,2
 1107 848 1107 848 1062.5 714.5 c 128,-1,3
 1018 581 1018 581 941.5 455.5 c 0,4,5
 790.715 208.133 790.715 208.133 548 8 c 1,6,-1
 528 -9 l 1,7,-1
 250 -21 l 1,8,-1
 195 355 l 1,9,-1
 93 1140 l 1,10,-1
 444 1140 l 1,11,-1
 506 475 l 1,12,-1
 520 276 l 1,13,-1
 569 341 l 1,14,15
 701.991 554.735 701.991 554.735 740 817 c 1,16,17
 767 985.75 767 985.75 767 1140 c 1,18,-1
 1096 1140 l 1,0,1
EndSplineSet
EndChar

StartChar: ellipsis
Encoding: 8230 8230 258
Width: 1578
Flags: HW
LayerCount: 2
Fore
SplineSet
1123.5 13.5 m 128,-1,1
 1082 56 1082 56 1082 110.5 c 128,-1,2
 1082 165 1082 165 1096.5 204 c 128,-1,3
 1111 243 1111 243 1138 272.5 c 0,4,5
 1197.95 338 1197.95 338 1290 338 c 0,6,7
 1413.54 338 1413.54 338 1442.5 246 c 0,8,9
 1451 219 1451 219 1451 179.5 c 128,-1,10
 1451 140 1451 140 1436 99.5 c 128,-1,11
 1421 59 1421 59 1393 30.5 c 0,12,13
 1334.54 -29 1334.54 -29 1249.77 -29 c 128,-1,0
 1165 -29 1165 -29 1123.5 13.5 c 128,-1,1
597.5 13.5 m 128,-1,15
 556 56 556 56 556 110.5 c 128,-1,16
 556 165 556 165 570.5 204 c 128,-1,17
 585 243 585 243 612 272.5 c 0,18,19
 671.949 338 671.949 338 764 338 c 0,20,21
 887.537 338 887.537 338 916.5 246 c 0,22,23
 925 219 925 219 925 179.5 c 128,-1,24
 925 140 925 140 910 99.5 c 128,-1,25
 895 59 895 59 867 30.5 c 0,26,27
 808.544 -29 808.544 -29 723.772 -29 c 128,-1,14
 639 -29 639 -29 597.5 13.5 c 128,-1,15
71.5 13.5 m 128,-1,29
 30 56 30 56 30 110.5 c 128,-1,30
 30 165 30 165 44.5 204 c 128,-1,31
 59 243 59 243 86 272.5 c 0,32,33
 145.949 338 145.949 338 238 338 c 0,34,35
 361.537 338 361.537 338 390.5 246 c 0,36,37
 399 219 399 219 399 179.5 c 128,-1,38
 399 140 399 140 384 99.5 c 128,-1,39
 369 59 369 59 341 30.5 c 0,40,41
 282.544 -29 282.544 -29 197.772 -29 c 128,-1,28
 113 -29 113 -29 71.5 13.5 c 128,-1,29
EndSplineSet
EndChar

StartChar: perthousand
Encoding: 8240 8240 259
Width: 2910
Flags: HW
LayerCount: 2
Fore
SplineSet
2565 918 m 0,0,1
 2889 918 2889 918 2889 574 c 0,2,3
 2889 371.88 2889 371.88 2758.5 220.5 c 0,4,5
 2619.28 59 2619.28 59 2406 59 c 0,6,7
 2247.62 59 2247.62 59 2163 156 c 0,8,9
 2081 250 2081 250 2081 421 c 0,10,11
 2081 614.86 2081 614.86 2217.5 763 c 0,12,13
 2360.32 918 2360.32 918 2565 918 c 0,0,1
2328.5 526 m 128,-1,15
 2316 478 2316 478 2316 420 c 128,-1,16
 2316 362 2316 362 2351 314 c 128,-1,17
 2386 266 2386 266 2443 266 c 128,-1,18
 2500 266 2500 266 2537 295.5 c 128,-1,19
 2574 325 2574 325 2597.5 367.5 c 0,20,21
 2644 451.596 2644 451.596 2644 537.298 c 128,-1,22
 2644 623 2644 623 2612 668 c 128,-1,23
 2580 713 2580 713 2524.5 713 c 128,-1,24
 2469 713 2469 713 2430.5 685 c 128,-1,25
 2392 657 2392 657 2366.5 615.5 c 128,-1,14
 2341 574 2341 574 2328.5 526 c 128,-1,15
586 1532 m 0,26,27
 910 1532 910 1532 910 1188 c 0,28,29
 910 985.88 910 985.88 779.5 834.5 c 0,30,31
 640.276 673 640.276 673 427 673 c 0,32,33
 268.617 673 268.617 673 184 770 c 0,34,35
 102 864 102 864 102 1035 c 0,36,37
 102 1228.86 102 1228.86 238.5 1377 c 0,38,39
 381.321 1532 381.321 1532 586 1532 c 0,26,27
1263 1530 m 1,40,-1
 1512 1530 l 1,41,-1
 805 0 l 1,42,-1
 536 0 l 1,43,-1
 1263 1530 l 1,40,-1
372 928 m 128,-1,45
 407 880 407 880 464 880 c 128,-1,46
 521 880 521 880 558 909.5 c 128,-1,47
 595 939 595 939 618.5 981.5 c 0,48,49
 665 1065.6 665 1065.6 665 1151.3 c 128,-1,50
 665 1237 665 1237 633 1282 c 128,-1,51
 601 1327 601 1327 545.5 1327 c 128,-1,52
 490 1327 490 1327 451.5 1299 c 128,-1,53
 413 1271 413 1271 387.5 1229.5 c 0,54,55
 337 1147.31 337 1147.31 337 1061.66 c 128,-1,44
 337 976 337 976 372 928 c 128,-1,45
1657 918 m 0,56,57
 1981 918 1981 918 1981 574 c 0,58,59
 1981 371.88 1981 371.88 1850.5 220.5 c 0,60,61
 1711.28 59 1711.28 59 1498 59 c 0,62,63
 1339.62 59 1339.62 59 1255 156 c 0,64,65
 1173 250 1173 250 1173 421 c 0,66,67
 1173 614.86 1173 614.86 1309.5 763 c 0,68,69
 1452.32 918 1452.32 918 1657 918 c 0,56,57
1420.5 526 m 128,-1,71
 1408 478 1408 478 1408 420 c 128,-1,72
 1408 362 1408 362 1443 314 c 128,-1,73
 1478 266 1478 266 1535 266 c 128,-1,74
 1592 266 1592 266 1629 295.5 c 128,-1,75
 1666 325 1666 325 1689.5 367.5 c 0,76,77
 1736 451.596 1736 451.596 1736 537.298 c 128,-1,78
 1736 623 1736 623 1704 668 c 128,-1,79
 1672 713 1672 713 1616.5 713 c 128,-1,80
 1561 713 1561 713 1522.5 685 c 128,-1,81
 1484 657 1484 657 1458.5 615.5 c 128,-1,70
 1433 574 1433 574 1420.5 526 c 128,-1,71
EndSplineSet
Ligature2: "'frac' Diagonal Fractions in Latin lookup 10 subtable" zero slash zero zero
EndChar

StartChar: florin
Encoding: 402 402 260
Width: 1059
Flags: HW
LayerCount: 2
Fore
SplineSet
993 1406 m 1,0,1
 945 1454 945 1454 878 1454 c 0,2,3
 822.056 1454 822.056 1454 797.028 1427.5 c 0,4,5
 755.747 1383.79 755.747 1383.79 738 1299 c 1,6,-1
 712 1155 l 1,7,-1
 901 1155 l 1,8,-1
 877 939 l 1,9,-1
 687 939 l 1,10,-1
 514 -326 l 2,11,12
 510 -354 510 -354 510 -355 c 1,13,-1
 162 -355 l 1,14,-1
 339 939 l 1,15,-1
 187 939 l 1,16,-1
 208 1125 l 1,17,-1
 369 1155 l 1,18,-1
 386 1245 l 1,19,20
 412.322 1433.3 412.322 1433.3 543 1550.5 c 0,21,22
 676.248 1670 676.248 1670 876 1670 c 0,23,24
 992.294 1670 992.294 1670 1055 1644 c 1,25,-1
 993 1406 l 1,0,1
EndSplineSet
EndChar

StartChar: kgreenlandic
Encoding: 312 312 261
Width: 1225
Flags: HW
LayerCount: 2
Fore
SplineSet
543 630 m 1,0,-1
 546 630 l 1,1,-1
 543 631 l 1,2,3
 674.772 704.792 674.772 704.792 755.5 861.5 c 0,4,5
 781 911 781 911 803 960.5 c 0,6,7
 845.494 1056.11 845.494 1056.11 866 1140 c 1,8,-1
 1219 1140 l 1,9,10
 1209.95 936.462 1209.95 936.462 1039 753 c 0,11,12
 961.449 669.774 961.449 669.774 875 622 c 1,13,-1
 1196 0 l 1,14,-1
 811 0 l 1,15,-1
 543 630 l 1,0,-1
231 1140 m 1,16,-1
 588 1140 l 1,17,-1
 433 0 l 1,18,-1
 76 0 l 1,19,-1
 231 1140 l 1,16,-1
EndSplineSet
EndChar

StartChar: scedilla
Encoding: 351 351 263
Width: 977
Flags: HW
LayerCount: 2
Fore
SplineSet
50 -233 m 1,0,1
 84.6667 -249 84.6667 -249 126.333 -249 c 128,-1,2
 168 -249 168 -249 200 -244 c 128,-1,3
 232 -239 232 -239 256 -225.5 c 0,4,5
 307.274 -196.658 307.274 -196.658 311 -124 c 0,6,7
 314.655 -65.5273 314.655 -65.5273 310 -12 c 1,8,9
 118.327 6.25455 118.327 6.25455 56 53 c 1,10,-1
 112 333 l 1,11,12
 169.112 279.696 169.112 279.696 307 243.5 c 0,13,14
 347 233 347 233 379 233 c 0,15,16
 524 233 524 233 524 316 c 0,17,18
 524 373.432 524 373.432 388 469 c 0,19,20
 213.365 591.717 213.365 591.717 175.5 725 c 0,21,22
 163 769 163 769 163 835 c 128,-1,23
 163 901 163 901 196 962.5 c 128,-1,24
 229 1024 229 1024 289.5 1067 c 0,25,26
 414.721 1156 414.721 1156 626 1156 c 0,27,28
 791.25 1156 791.25 1156 893 1119 c 1,29,-1
 855 820 l 1,30,31
 799.696 875.304 799.696 875.304 691.5 900.5 c 0,32,33
 655 909 655 909 604 909 c 128,-1,34
 553 909 553 909 523.5 885.5 c 128,-1,35
 494 862 494 862 494 833 c 128,-1,36
 494 804 494 804 505 784.5 c 128,-1,37
 516 765 516 765 537 745.5 c 128,-1,38
 558 726 558 726 589 702 c 128,-1,39
 620 678 620 678 665 641.5 c 128,-1,40
 710 605 710 605 748 570.5 c 128,-1,41
 786 536 786 536 811 499.5 c 0,42,43
 861 426.5 861 426.5 861 338.25 c 128,-1,44
 861 250 861 250 833 190.5 c 128,-1,45
 805 131 805 131 757.5 90 c 0,46,47
 669.695 14.2106 669.695 14.2106 512 -8 c 1,48,49
 555 -131.625 555 -131.625 555 -209.812 c 128,-1,50
 555 -288 555 -288 539 -330.5 c 128,-1,51
 523 -373 523 -373 487.5 -404 c 0,52,53
 410.774 -471 410.774 -471 254 -471 c 0,54,55
 172.833 -471 172.833 -471 97.9167 -456.5 c 128,-1,56
 23 -442 23 -442 14 -436 c 1,57,-1
 50 -233 l 1,0,1
EndSplineSet
Substitution2: "'locl' Localized Forms lookup 7 subtable" uni0219
Substitution2: "'locl' Localized Forms lookup 6 subtable" uni0219
Substitution2: "'aalt' Access All Alternates in Latin lookup 0 subtable" uni0219
EndChar

StartChar: trademark
Encoding: 8482 8482 269
Width: 2120
Flags: HW
LayerCount: 2
Fore
SplineSet
1043 1530 m 1,0,-1
 1356 1530 l 1,1,-1
 1443 1134 l 1,2,-1
 1468 951 l 1,3,-1
 1708 1530 l 1,4,-1
 2026 1530 l 1,5,-1
 1989 714 l 1,6,-1
 1795 714 l 1,7,-1
 1836 1255 l 1,8,-1
 1853 1440 l 1,9,-1
 1538 706 l 1,10,-1
 1361 706 l 1,11,-1
 1240 1255 l 1,12,-1
 1206 1440 l 1,13,-1
 1094 714 l 1,14,-1
 893 714 l 1,15,-1
 1043 1530 l 1,0,-1
420 1360 m 1,16,-1
 179 1360 l 1,17,-1
 207 1530 l 1,18,-1
 873 1530 l 1,19,-1
 851 1360 l 1,20,-1
 611 1360 l 1,21,-1
 517 714 l 1,22,-1
 326 713 l 1,23,-1
 420 1360 l 1,16,-1
EndSplineSet
EndChar

StartChar: estimated
Encoding: 8494 8494 270
Width: 1442
Flags: HW
LayerCount: 2
Fore
SplineSet
1316 832 m 1,0,1
 1316 659.5 1316 659.5 1306 612 c 1,2,-1
 500 612 l 1,3,-1
 500 221 l 1,4,5
 602.878 147 602.878 147 780 147 c 0,6,7
 952.333 147 952.333 147 1099 224 c 0,8,9
 1139 245 1139 245 1166 266 c 1,10,-1
 1239 115 l 1,11,12
 1117.93 30.6161 1117.93 30.6161 916 -4 c 0,13,14
 846 -16 846 -16 771 -16 c 0,15,16
 466.158 -16 466.158 -16 295 166.5 c 0,17,18
 125 347.765 125 347.765 125 671 c 0,19,20
 125 977.152 125 977.152 282 1158 c 0,21,22
 453.983 1356.11 453.983 1356.11 777.013 1356.11 c 0,23,24
 1000.8 1356.11 1000.8 1356.11 1150 1219 c 0,25,26
 1308.14 1073.68 1308.14 1073.68 1316 832 c 1,0,1
954 1153 m 1,27,28
 874 1193 874 1193 734.368 1193 c 128,-1,29
 594.737 1193 594.737 1193 500 1121 c 1,30,-1
 500 768 l 1,31,-1
 954 768 l 1,32,-1
 954 1153 l 1,27,28
EndSplineSet
EndChar

StartChar: notequal
Encoding: 8800 8800 271
Width: 1084
Flags: HW
LayerCount: 2
Fore
SplineSet
281 315 m 1,0,-1
 106 315 l 1,1,-1
 143 563 l 1,2,-1
 396 563 l 1,3,-1
 509 808 l 1,4,-1
 161 808 l 1,5,-1
 198 1056 l 1,6,-1
 623 1056 l 1,7,-1
 759 1350 l 1,8,-1
 982 1350 l 1,9,-1
 846 1056 l 1,10,-1
 1038 1056 l 1,11,-1
 1001 808 l 1,12,-1
 731 808 l 1,13,-1
 618 563 l 1,14,-1
 983 563 l 1,15,-1
 946 315 l 1,16,-1
 503 315 l 1,17,-1
 358 0 l 1,18,-1
 136 0 l 1,19,-1
 281 315 l 1,0,-1
EndSplineSet
EndChar

StartChar: minute
Encoding: 8242 8242 272
Width: 623
Flags: HW
LayerCount: 2
Fore
SplineSet
349 1782 m 1,0,-1
 654 1782 l 1,1,-1
 463 1190 l 1,2,-1
 225 1190 l 1,3,-1
 349 1782 l 1,0,-1
EndSplineSet
EndChar

StartChar: quotereversed
Encoding: 8219 8219 274
Width: 688
Flags: HW
LayerCount: 2
Fore
SplineSet
450 886 m 1,0,1
 280.846 1021.32 280.846 1021.32 225.5 1220 c 0,2,3
 206 1290 206 1290 206 1371 c 128,-1,4
 206 1452 206 1452 232.5 1523 c 128,-1,5
 259 1594 259 1594 301 1647 c 0,6,7
 388.993 1758.04 388.993 1758.04 497 1771 c 1,8,-1
 634 1567 l 1,9,-1
 628 1526 l 1,10,11
 525.301 1488.65 525.301 1488.65 491.5 1361.5 c 0,12,13
 481 1322 481 1322 481 1279.5 c 128,-1,14
 481 1237 481 1237 491 1197.5 c 128,-1,15
 501 1158 501 1158 516.5 1124.5 c 0,16,17
 546.35 1059.99 546.35 1059.99 586 1025 c 1,18,-1
 582 1003 l 1,19,-1
 450 886 l 1,0,1
EndSplineSet
EndChar

StartChar: OE
Encoding: 338 338 276
Width: 2211
Flags: HW
LayerCount: 2
Fore
SplineSet
1107 199 m 1,0,1
 906.901 -16 906.901 -16 618 -16 c 0,2,3
 353.074 -16 353.074 -16 204 159 c 0,4,5
 66 321 66 321 66 578 c 0,6,7
 66 985.565 66 985.565 266.5 1258 c 0,8,9
 401.135 1440.94 401.135 1440.94 601 1510.5 c 0,10,11
 703 1546 703 1546 840.5 1546 c 128,-1,12
 978 1546 978 1546 1089 1482.5 c 128,-1,13
 1200 1419 1200 1419 1267 1314 c 1,14,-1
 1298 1530 l 1,15,-1
 2212 1530 l 1,16,-1
 2175 1255 l 1,17,-1
 1613 1257 l 1,18,-1
 1565 920 l 1,19,-1
 1984 925 l 1,20,-1
 1948 649 l 1,21,-1
 1527 658 l 1,22,-1
 1472 270 l 1,23,-1
 2105 280 l 1,24,-1
 2068 0 l 1,25,-1
 1079 0 l 1,26,-1
 1107 199 l 1,0,1
553 267 m 128,-1,28
 593 250 593 250 647.5 250 c 128,-1,29
 702 250 702 250 750 279 c 128,-1,30
 798 308 798 308 837 357.5 c 128,-1,31
 876 407 876 407 906.5 474 c 128,-1,32
 937 541 937 541 958 617.5 c 0,33,34
 1000 770.5 1000 770.5 1000 902.25 c 128,-1,35
 1000 1034 1000 1034 986 1100.5 c 128,-1,36
 972 1167 972 1167 944.5 1207 c 0,37,38
 894.312 1280 894.312 1280 783 1280 c 0,39,40
 678.148 1280 678.148 1280 592.5 1170.5 c 0,41,42
 475.513 1020.93 475.513 1020.93 440.5 752.5 c 0,43,44
 430 672 430 672 430 584.5 c 128,-1,45
 430 497 430 497 444 430.5 c 128,-1,46
 458 364 458 364 485.5 324 c 128,-1,27
 513 284 513 284 553 267 c 128,-1,28
EndSplineSet
EndChar

StartChar: gcommaaccent
Encoding: 291 291 289
Width: 1269
Flags: HW
LayerCount: 2
Fore
SplineSet
779 1249 m 1,0,1
 711.679 1262.86 711.679 1262.86 665.5 1323 c 0,2,3
 620 1382.26 620 1382.26 620 1453.63 c 128,-1,4
 620 1525 620 1525 641 1579 c 128,-1,5
 662 1633 662 1633 695.5 1673.5 c 0,6,7
 764.418 1756.82 764.418 1756.82 849 1772 c 1,8,-1
 950 1702 l 1,9,-1
 947 1676 l 1,10,11
 905.548 1652.97 905.548 1652.97 885.5 1595.5 c 0,12,13
 878 1574 878 1574 878 1551 c 128,-1,14
 878 1528 878 1528 883 1510.5 c 128,-1,15
 888 1493 888 1493 897 1479 c 0,16,17
 916.97 1447.94 916.97 1447.94 946 1446 c 1,18,-1
 935 1353 l 1,19,-1
 779 1249 l 1,0,1
773.312 1156 m 0,20,21
 890.625 1156 890.625 1156 1020 1111 c 1,22,-1
 1208 1156 l 1,23,-1
 1044 -29 l 1,24,25
 998.093 -375.067 998.093 -375.067 676.5 -477.5 c 0,26,27
 552.488 -517 552.488 -517 394 -517 c 0,28,29
 282.875 -517 282.875 -517 210.438 -498 c 128,-1,30
 138 -479 138 -479 123 -472 c 1,31,-1
 175 -217 l 1,32,33
 194.64 -236.64 194.64 -236.64 257.82 -260.82 c 0,34,35
 381.097 -308 381.097 -308 448.048 -308 c 128,-1,36
 515 -308 515 -308 552 -292.5 c 128,-1,37
 589 -277 589 -277 614 -249 c 0,38,39
 655.874 -202.101 655.874 -202.101 676 -97 c 1,40,-1
 739 256 l 1,41,42
 687.442 140.608 687.442 140.608 630.721 87.304 c 0,43,44
 520.795 -16 520.795 -16 415.897 -16 c 128,-1,45
 311 -16 311 -16 247 18.5 c 128,-1,46
 183 53 183 53 143.5 111.5 c 0,47,48
 70 220.354 70 220.354 70 412 c 0,49,50
 70 712.195 70 712.195 246 922.5 c 0,51,52
 441.411 1156 441.411 1156 773.312 1156 c 0,20,21
822 941 m 1,53,54
 793.667 946 793.667 946 745.333 946 c 128,-1,55
 697 946 697 946 654 924.5 c 128,-1,56
 611 903 611 903 577 866.5 c 128,-1,57
 543 830 543 830 517.5 780 c 128,-1,58
 492 730 492 730 475.5 673 c 0,59,60
 442 557.273 442 557.273 442 433 c 0,61,62
 442 228 442 228 531 228 c 0,63,64
 618.381 228 618.381 228 717 446 c 0,65,66
 753.992 527.773 753.992 527.773 776 607 c 1,67,-1
 822 941 l 1,53,54
EndSplineSet
EndChar

StartChar: macron.cap
Encoding: 65548 -1 313
Width: 620
Flags: HW
LayerCount: 2
Fore
SplineSet
56 1916 m 1,0,-1
 633 1916 l 1,1,-1
 613 1707 l 1,2,-1
 36 1707 l 1,3,-1
 56 1916 l 1,0,-1
EndSplineSet
EndChar

StartChar: hcircumflex
Encoding: 293 293 371
Width: 1314
Flags: HW
LayerCount: 2
Fore
SplineSet
825.367 801.197 m 0,0,1
 825.367 887 825.367 887 744 887 c 0,2,3
 657.377 887 657.377 887 568.5 775.5 c 0,4,5
 541 741 541 741 519 698 c 1,6,-1
 425 0 l 1,7,-1
 78 0 l 1,8,-1
 298 1634 l 1,9,-1
 646 1634 l 1,10,-1
 640 1593 l 1,11,-1
 872 1810 l 1,12,-1
 1052 1810 l 1,13,-1
 1264 1473 l 1,14,-1
 1119 1395 l 1,15,-1
 936 1562 l 1,16,-1
 649 1395 l 1,17,-1
 616 1410 l 1,18,-1
 571 1072 l 1,19,-1
 542 921 l 1,20,21
 645.571 1090.48 645.571 1090.48 806 1139.5 c 0,22,23
 860 1156 860 1156 921.5 1156 c 128,-1,24
 983 1156 983 1156 1034.5 1140.5 c 128,-1,25
 1086 1125 1086 1125 1122 1089 c 0,26,27
 1196 1015 1196 1015 1196 854 c 0,28,29
 1196 803.533 1196 803.533 1180 687.267 c 2,30,-1
 1156 511 l 2,31,32
 1147 442 1147 442 1136.5 371 c 0,33,34
 1091 52.5 1091 52.5 1084 0 c 1,35,-1
 727 0 l 1,36,37
 770.604 303.965 770.604 303.965 779.802 374.483 c 2,38,-1
 797 510 l 2,39,40
 825.367 736.939 825.367 736.939 825.367 801.197 c 0,0,1
EndSplineSet
EndChar

StartChar: lozenge
Encoding: 9674 9674 388
Width: 1375
Flags: HW
LayerCount: 2
Fore
SplineSet
85 768 m 1,0,-1
 85 781 l 1,1,-1
 700 1549 l 1,2,-1
 704 1549 l 1,3,-1
 1319 781 l 1,4,-1
 1319 768 l 1,5,-1
 704 -2 l 1,6,-1
 699 -2 l 1,7,-1
 85 768 l 1,0,-1
703 415 m 1,8,-1
 976 773 l 1,9,-1
 976 776 l 1,10,-1
 703 1116 l 1,11,-1
 700 1116 l 1,12,-1
 428 776 l 1,13,-1
 428 771 l 1,14,-1
 700 415 l 1,15,-1
 703 415 l 1,8,-1
EndSplineSet
EndChar

StartChar: Scedilla
Encoding: 350 350 393
Width: 1070
Flags: HW
LayerCount: 2
Fore
SplineSet
142 -233 m 1,0,1
 176.667 -249 176.667 -249 218.333 -249 c 128,-1,2
 260 -249 260 -249 292 -244 c 128,-1,3
 324 -239 324 -239 348 -225.5 c 0,4,5
 399.274 -196.658 399.274 -196.658 403 -124 c 0,6,7
 404.5 -92.5 404.5 -92.5 404.5 -65.5 c 128,-1,8
 404.5 -38.5 404.5 -38.5 403 -16 c 1,9,10
 232.727 -16 232.727 -16 66 49.5 c 0,11,12
 24 66 24 66 7 80 c 1,13,-1
 127 368 l 1,14,15
 212.718 303.712 212.718 303.712 340.5 276 c 0,16,17
 382 267 382 267 429.5 267 c 128,-1,18
 477 267 477 267 515.5 279 c 128,-1,19
 554 291 554 291 578 311.5 c 0,20,21
 621.778 348.894 621.778 348.894 624 420 c 0,22,23
 625.936 483.899 625.936 483.899 594.468 523.95 c 0,24,25
 548.249 582.774 548.249 582.774 469.125 642.387 c 128,-1,26
 390 702 390 702 344.5 746 c 128,-1,27
 299 790 299 790 262.5 843 c 0,28,29
 180 962.794 180 962.794 180 1078.4 c 128,-1,30
 180 1194 180 1194 218 1278.5 c 128,-1,31
 256 1363 256 1363 326 1422.5 c 0,32,33
 471.294 1546 471.294 1546 714 1546 c 0,34,35
 894.067 1546 894.067 1546 1021 1490 c 0,36,37
 1055 1475 1055 1475 1075 1461 c 1,38,-1
 963 1180 l 1,39,40
 905.778 1237.22 905.778 1237.22 780.5 1260 c 0,41,42
 742 1267 742 1267 699 1267 c 128,-1,43
 656 1267 656 1267 621 1255.5 c 128,-1,44
 586 1244 586 1244 563 1225 c 0,45,46
 517.935 1187.77 517.935 1187.77 517.935 1139.87 c 128,-1,47
 517.935 1091.97 517.935 1091.97 531.968 1061.48 c 128,-1,48
 546 1031 546 1031 571.5 1001 c 128,-1,49
 597 971 597 971 632.5 941.5 c 2,50,-1
 709 879 l 1,51,52
 833.985 779.58 833.985 779.58 883.492 716.79 c 0,53,54
 986 586.781 986 586.781 986 458 c 0,55,56
 986 183.462 986 183.462 759.5 61.5 c 0,57,58
 688 23 688 23 599 4 c 1,59,60
 647 -108 647 -108 647 -238 c 0,61,62
 647 -402.757 647 -402.757 486.5 -453 c 0,63,64
 429 -471 429 -471 377.5 -471 c 128,-1,65
 326 -471 326 -471 289.5 -468 c 128,-1,66
 253 -465 253 -465 215 -459.5 c 0,67,68
 120.798 -445.866 120.798 -445.866 106 -436 c 1,69,-1
 142 -233 l 1,0,1
EndSplineSet
Substitution2: "'locl' Localized Forms lookup 7 subtable" uni0218
Substitution2: "'locl' Localized Forms lookup 6 subtable" uni0218
Substitution2: "'aalt' Access All Alternates in Latin lookup 0 subtable" uni0218
EndChar

StartChar: uni0162
Encoding: 354 354 396
Width: 1165
Flags: HW
LayerCount: 2
Fore
SplineSet
127 -233 m 1,0,1
 161.667 -249 161.667 -249 203.333 -249 c 128,-1,2
 245 -249 245 -249 277 -244 c 128,-1,3
 309 -239 309 -239 333 -225.5 c 0,4,5
 384.274 -196.658 384.274 -196.658 388 -124 c 0,6,7
 389.6 -94.4 389.6 -94.4 389.6 -61 c 128,-1,8
 389.6 -27.6 389.6 -27.6 386 0 c 1,9,-1
 326 0 l 1,10,-1
 507 1266 l 1,11,-1
 148 1255 l 1,12,-1
 192 1530 l 1,13,-1
 1259 1530 l 1,14,-1
 1219 1255 l 1,15,-1
 867 1266 l 1,16,-1
 686 0 l 1,17,-1
 585 0 l 1,18,19
 632 -114.889 632 -114.889 632 -238 c 0,20,21
 632 -402.757 632 -402.757 471.5 -453 c 0,22,23
 414 -471 414 -471 362.5 -471 c 128,-1,24
 311 -471 311 -471 274.5 -468 c 128,-1,25
 238 -465 238 -465 200 -459.5 c 0,26,27
 105.798 -445.866 105.798 -445.866 91 -436 c 1,28,-1
 127 -233 l 1,0,1
EndSplineSet
Substitution2: "'locl' Localized Forms lookup 7 subtable" uni021A
Substitution2: "'aalt' Access All Alternates in Latin lookup 0 subtable" uni021A
EndChar

StartChar: uni0163
Encoding: 355 355 397
Width: 839
Flags: HW
LayerCount: 2
Fore
SplineSet
-6 -233 m 1,0,1
 28.6667 -249 28.6667 -249 70.3333 -249 c 128,-1,2
 112 -249 112 -249 144 -244 c 128,-1,3
 176 -239 176 -239 200 -225.5 c 0,4,5
 251.274 -196.658 251.274 -196.658 255 -124 c 0,6,7
 256.6 -95.2 256.6 -95.2 256.6 -79 c 0,8,9
 256.6 -29.6 256.6 -29.6 253 -2 c 1,10,11
 125 44.1639 125 44.1639 125 195 c 0,12,13
 125 213.5 125 213.5 129.5 256.25 c 2,14,-1
 137.5 332.5 l 2,15,16
 141 366 141 366 146 398 c 2,17,-1
 218 924 l 1,18,-1
 134 924 l 1,19,-1
 170 1140 l 1,20,-1
 275 1140 l 1,21,-1
 373 1416 l 1,22,-1
 640 1416 l 1,23,-1
 603 1140 l 1,24,-1
 825 1140 l 1,25,-1
 802 924 l 1,26,-1
 575 924 l 1,27,-1
 495 341.5 l 2,28,29
 491 312 491 312 491 288 c 0,30,31
 491 224 491 224 561 224 c 0,32,33
 616.267 224 616.267 224 696 276 c 0,34,35
 719 291 719 291 736 306 c 1,36,-1
 790 136 l 1,37,38
 640.642 16.514 640.642 16.514 457 -13 c 1,39,40
 499 -133.75 499 -133.75 499 -210.875 c 128,-1,41
 499 -288 499 -288 483 -330.5 c 128,-1,42
 467 -373 467 -373 431.5 -404 c 0,43,44
 354.774 -471 354.774 -471 198 -471 c 0,45,46
 116.833 -471 116.833 -471 41.9167 -456.5 c 128,-1,47
 -33 -442 -33 -442 -42 -436 c 1,48,-1
 -6 -233 l 1,0,1
EndSplineSet
Substitution2: "'locl' Localized Forms lookup 7 subtable" uni021B
Substitution2: "'aalt' Access All Alternates in Latin lookup 0 subtable" uni021B
EndChar

StartChar: lacute
Encoding: 314 314 413
Width: 665
Flags: HW
LayerCount: 2
Fore
SplineSet
289 1530 m 1,0,-1
 648 1530 l 1,1,-1
 440 0 l 1,2,-1
 83 0 l 1,3,-1
 289 1530 l 1,0,-1
334 1672 m 1,4,-1
 613 2014 l 1,5,-1
 823 1827 l 1,6,7
 773.367 1731.55 773.367 1731.55 598 1615.5 c 0,8,9
 527.82 1569.06 527.82 1569.06 477 1550 c 1,10,-1
 334 1672 l 1,4,-1
EndSplineSet
EndChar

StartChar: iogonek
Encoding: 303 303 414
Width: 664
Flags: HW
LayerCount: 2
Fore
SplineSet
599.5 1329 m 0,0,1
 559 1313 559 1313 515 1313 c 128,-1,2
 471 1313 471 1313 440 1326 c 0,3,4
 377.614 1352.16 377.614 1352.16 349 1414.5 c 0,5,6
 335.933 1442.97 335.933 1442.97 335.933 1480.73 c 128,-1,7
 335.933 1518.49 335.933 1518.49 351.967 1556.24 c 128,-1,8
 368 1594 368 1594 395.5 1621.5 c 0,9,10
 455 1681 455 1681 546 1681 c 0,11,12
 623.8 1681 623.8 1681 675.5 1631.5 c 0,13,14
 723.074 1585.95 723.074 1585.95 723.074 1520.02 c 0,15,16
 723.074 1377.82 723.074 1377.82 599.5 1329 c 0,0,1
452 -387 m 1,17,18
 332.905 -510 332.905 -510 123 -510 c 0,19,20
 28.7547 -510 28.7547 -510 -32 -452.5 c 0,21,22
 -90 -397.607 -90 -397.607 -90 -329.804 c 128,-1,23
 -90 -262 -90 -262 -60.5 -211.5 c 128,-1,24
 -31 -161 -31 -161 11.5 -119 c 0,25,26
 93.2196 -38.2418 93.2196 -38.2418 185 0 c 1,27,-1
 80 0 l 1,28,-1
 236 1140 l 1,29,-1
 595 1140 l 1,30,-1
 437 0 l 1,31,32
 272.93 -67.5581 272.93 -67.5581 210.5 -154 c 0,33,34
 191 -181 191 -181 191 -205 c 0,35,36
 191 -277 191 -277 259.636 -277 c 128,-1,37
 328.273 -277 328.273 -277 411 -212 c 1,38,-1
 452 -387 l 1,17,18
EndSplineSet
EndChar

StartChar: uogonek
Encoding: 371 371 415
Width: 1292
Flags: HW
LayerCount: 2
Fore
SplineSet
1082 -387 m 1,0,1
 962.905 -510 962.905 -510 753 -510 c 0,2,3
 658.755 -510 658.755 -510 598 -452.5 c 0,4,5
 540 -397.607 540 -397.607 540 -329.804 c 128,-1,6
 540 -262 540 -262 569.5 -211.5 c 128,-1,7
 599 -161 599 -161 641.5 -119 c 0,8,9
 723.22 -38.2419 723.22 -38.2419 815 0 c 1,10,-1
 749 0 l 1,11,-1
 755 194 l 1,12,13
 663.271 49.3499 663.271 49.3499 513.5 -2 c 0,14,15
 461 -20 461 -20 404 -20 c 128,-1,16
 347 -20 347 -20 297 -7.5 c 128,-1,17
 247 5 247 5 208 35 c 0,18,19
 122.868 100.486 122.868 100.486 121 235 c 1,20,21
 121 352.286 121 352.286 157 594 c 1,22,-1
 232 1140 l 1,23,-1
 585 1140 l 1,24,-1
 515 589 l 1,25,-1
 505 515 l 2,26,27
 488 385.8 488 385.8 488 333.9 c 128,-1,28
 488 282 488 282 509 258 c 128,-1,29
 530 234 530 234 557 234 c 256,30,31
 632.636 234 632.636 234 719 348 c 0,32,33
 744 381 744 381 765 417 c 1,34,-1
 866 1140 l 1,35,-1
 1223 1140 l 1,36,-1
 1067 0 l 1,37,38
 902.93 -67.5581 902.93 -67.5581 840.5 -154 c 0,39,40
 821 -181 821 -181 821 -205 c 0,41,42
 821 -277 821 -277 889.636 -277 c 128,-1,43
 958.273 -277 958.273 -277 1041 -212 c 1,44,-1
 1082 -387 l 1,0,1
EndSplineSet
EndChar

StartChar: Iogonek
Encoding: 302 302 417
Width: 706
Flags: HW
LayerCount: 2
Fore
SplineSet
376 -387 m 1,0,1
 256.905 -510 256.905 -510 47 -510 c 0,2,3
 -47.2453 -510 -47.2453 -510 -108 -452.5 c 0,4,5
 -166 -397.607 -166 -397.607 -166 -329.804 c 128,-1,6
 -166 -262 -166 -262 -136.5 -211.5 c 128,-1,7
 -107 -161 -107 -161 -64.5 -119 c 0,8,9
 17.2196 -38.2419 17.2196 -38.2419 109 0 c 1,10,-1
 98 0 l 1,11,-1
 317 1530 l 1,12,-1
 671 1530 l 1,13,-1
 452 0 l 1,14,-1
 361 0 l 1,15,16
 196.93 -67.5581 196.93 -67.5581 134.5 -154 c 0,17,18
 115 -181 115 -181 115 -205 c 0,19,20
 115 -277 115 -277 183.636 -277 c 128,-1,21
 252.273 -277 252.273 -277 335 -212 c 1,22,-1
 376 -387 l 1,0,1
EndSplineSet
EndChar

StartChar: Uogonek
Encoding: 370 370 418
Width: 1452
Flags: HW
LayerCount: 2
Fore
SplineSet
740 -12 m 1,0,1
 688 -16 688 -16 595 -16 c 128,-1,2
 502 -16 502 -16 407 15 c 128,-1,3
 312 46 312 46 249.5 104.5 c 0,4,5
 127 219.16 127 219.16 127 432 c 0,6,7
 126.778 440.667 126.778 440.667 126.778 460.333 c 0,8,9
 126.778 512 126.778 512 140 597 c 1,10,-1
 273 1530 l 1,11,-1
 626 1530 l 1,12,-1
 500 642 l 2,13,14
 489 566.375 489 566.375 489 480.188 c 128,-1,15
 489 394 489 394 500 356.5 c 128,-1,16
 511 319 511 319 534.5 296.5 c 0,17,18
 577.844 255 577.844 255 662.922 255 c 128,-1,19
 748 255 748 255 794 272.5 c 128,-1,20
 840 290 840 290 874 333.5 c 0,21,22
 938.644 416.207 938.644 416.207 972 634 c 1,23,-1
 1099 1530 l 1,24,-1
 1451 1530 l 1,25,-1
 1321 597 l 2,26,27
 1265.95 199.873 1265.95 199.873 1035 69 c 1,28,-1
 1045 68 l 1,29,30
 946.586 8.95171 946.586 8.95171 884.793 -50.5241 c 0,31,32
 771 -160.05 771 -160.05 771 -205 c 0,33,34
 771 -277 771 -277 839.636 -277 c 128,-1,35
 908.273 -277 908.273 -277 991 -212 c 1,36,-1
 1032 -387 l 1,37,38
 912.905 -510 912.905 -510 703 -510 c 0,39,40
 608.755 -510 608.755 -510 548 -452.5 c 0,41,42
 490 -397.607 490 -397.607 490 -331.804 c 128,-1,43
 490 -266 490 -266 515 -219.5 c 128,-1,44
 540 -173 540 -173 577.5 -133 c 0,45,46
 645.391 -60.5831 645.391 -60.5831 740 -12 c 1,0,1
EndSplineSet
EndChar

StartChar: Hbar
Encoding: 294 294 419
Width: 1512
Flags: HW
LayerCount: 2
Fore
SplineSet
215 917 m 1,0,-1
 -1 917 l 1,1,-1
 24 1168 l 1,2,-1
 251 1168 l 1,3,-1
 303 1530 l 1,4,-1
 657 1530 l 1,5,-1
 605 1168 l 1,6,-1
 1087 1168 l 1,7,-1
 1139 1530 l 1,8,-1
 1497 1530 l 1,9,-1
 1445 1168 l 1,10,-1
 1639 1168 l 1,11,-1
 1613 917 l 1,12,-1
 1409 917 l 1,13,-1
 1278 0 l 1,14,-1
 920 0 l 1,15,-1
 983 441 l 1,16,-1
 501 441 l 1,17,-1
 438 0 l 1,18,-1
 84 0 l 1,19,-1
 215 917 l 1,0,-1
1019 692 m 1,20,-1
 1051 917 l 1,21,-1
 569 917 l 1,22,-1
 537 692 l 1,23,-1
 1019 692 l 1,20,-1
EndSplineSet
EndChar

StartChar: Tbar
Encoding: 358 358 422
Width: 1165
Flags: HW
LayerCount: 2
Fore
SplineSet
417 635 m 1,0,-1
 188 635 l 1,1,-1
 218 886 l 1,2,-1
 453 886 l 1,3,-1
 507 1266 l 1,4,-1
 148 1255 l 1,5,-1
 192 1530 l 1,6,-1
 1259 1530 l 1,7,-1
 1219 1255 l 1,8,-1
 867 1266 l 1,9,-1
 813 886 l 1,10,-1
 1058 886 l 1,11,-1
 1027 635 l 1,12,-1
 777 635 l 1,13,-1
 686 0 l 1,14,-1
 326 0 l 1,15,-1
 417 635 l 1,0,-1
EndSplineSet
EndChar

StartChar: tbar
Encoding: 359 359 423
Width: 839
Flags: HW
LayerCount: 2
Fore
SplineSet
790 136 m 1,0,1
 595 -20 595 -20 360 -20 c 0,2,3
 252 -20 252 -20 188.5 36 c 128,-1,4
 125 92 125 92 125 195 c 0,5,6
 125 213.5 125 213.5 129.5 256.25 c 2,7,-1
 137.5 332.5 l 2,8,9
 141 366 141 366 146 398 c 2,10,-1
 176 621 l 1,11,-1
 116 621 l 1,12,-1
 132 751 l 1,13,-1
 194 751 l 1,14,-1
 218 924 l 1,15,-1
 134 924 l 1,16,-1
 170 1140 l 1,17,-1
 275 1140 l 1,18,-1
 373 1416 l 1,19,-1
 640 1416 l 1,20,-1
 603 1140 l 1,21,-1
 825 1140 l 1,22,-1
 802 924 l 1,23,-1
 575 924 l 1,24,-1
 551 751 l 1,25,-1
 714 751 l 1,26,-1
 698 621 l 1,27,-1
 533 621 l 1,28,-1
 495 341.5 l 2,29,30
 491 312 491 312 491 288 c 0,31,32
 491 224 491 224 561 224 c 0,33,34
 616.267 224 616.267 224 696 276 c 0,35,36
 719 291 719 291 736 306 c 1,37,-1
 790 136 l 1,0,1
EndSplineSet
EndChar

StartChar: dcroat
Encoding: 273 273 425
Width: 1274
Flags: HW
LayerCount: 2
Fore
SplineSet
528 12 m 0,0,1
 473 -16 473 -16 392 -16 c 128,-1,2
 311 -16 311 -16 247 18.5 c 128,-1,3
 183 53 183 53 143.5 111.5 c 0,4,5
 70 220.354 70 220.354 70 412 c 0,6,7
 70 712.195 70 712.195 246 922.5 c 0,8,9
 441.411 1156 441.411 1156 773 1156 c 0,10,11
 812 1156 812 1156 853 1150 c 1,12,-1
 868 1262 l 1,13,-1
 642 1262 l 1,14,-1
 658 1392 l 1,15,-1
 886 1392 l 1,16,-1
 920 1634 l 1,17,-1
 1264 1634 l 1,18,-1
 1233 1392 l 1,19,-1
 1400 1392 l 1,20,-1
 1384 1262 l 1,21,-1
 1216 1262 l 1,22,-1
 1053 0 l 1,23,-1
 734 0 l 1,24,-1
 748 279 l 1,25,26
 671.162 84.8823 671.162 84.8823 528 12 c 0,0,1
531 228 m 0,27,28
 644 228 644 228 755 542.5 c 0,29,30
 770 585 770 585 780 620 c 1,31,-1
 824 937 l 1,32,33
 791 946 791 946 744 946 c 128,-1,34
 697 946 697 946 654 924.5 c 128,-1,35
 611 903 611 903 577 866.5 c 128,-1,36
 543 830 543 830 517.5 780 c 128,-1,37
 492 730 492 730 475.5 673 c 0,38,39
 442 557.273 442 557.273 442 433 c 0,40,41
 442 228 442 228 531 228 c 0,27,28
EndSplineSet
EndChar

StartChar: hbar
Encoding: 295 295 426
Width: 1314
Flags: HW
LayerCount: 2
Fore
SplineSet
825.367 801.197 m 0,0,1
 825.367 887 825.367 887 744 887 c 0,2,3
 657.377 887 657.377 887 568.5 775.5 c 0,4,5
 541 741 541 741 519 698 c 1,6,-1
 425 0 l 1,7,-1
 78 0 l 1,8,-1
 248 1262 l 1,9,-1
 126 1262 l 1,10,-1
 142 1392 l 1,11,-1
 265 1392 l 1,12,-1
 298 1634 l 1,13,-1
 646 1634 l 1,14,-1
 614 1392 l 1,15,-1
 824 1392 l 1,16,-1
 808 1262 l 1,17,-1
 596 1262 l 1,18,-1
 571 1072 l 1,19,-1
 542 921 l 1,20,21
 645.571 1090.48 645.571 1090.48 806 1139.5 c 0,22,23
 860 1156 860 1156 921.5 1156 c 128,-1,24
 983 1156 983 1156 1034.5 1140.5 c 128,-1,25
 1086 1125 1086 1125 1122 1089 c 0,26,27
 1196 1015 1196 1015 1196 854 c 0,28,29
 1196 803.533 1196 803.533 1180 687.267 c 2,30,-1
 1156 511 l 2,31,32
 1147 442 1147 442 1136.5 371 c 0,33,34
 1091 52.5 1091 52.5 1084 0 c 1,35,-1
 727 0 l 1,36,37
 770.604 303.965 770.604 303.965 779.802 374.483 c 2,38,-1
 797 510 l 2,39,40
 825.367 736.939 825.367 736.939 825.367 801.197 c 0,0,1
EndSplineSet
EndChar

StartChar: eng
Encoding: 331 331 427
Width: 1322
Flags: HW
LayerCount: 2
Fore
SplineSet
835.367 801.197 m 0,0,1
 835.367 887 835.367 887 754 887 c 0,2,3
 667.377 887 667.377 887 578.5 775.5 c 0,4,5
 551 741 551 741 529 698 c 1,6,-1
 433 0 l 1,7,-1
 76 0 l 1,8,-1
 232 1140 l 1,9,-1
 573 1140 l 1,10,-1
 560 934 l 1,11,12
 703.647 1156 703.647 1156 929 1156 c 0,13,14
 1206 1156 1206 1156 1206 854 c 0,15,16
 1206 803 1206 803 1191 683 c 0,17,18
 1157.67 426.243 1157.67 426.243 1142.34 320.122 c 2,19,-1
 1094 0 l 1,20,21
 1042.03 -311.81 1042.03 -311.81 919.5 -426.5 c 0,22,23
 857 -485 857 -485 772.5 -506.5 c 128,-1,24
 688 -528 688 -528 618.5 -528 c 128,-1,25
 549 -528 549 -528 518 -525.5 c 128,-1,26
 487 -523 487 -523 459 -518.5 c 0,27,28
 395.352 -508.271 395.352 -508.271 380 -491 c 1,29,-1
 418 -370 l 1,30,31
 446 -382 446 -382 498 -382 c 128,-1,32
 550 -382 550 -382 590.5 -358 c 128,-1,33
 631 -334 631 -334 659 -286 c 0,34,35
 706.972 -203.763 706.972 -203.763 737 0 c 1,36,37
 835.367 692.454 835.367 692.454 835.367 801.197 c 0,0,1
EndSplineSet
EndChar

StartChar: Eng
Encoding: 330 330 428
Width: 1512
Flags: HW
LayerCount: 2
Fore
SplineSet
303 1530 m 1,0,-1
 610 1530 l 1,1,-1
 966 738 l 1,2,-1
 1045 478 l 1,3,-1
 1058 738 l 1,4,-1
 1155 1530 l 1,5,-1
 1497 1530 l 1,6,-1
 1278 0 l 1,7,8
 1250.17 -156.253 1250.17 -156.253 1103.5 -270 c 0,9,10
 939.657 -397.062 939.657 -397.062 695 -414 c 1,11,-1
 638 -286 l 1,12,13
 877.577 -189.618 877.577 -189.618 934 -54.5 c 0,14,15
 953 -9 953 -9 961 47 c 1,16,-1
 633 833 l 1,17,-1
 534 1108 l 1,18,-1
 537 833 l 1,19,-1
 422 0 l 1,20,-1
 84 0 l 1,21,-1
 303 1530 l 1,0,-1
EndSplineSet
EndChar

StartChar: Aring
Encoding: 197 197 431
Width: 1345
Flags: HW
LayerCount: 2
Fore
SplineSet
1186 1781 m 0,0,1
 1186 1615.65 1186 1615.65 1044 1530 c 1,2,-1
 1067 1530 l 1,3,-1
 1294 0 l 1,4,-1
 939 -1 l 1,5,-1
 906 286 l 1,6,-1
 384 286 l 1,7,-1
 267 0 l 1,8,-1
 -123 -1 l 1,9,-1
 609 1514 l 1,10,11
 490 1574.54 490 1574.54 490 1711 c 0,12,13
 490 1870 490 1870 626.5 1950.5 c 0,14,15
 734.174 2014 734.174 2014 880 2014 c 0,16,17
 1094.53 2014 1094.53 2014 1163 1884.5 c 0,18,19
 1186 1841 1186 1841 1186 1781 c 0,0,1
867.061 1878 m 128,-1,21
 826 1878 826 1878 796 1870.5 c 128,-1,22
 766 1863 766 1863 741.5 1846.5 c 0,23,24
 686 1809.12 686 1809.12 686 1734 c 0,25,26
 686 1681.8 686 1681.8 730 1645.5 c 0,27,28
 773.03 1610 773.03 1610 813.515 1610 c 0,29,30
 895 1610 895 1610 943 1642 c 128,-1,31
 991 1674 991 1674 991 1740.01 c 128,-1,32
 991 1806.03 991 1806.03 949.561 1842.01 c 128,-1,20
 908.121 1878 908.121 1878 867.061 1878 c 128,-1,21
879 527 m 1,33,-1
 803 1202 l 1,34,-1
 797 1321 l 1,35,-1
 758 1202 l 1,36,-1
 482 527 l 1,37,-1
 879 527 l 1,33,-1
EndSplineSet
EndChar

StartChar: uni02c9
Encoding: 713 713 440
Width: 620
Flags: HW
LayerCount: 2
Fore
SplineSet
56 1916 m 1,0,-1
 633 1916 l 1,1,-1
 633 1707 l 1,2,-1
 56 1707 l 1,3,-1
 56 1916 l 1,0,-1
EndSplineSet
EndChar

StartChar: uni2113
Encoding: 8467 8467 441
Width: 1387
Flags: HW
LayerCount: 2
Fore
SplineSet
624 297 m 1,0,1
 668.8 241 668.8 241 730.9 241 c 128,-1,2
 793 241 793 241 834 261.5 c 128,-1,3
 875 282 875 282 909.5 315.5 c 0,4,5
 965.945 370.309 965.945 370.309 1024 484 c 1,6,-1
 1285 383 l 1,7,-1
 1243 304.5 l 1,8,9
 1060.1 -27.0001 1060.1 -27.0001 695 -27 c 0,10,11
 575.103 -27 575.103 -27 462 55 c 0,12,13
 422 84 422 84 386 126 c 1,14,-1
 234 33 l 1,15,-1
 -40 192 l 1,16,17
 107.89 270.427 107.89 270.427 265 384 c 1,18,19
 248 469 248 469 248 575.5 c 128,-1,20
 248 682 248 682 267 805.5 c 128,-1,21
 286 929 286 929 323.5 1049 c 128,-1,22
 361 1169 361 1169 418 1277.5 c 128,-1,23
 475 1386 475 1386 550 1468.5 c 0,24,25
 714.091 1649 714.091 1649 924 1649 c 0,26,27
 1079 1649 1079 1649 1163.5 1559 c 0,28,29
 1250.02 1466.85 1250.02 1466.85 1250.02 1289.3 c 0,30,31
 1250.02 911.957 1250.02 911.957 876.5 525.5 c 0,32,33
 761 406 761 406 624 297 c 1,0,1
926 1258 m 0,34,35
 926 1361 926 1361 867 1361 c 0,36,37
 808.699 1361 808.699 1361 740.5 1249.5 c 0,38,39
 640.723 1086.37 640.723 1086.37 591.5 808.5 c 0,40,41
 576 721 576 721 570 634 c 1,42,43
 825.379 875.938 825.379 875.938 901 1100 c 0,44,45
 926.138 1174.48 926.138 1174.48 926.138 1213.55 c 128,-1,46
 926.138 1252.62 926.138 1252.62 926 1258 c 0,34,35
EndSplineSet
EndChar

StartChar: uni2215
Encoding: 8725 8725 442
Width: 854
Flags: HW
LayerCount: 2
Fore
SplineSet
-142 -362 m 1,0,-1
 719 1597 l 1,1,-1
 993 1597 l 1,2,-1
 130 -362 l 1,3,-1
 -142 -362 l 1,0,-1
EndSplineSet
EndChar

StartChar: hyphen
Encoding: 45 45 447
Width: 1266
Flags: HW
LayerCount: 2
Fore
SplineSet
260 896 m 1,0,-1
 1100 896 l 1,1,-1
 1063 648 l 1,2,-1
 223 648 l 1,3,-1
 260 896 l 1,0,-1
EndSplineSet
EndChar

StartChar: minus
Encoding: 8722 8722 448
Width: 1266
Flags: HW
LayerCount: 2
Fore
SplineSet
260 896 m 1,0,-1
 1100 896 l 1,1,-1
 1063 648 l 1,2,-1
 223 648 l 1,3,-1
 260 896 l 1,0,-1
EndSplineSet
EndChar

